0
SECTION
2
HEADER
9
$ACADVER
1
AC1006
0
ENDSEC
0
SECTION
2
TABLES
0
TABLE
2
LAYER
70
2
0
LAYER
70
0
62
1
6
CONTINUOUS
2
L0D0_0
0
LAYER
70
0
62
2
6
CONTINUOUS
2
L3D0_control
0
ENDTAB
0
ENDSEC
0
SECTION
2
BLOCKS
0
BLOCK
2
sandwich
70
0
10
0
20
0
0
SOLID
8
L3D0_control
10
-226
20
74
11
-226
21
199
12
0
22
74
13
0
23
199
0
SOLID
8
L3D0_control
10
-25
20
-50
11
-25
21
425
12
0
22
-50
13
0
23
425
0
ENDBLK
0
BLOCK
2
CIRCLE$4
70
0
10
0
20
0
0
SOLID
8
L3D0_control
10
16
20
-63
11
16
21
-56
12
28
22
-59
13
33
23
-56
0
SOLID
8
L3D0_control
10
10
20
-64
11
10
21
-63
12
16
22
-63
13
16
23
-63
0
SOLID
8
L3D0_control
10
3
20
-65
11
3
21
-63
12
10
22
-64
13
10
23
-63
0
SOLID
8
L3D0_control
10
-3
20
-65
11
-3
21
-63
12
3
22
-65
13
3
23
-63
0
SOLID
8
L3D0_control
10
-3
20
-63
11
-3
21
-56
12
16
22
-63
13
16
23
-56
0
SOLID
8
L3D0_control
10
33
20
-56
11
33
21
-48
12
39
22
-52
13
44
23
-48
0
SOLID
8
L3D0_control
10
-3
20
-56
11
-3
21
-48
12
33
22
-56
13
33
23
-48
0
SOLID
8
L3D0_control
10
44
20
-48
11
44
21
-39
12
48
22
-44
13
52
23
-39
0
SOLID
8
L3D0_control
10
44
20
-39
11
44
21
-33
12
52
22
-39
13
56
23
-33
0
SOLID
8
L3D0_control
10
-3
20
-48
11
-3
21
-33
12
44
22
-48
13
44
23
-33
0
SOLID
8
L3D0_control
10
-3
20
-65
11
-10
21
-64
12
-3
22
-63
13
-16
23
-63
0
SOLID
8
L3D0_control
10
-16
20
-63
11
-16
21
-56
12
-3
22
-63
13
-3
23
-56
0
SOLID
8
L3D0_control
10
-16
20
-63
11
-28
21
-59
12
-16
22
-56
13
-33
23
-56
0
SOLID
8
L3D0_control
10
-33
20
-56
11
-33
21
-48
12
-3
22
-56
13
-3
23
-48
0
SOLID
8
L3D0_control
10
-33
20
-56
11
-39
21
-52
12
-33
22
-48
13
-44
23
-48
0
SOLID
8
L3D0_control
10
-44
20
-48
11
-44
21
-33
12
-3
22
-48
13
-3
23
-33
0
SOLID
8
L3D0_control
10
-44
20
-48
11
-48
21
-44
12
-44
22
-39
13
-52
23
-39
0
SOLID
8
L3D0_control
10
-52
20
-39
11
-56
21
-33
12
-44
22
-39
13
-44
23
-33
0
SOLID
8
L3D0_control
10
56
20
-33
11
56
21
-16
12
59
22
-28
13
63
23
-16
0
SOLID
8
L3D0_control
10
56
20
-16
11
56
21
-10
12
63
22
-16
13
64
23
-10
0
SOLID
8
L3D0_control
10
56
20
-10
11
56
21
-3
12
64
22
-10
13
65
23
-3
0
SOLID
8
L3D0_control
10
-56
20
-33
11
-56
21
-3
12
56
22
-33
13
56
23
-3
0
SOLID
8
L3D0_control
10
-56
20
-33
11
-59
21
-28
12
-56
22
-16
13
-63
23
-16
0
SOLID
8
L3D0_control
10
-63
20
-16
11
-64
21
-10
12
-56
22
-16
13
-56
23
-10
0
SOLID
8
L3D0_control
10
-64
20
-10
11
-65
21
-3
12
-56
22
-10
13
-56
23
-3
0
SOLID
8
L3D0_control
10
56
20
-3
11
56
21
3
12
65
22
-3
13
65
23
3
0
SOLID
8
L3D0_control
10
56
20
3
11
56
21
10
12
65
22
3
13
64
23
10
0
SOLID
8
L3D0_control
10
56
20
10
11
56
21
16
12
64
22
10
13
63
23
16
0
SOLID
8
L3D0_control
10
56
20
16
11
56
21
33
12
63
22
16
13
59
23
28
0
SOLID
8
L3D0_control
10
-56
20
-3
11
-56
21
33
12
56
22
-3
13
56
23
33
0
SOLID
8
L3D0_control
10
-65
20
-3
11
-65
21
3
12
-56
22
-3
13
-56
23
3
0
SOLID
8
L3D0_control
10
-65
20
3
11
-64
21
10
12
-56
22
3
13
-56
23
10
0
SOLID
8
L3D0_control
10
-64
20
10
11
-63
21
16
12
-56
22
10
13
-56
23
16
0
SOLID
8
L3D0_control
10
-63
20
16
11
-59
21
28
12
-56
22
16
13
-56
23
33
0
SOLID
8
L3D0_control
10
44
20
33
11
44
21
39
12
56
22
33
13
52
23
39
0
SOLID
8
L3D0_control
10
44
20
39
11
44
21
48
12
52
22
39
13
48
23
44
0
SOLID
8
L3D0_control
10
-3
20
33
11
-3
21
48
12
44
22
33
13
44
23
48
0
SOLID
8
L3D0_control
10
33
20
48
11
33
21
56
12
44
22
48
13
39
23
52
0
SOLID
8
L3D0_control
10
-3
20
48
11
-3
21
56
12
33
22
48
13
33
23
56
0
SOLID
8
L3D0_control
10
16
20
56
11
16
21
63
12
33
22
56
13
28
23
59
0
SOLID
8
L3D0_control
10
-3
20
56
11
-3
21
63
12
16
22
56
13
16
23
63
0
SOLID
8
L3D0_control
10
3
20
63
11
3
21
65
12
16
22
63
13
10
23
64
0
SOLID
8
L3D0_control
10
-3
20
63
11
-3
21
65
12
3
22
63
13
3
23
65
0
SOLID
8
L3D0_control
10
-44
20
33
11
-44
21
48
12
-3
22
33
13
-3
23
48
0
SOLID
8
L3D0_control
10
-56
20
33
11
-52
21
39
12
-44
22
33
13
-44
23
39
0
SOLID
8
L3D0_control
10
-52
20
39
11
-48
21
44
12
-44
22
39
13
-44
23
48
0
SOLID
8
L3D0_control
10
-33
20
48
11
-33
21
56
12
-3
22
48
13
-3
23
56
0
SOLID
8
L3D0_control
10
-44
20
48
11
-39
21
52
12
-33
22
48
13
-33
23
56
0
SOLID
8
L3D0_control
10
-16
20
56
11
-16
21
63
12
-3
22
56
13
-3
23
63
0
SOLID
8
L3D0_control
10
-16
20
63
11
-10
21
64
12
-3
22
63
13
-3
23
65
0
SOLID
8
L3D0_control
10
-33
20
56
11
-28
21
59
12
-16
22
56
13
-16
23
63
0
ENDBLK
0
BLOCK
2
CIRCLE$5
70
0
10
0
20
0
0
ENDBLK
0
BLOCK
2
CIRCLE
70
0
10
0
20
0
0
ENDBLK
0
BLOCK
2
chamber
70
0
10
0
20
0
0
INSERT
8
0
2
CIRCLE
10
25
20
75
41
1
42
1
50
0
0
INSERT
8
0
2
sandwich
10
50
20
-250
41
1
42
1
50
0
0
INSERT
8
0
2
CIRCLE$5
10
-75
20
75
41
1
42
1
50
0
0
INSERT
8
0
2
CIRCLE$4
10
-75
20
75
41
1
42
1
50
0
0
SOLID
8
L3D0_control
10
-235
20
25
11
-235
21
50
12
-100
22
25
13
-100
23
50
0
SOLID
8
L3D0_control
10
-135
20
50
11
-138
21
59
12
-100
22
50
13
-100
23
59
0
SOLID
8
L3D0_control
10
-138
20
59
11
-138
21
72
12
-100
22
59
13
-100
23
72
0
SOLID
8
L3D0_control
10
-138
20
59
11
-139
21
65
12
-138
22
72
13
-140
23
72
0
SOLID
8
L3D0_control
10
-139
20
72
11
-139
21
85
12
-100
22
72
13
-100
23
85
0
SOLID
8
L3D0_control
10
-140
20
72
11
-140
21
78
12
-139
22
72
13
-139
23
85
0
SOLID
8
L3D0_control
10
-139
20
85
11
-138
21
91
12
-100
22
85
13
-100
23
91
0
SOLID
8
L3D0_control
10
-138
20
91
11
-135
21
100
12
-100
22
91
13
-100
23
100
0
SOLID
8
L3D0_control
10
-235
20
100
11
-235
21
125
12
-100
22
100
13
-100
23
125
0
SOLID
8
L3D0_control
10
-275
20
100
11
-275
21
125
12
-235
22
100
13
-235
23
125
0
SOLID
8
L3D0_control
10
-275
20
25
11
-275
21
100
12
-235
22
25
13
-235
23
100
0
SOLID
8
L3D0_control
10
-275
20
125
11
-275
21
425
12
-225
22
125
13
-225
23
425
0
SOLID
8
L3D0_control
10
-275
20
425
11
-275
21
450
12
-235
22
425
13
-235
23
450
0
ENDBLK
0
BLOCK
2
control-inlet
70
0
10
0
20
0
0
SOLID
8
L3D0_control
10
126
20
-354
11
126
21
-322
12
161
22
-339
13
193
23
-322
0
SOLID
8
L3D0_control
10
126
20
-322
11
126
21
-302
12
193
22
-322
13
225
23
-302
0
SOLID
8
L3D0_control
10
163.083
20
-302
11
163.083
21
-278
12
225
22
-302
13
252
23
-278
0
SOLID
8
L3D0_control
10
126
20
-302
11
126
21
-293.345
12
163.083
22
-302
13
163.083
23
-278
0
SOLID
8
L3D0_control
10
55
20
-372
11
55
21
-354
12
91
22
-364
13
126
23
-354
0
SOLID
8
L3D0_control
10
55
20
-354
11
55
21
-322.724
12
126
22
-354
13
126
23
-322.724
0
SOLID
8
L3D0_control
10
55
20
-322.724
11
126
21
-293.345
12
126
22
-322.724
13
126
23
-322.724
0
SOLID
8
L3D0_control
10
35.034
20
-373.619
11
35.034
21
-330.986
12
55
22
-372
13
55
23
-322.724
0
SOLID
8
L3D0_control
10
18
20
-375
11
18
21
-331
12
35.034
22
-373.619
13
35.034
23
-331
0
SOLID
8
L3D0_control
10
35
20
-331
11
35.034
21
-330.986
12
35.034
22
-331
13
35.034
23
-331
0
SOLID
8
L3D0_control
10
18
20
-331
11
18
21
-322.724
12
35
22
-331
13
35.034
23
-322.724
0
SOLID
8
L3D0_control
10
18
20
-322.724
11
18
21
-278
12
35.034
22
-322.724
13
35.216
23
-278
0
SOLID
8
L3D0_control
10
209
20
-278
11
209
21
-253
12
252
22
-278
13
279
23
-253
0
SOLID
8
L3D0_control
10
209
20
-259
11
203
21
-253
12
209
22
-253
13
209
23
-253
0
SOLID
8
L3D0_control
10
163.083
20
-278
11
209
21
-259
12
209
22
-278
13
209
23
-278
0
SOLID
8
L3D0_control
10
203
20
-253
11
174
21
-224
12
279
22
-253
13
302
23
-224
0
SOLID
8
L3D0_control
10
265.621
20
-224
11
265.621
21
-193
12
302
22
-224
13
323
23
-193
0
SOLID
8
L3D0_control
10
259
20
-224
11
259
21
-209
12
265.621
22
-224
13
265.621
23
-193
0
SOLID
8
L3D0_control
10
243
20
-224
11
243
21
-193
12
259
22
-224
13
259
23
-209
0
SOLID
8
L3D0_control
10
174
20
-224
11
143
21
-193
12
243
22
-224
13
243
23
-193
0
SOLID
8
L3D0_control
10
18
20
-278
11
18
21
-193
12
35.216
22
-278
13
35.563
23
-193
0
SOLID
8
L3D0_control
10
265.621
20
-193
11
279.276
21
-160
12
323
22
-193
13
339
23
-160
0
SOLID
8
L3D0_control
10
279.276
20
-160
11
293.345
21
-126
12
339
22
-160
13
353
23
-126
0
SOLID
8
L3D0_control
10
293.345
20
-126
11
307.828
21
-91
12
353
22
-126
13
365
23
-91
0
SOLID
8
L3D0_control
10
307.828
20
-91
11
322.724
21
-55
12
365
22
-91
13
371
23
-55
0
SOLID
8
L3D0_control
10
322.724
20
-55
11
331
21
-35
12
371
22
-55
13
373.778
23
-35
0
SOLID
8
L3D0_control
10
373.778
20
-35
11
373.778
21
-18
12
376
22
-19
13
375.973
23
-18
0
SOLID
8
L3D0_control
10
307.828
20
-35
11
307.828
21
-18
12
373.778
22
-35
13
373.778
23
-18
0
SOLID
8
L3D0_control
10
18
20
-35
11
18
21
-18
12
307.828
22
-35
13
307.828
23
-18
0
SOLID
8
L3D0_control
10
143
20
-193
11
36
21
-86
12
243
22
-193
13
136
23
-86
0
SOLID
8
L3D0_control
10
136
20
-35.796
11
136
21
-35
12
331
22
-35
13
331
23
-35
0
SOLID
8
L3D0_control
10
18
20
-86
11
18
21
-36
12
136
22
-86
13
86
23
-36
0
SOLID
8
L3D0_control
10
86
20
-36
11
86
21
-35
12
136
22
-35.796
13
136
23
-35
0
SOLID
8
L3D0_control
10
18
20
-36
11
18
21
-35
12
86
22
-36
13
86
23
-35
0
SOLID
8
L3D0_control
10
18
20
-193
11
18
21
-86
12
35.563
22
-193
13
36
23
-86
0
SOLID
8
L3D0_control
10
-19
20
-376
11
-19
21
-279
12
18
22
-375
13
18
23
-279
0
SOLID
8
L3D0_control
10
-19
20
-376
11
-35
21
-373.777
12
-19
22
-330.9
13
-35
23
-330.9
0
SOLID
8
L3D0_control
10
-35
20
-373.777
11
-35.241
21
-373.744
12
-35
22
-331
13
-35.241
23
-330.9
0
SOLID
8
L3D0_control
10
-35
20
-330.9
11
-35.241
21
-279
12
-19
22
-330.9
13
-19
23
-279
0
SOLID
8
L3D0_control
10
-35.241
20
-373.744
11
-55
21
-371
12
-35.241
22
-330.9
13
-55
23
-322.724
0
SOLID
8
L3D0_control
10
-55
20
-371
11
-91
21
-365
12
-55
22
-353
13
-126
23
-353
0
SOLID
8
L3D0_control
10
-126
20
-353
11
-126
21
-322.724
12
-55
22
-353
13
-55
23
-322.724
0
SOLID
8
L3D0_control
10
-126
20
-322.724
11
-126
21
-293.345
12
-55
22
-322.724
13
-55
23
-322.724
0
SOLID
8
L3D0_control
10
-126
20
-353
11
-160
21
-339
12
-126
22
-323
13
-193
23
-323
0
SOLID
8
L3D0_control
10
-193
20
-323
11
-224
21
-302
12
-126
22
-323
13
-126
23
-302
0
SOLID
8
L3D0_control
10
-160.667
20
-302
11
-160.667
21
-279
12
-126
22
-302
13
-126
23
-293.345
0
SOLID
8
L3D0_control
10
-224
20
-302
11
-253
21
-279
12
-160.667
22
-302
13
-160.667
23
-279
0
SOLID
8
L3D0_control
10
-35.241
20
-279
11
-35.639
21
-193
12
18
22
-279
13
18
23
-193
0
SOLID
8
L3D0_control
10
-209
20
-279
11
-209
21
-259
12
-160.667
22
-279
13
-160.667
23
-279
0
SOLID
8
L3D0_control
10
-209
20
-259
11
-209
21
-252
12
-202
22
-252
13
-202
23
-252
0
SOLID
8
L3D0_control
10
-253
20
-279
11
-278
21
-252
12
-209
22
-279
13
-209
23
-252
0
SOLID
8
L3D0_control
10
-278
20
-252
11
-302
21
-225
12
-202
22
-252
13
-175
23
-225
0
SOLID
8
L3D0_control
10
-243.308
20
-225
11
-243.308
21
-193
12
-175
22
-225
13
-143
23
-193
0
SOLID
8
L3D0_control
10
-259
20
-225
11
-259
21
-209
12
-243.308
22
-225
13
-243.308
23
-193
0
SOLID
8
L3D0_control
10
-265.621
20
-225
11
-265.621
21
-193
12
-259
22
-225
13
-259
23
-209
0
SOLID
8
L3D0_control
10
-302
20
-225
11
-322
21
-193
12
-265.621
22
-225
13
-265.621
23
-193
0
SOLID
8
L3D0_control
10
-35.639
20
-193
11
-36
21
-115
12
18
22
-193
13
18
23
-115
0
SOLID
8
L3D0_control
10
-36
20
-115
11
-36
21
-86.211
12
18
22
-115
13
18
23
-86.211
0
SOLID
8
L3D0_control
10
-136.626
20
-86.211
11
-86
21
-36
12
18
22
-86.211
13
18
23
-36
0
SOLID
8
L3D0_control
10
-86
20
-36
11
-86
21
-18
12
18
22
-36
13
18
23
-18
0
SOLID
8
L3D0_control
10
-86
20
-36
11
-136.626
21
-35.793
12
-86
22
-18
13
-136.626
23
-18
0
SOLID
8
L3D0_control
10
-136.626
20
-35.793
11
-331
21
-35
12
-136.626
22
-18
13
-331
23
-18
0
SOLID
8
L3D0_control
10
-373.5
20
-35
11
-375
21
-18
12
-331
22
-35
13
-331
23
-18
0
SOLID
8
L3D0_control
10
-243.308
20
-193
11
-208
21
-157
12
-143
22
-193
13
-107
23
-157
0
SOLID
8
L3D0_control
10
-208
20
-157
11
-136.774
21
-86.358
12
-107
22
-157
13
-36.358
23
-86.358
0
SOLID
8
L3D0_control
10
-136.774
20
-86.358
11
-136.626
21
-86.211
12
-36.358
22
-86.358
13
-36
23
-86.211
0
SOLID
8
L3D0_control
10
-322
20
-193
11
-339
21
-161
12
-265.621
22
-193
13
-278.862
23
-161
0
SOLID
8
L3D0_control
10
-339
20
-161
11
-354
21
-126
12
-278.862
22
-161
13
-293.345
23
-126
0
SOLID
8
L3D0_control
10
-354
20
-126
11
-364
21
-91
12
-293.345
22
-126
13
-307.828
23
-91
0
SOLID
8
L3D0_control
10
-364
20
-91
11
-372
21
-55
12
-307.828
22
-91
13
-322.724
23
-55
0
SOLID
8
L3D0_control
10
-372
20
-55
11
-372
21
-52
12
-322.724
22
-55
13
-323.965
23
-52
0
SOLID
8
L3D0_control
10
-372
20
-52
11
-373.5
21
-35
12
-323.965
22
-52
13
-331
23
-35
0
SOLID
8
L3D0_control
10
220.465
20
-18
11
220.465
21
18
12
375.973
22
-18
13
375
23
18
0
SOLID
8
L3D0_control
10
373.585
20
18
11
373.585
21
35.451
12
375
22
18
13
375
23
18
0
SOLID
8
L3D0_control
10
330.813
20
18
11
330.813
21
35
12
373.585
22
18
13
373.585
23
35
0
SOLID
8
L3D0_control
10
331
20
35
11
330.813
21
35.451
12
373.585
22
35
13
373.585
23
35.451
0
SOLID
8
L3D0_control
10
330.813
20
35
11
330.813
21
35.001
12
331
22
35
13
331
23
35
0
SOLID
8
L3D0_control
10
220.465
20
18
11
220.465
21
35.451
12
330.813
22
18
13
330.813
23
35.001
0
SOLID
8
L3D0_control
10
330.813
20
35.451
11
322.724
21
55
12
373.585
22
35.451
13
372
23
55
0
SOLID
8
L3D0_control
10
322.724
20
55
11
307.828
21
91
12
372
22
55
13
364
23
91
0
SOLID
8
L3D0_control
10
307.828
20
91
11
293.345
21
126
12
364
22
91
13
354
23
126
0
SOLID
8
L3D0_control
10
293.345
20
126
11
278.862
21
161
12
354
22
126
13
339
23
161
0
SOLID
8
L3D0_control
10
278.862
20
161
11
265.621
21
193
12
339
22
161
13
322
23
193
0
SOLID
8
L3D0_control
10
220.465
20
170.465
11
220.465
21
193
12
243
22
193
13
243
23
193
0
SOLID
8
L3D0_control
10
-18
20
-18
11
-18
21
35.451
12
220.465
22
-18
13
220.465
23
35.451
0
SOLID
8
L3D0_control
10
86
20
35.451
11
86
21
36
12
220.465
22
35.451
13
220.465
23
35.451
0
SOLID
8
L3D0_control
10
86
20
36
11
86
21
86
12
136
22
86
13
136
23
86
0
SOLID
8
L3D0_control
10
-18
20
35.451
11
-18
21
86
12
86
22
35.451
13
86
23
86
0
SOLID
8
L3D0_control
10
36
20
86
11
88
21
138
12
136
22
86
13
188
23
138
0
SOLID
8
L3D0_control
10
88
20
138
11
220.465
21
193
12
188
22
138
13
220.465
23
170.465
0
SOLID
8
L3D0_control
10
-18
20
86
11
-18
21
193
12
36
22
86
13
35.563
23
193
0
SOLID
8
L3D0_control
10
88
20
138
11
143
21
193
12
220.465
22
193
13
220.465
23
193
0
SOLID
8
L3D0_control
10
265.621
20
193
11
265.621
21
225
12
322
22
193
13
302
23
225
0
SOLID
8
L3D0_control
10
265.621
20
193
11
259
21
209
12
265.621
22
225
13
259
23
225
0
SOLID
8
L3D0_control
10
220.465
20
193
11
220.465
21
225
12
259
22
209
13
259
23
225
0
SOLID
8
L3D0_control
10
143
20
193
11
175
21
225
12
220.465
22
193
13
220.465
23
225
0
SOLID
8
L3D0_control
10
175
20
225
11
202
21
252
12
302
22
225
13
278
23
252
0
SOLID
8
L3D0_control
10
209
20
252
11
209
21
279
12
278
22
252
13
253
23
279
0
SOLID
8
L3D0_control
10
209
20
259
11
160.667
21
279
12
209
22
279
13
209
23
279
0
SOLID
8
L3D0_control
10
202
20
252
11
209
21
259
12
209
22
252
13
209
23
252
0
SOLID
8
L3D0_control
10
160.667
20
279
11
160.667
21
302
12
253
22
279
13
224
23
302
0
SOLID
8
L3D0_control
10
160.667
20
279
11
126
21
293.345
12
160.667
22
302
13
126
23
302
0
SOLID
8
L3D0_control
10
126
20
302
11
126
21
323
12
224
22
302
13
193
23
323
0
SOLID
8
L3D0_control
10
126
20
323
11
126
21
353
12
193
22
323
13
160
23
339
0
SOLID
8
L3D0_control
10
126
20
293.345
11
55
21
322.724
12
126
22
322.724
13
126
23
322.724
0
SOLID
8
L3D0_control
10
55
20
322.724
11
55
21
353
12
126
22
322.724
13
126
23
353
0
SOLID
8
L3D0_control
10
55
20
353
11
55
21
371
12
126
22
353
13
91
23
365
0
SOLID
8
L3D0_control
10
55
20
322.724
11
35
21
331
12
55
22
371
13
35
23
373.778
0
SOLID
8
L3D0_control
10
19
20
324.371
11
19
21
376
12
35
22
331
13
35
23
373.778
0
SOLID
8
L3D0_control
10
-18
20
309.043
11
-18
21
375
12
19
22
324.371
13
19
23
376
0
SOLID
8
L3D0_control
10
220.465
20
193
11
259
21
209
12
243
22
193
13
243
23
193
0
SOLID
8
L3D0_control
10
-18
20
193
11
-18
21
309.043
12
35.563
22
193
13
35
23
331
0
SOLID
8
L3D0_control
10
-304
20
219
11
-302
21
224
12
-222.339
22
253
13
-279
23
253
0
SOLID
8
L3D0_control
10
-222.339
20
253
11
-222.339
21
302
12
-104.652
22
302
13
-104.652
23
302
0
SOLID
8
L3D0_control
10
-279
20
253
11
-252
21
278
12
-222.339
22
253
13
-222.339
23
278
0
SOLID
8
L3D0_control
10
-252
20
278
11
-225
21
302
12
-222.339
22
278
13
-222.339
23
302
0
SOLID
8
L3D0_control
10
-35
20
302
11
-35
21
339
12
-18
22
309.043
13
-18
23
339
0
SOLID
8
L3D0_control
10
-104.652
20
302
11
-104.652
21
339
12
-35
22
331
13
-35
23
339
0
SOLID
8
L3D0_control
10
-161
20
302
11
-161
21
339
12
-104.652
22
302
13
-104.652
23
339
0
SOLID
8
L3D0_control
10
-225
20
302
11
-193
21
322
12
-161
22
302
13
-161
23
339
0
SOLID
8
L3D0_control
10
-91
20
339
11
-91
21
364
12
-18
22
339
13
-18
23
364
0
SOLID
8
L3D0_control
10
-91
20
364
11
-55
21
372
12
-18
22
364
13
-18
23
375
0
SOLID
8
L3D0_control
10
-161
20
339
11
-126
21
354
12
-91
22
339
13
-91
23
364
0
SOLID
8
L3D0_control
10
-36
20
-18
11
-36
21
87
12
-18
22
-18
13
-18
23
87
0
SOLID
8
L3D0_control
10
-36
20
87
11
-35.769
21
136.711
12
-18
22
87
13
-18
23
136.711
0
SOLID
8
L3D0_control
10
-86
20
-18
11
-86
21
136.711
12
-36
22
-18
13
-36
23
87
0
SOLID
8
L3D0_control
10
-35.769
20
136.711
11
-35
21
302
12
-18
22
136.711
13
-18
23
309.043
0
SOLID
8
L3D0_control
10
-86
20
36
11
-209
21
159
12
-86
22
136.711
13
-209
23
259
0
SOLID
8
L3D0_control
10
-209
20
-18
11
-209
21
35.498
12
-86
22
-18
13
-86
23
36
0
SOLID
8
L3D0_control
10
-209
20
159
11
-259
21
209
12
-209
22
259
13
-259
23
237.947
0
SOLID
8
L3D0_control
10
-330
20
179
11
-323
21
193
12
-259
22
209
13
-311.308
23
209
0
SOLID
8
L3D0_control
10
-311.308
20
209
11
-304
21
219
12
-259
22
209
13
-259
23
237.947
0
SOLID
8
L3D0_control
10
-330.794
20
-18
11
-330.794
21
35.001
12
-209
22
-18
13
-209
23
35.498
0
SOLID
8
L3D0_control
10
-375
20
-18
11
-376
21
19
12
-330.794
22
-18
13
-330.794
23
19
0
SOLID
8
L3D0_control
10
-373.709
20
19
11
-373.709
21
35
12
-330.794
22
19
13
-330.794
23
35
0
SOLID
8
L3D0_control
10
-331
20
35
11
-330.794
21
35.001
12
-330.794
22
35
13
-330.794
23
35
0
SOLID
8
L3D0_control
10
-373.709
20
35
11
-373.709
21
35.498
12
-331
22
35
13
-330.794
23
35.498
0
SOLID
8
L3D0_control
10
-376
20
19
11
-373.709
21
35.498
12
-373.709
22
19
13
-373.709
23
19
0
SOLID
8
L3D0_control
10
-373.709
20
35.498
11
-371
21
55
12
-330.794
22
35.498
13
-322.724
23
55
0
SOLID
8
L3D0_control
10
-371
20
55
11
-365
21
91
12
-322.724
22
55
13
-307.828
23
91
0
SOLID
8
L3D0_control
10
-365
20
91
11
-353
21
126
12
-307.828
22
91
13
-293.345
23
126
0
SOLID
8
L3D0_control
10
-353
20
126
11
-339
21
160
12
-293.345
22
126
13
-279.276
23
160
0
SOLID
8
L3D0_control
10
-339
20
160
11
-330
21
179
12
-279.276
22
160
13
-259
23
209
0
ENDBLK
0
BLOCK
2
flow-inlet
70
0
10
0
20
0
0
ENDBLK
0
BLOCK
2
TEXT$3
70
0
10
0
20
0
0
ENDBLK
0
BLOCK
2
TEXT
70
0
10
0
20
0
0
SOLID
8
L3D0_control
10
280
20
0
11
280
21
80
12
320
22
0
13
400
23
80
0
SOLID
8
L3D0_control
10
280
20
80
11
320
21
120
12
400
22
80
13
400
23
120
0
SOLID
8
L3D0_control
10
0
20
0
11
0
21
80
12
280
22
0
13
280
23
80
0
SOLID
8
L3D0_control
10
0
20
80
11
0
21
120
12
80
22
80
13
80
23
120
0
SOLID
8
L3D0_control
10
320
20
120
11
320
21
240
12
400
22
120
13
400
23
240
0
SOLID
8
L3D0_control
10
320
20
200
11
280
21
240
12
320
22
240
13
320
23
240
0
SOLID
8
L3D0_control
10
0
20
120
11
0
21
240
12
80
22
120
13
80
23
240
0
SOLID
8
L3D0_control
10
0
20
240
11
0
21
280
12
400
22
240
13
360
23
280
0
SOLID
8
L3D0_control
10
320
20
280
11
320
21
320
12
360
22
280
13
400
23
320
0
SOLID
8
L3D0_control
10
320
20
320
11
320
21
440
12
400
22
320
13
400
23
440
0
SOLID
8
L3D0_control
10
280
20
280
11
280
21
320
12
320
22
280
13
320
23
360
0
SOLID
8
L3D0_control
10
0
20
280
11
0
21
320
12
280
22
280
13
280
23
320
0
SOLID
8
L3D0_control
10
0
20
320
11
0
21
440
12
80
22
320
13
80
23
440
0
SOLID
8
L3D0_control
10
320
20
440
11
280
21
480
12
400
22
440
13
400
23
480
0
SOLID
8
L3D0_control
10
320
20
480
11
320
21
560
12
400
22
480
13
400
23
480
0
SOLID
8
L3D0_control
10
0
20
440
11
0
21
480
12
80
22
440
13
80
23
480
0
SOLID
8
L3D0_control
10
0
20
480
11
0
21
560
12
320
22
480
13
320
23
560
0
ENDBLK
0
BLOCK
2
TEXT$10
70
0
10
0
20
0
0
SOLID
8
L3D0_control
10
120
20
0
11
120
21
80
12
320
22
0
13
400
23
80
0
SOLID
8
L3D0_control
10
280
20
80
11
320
21
120
12
400
22
80
13
400
23
120
0
SOLID
8
L3D0_control
10
320
20
120
11
320
21
280
12
400
22
120
13
400
23
280
0
SOLID
8
L3D0_control
10
80
20
0
11
80
21
120
12
120
22
0
13
120
23
80
0
SOLID
8
L3D0_control
10
80
20
0
11
0
21
80
12
80
22
280
13
0
23
280
0
SOLID
8
L3D0_control
10
320
20
280
11
320
21
560
12
400
22
280
13
400
23
480
0
SOLID
8
L3D0_control
10
320
20
440
11
280
21
480
12
320
22
560
13
280
23
560
0
SOLID
8
L3D0_control
10
0
20
280
11
0
21
440
12
80
22
280
13
80
23
440
0
SOLID
8
L3D0_control
10
0
20
440
11
0
21
480
12
80
22
440
13
120
23
480
0
SOLID
8
L3D0_control
10
0
20
480
11
80
21
560
12
280
22
480
13
280
23
560
0
ENDBLK
0
BLOCK
2
TEXT$11
70
0
10
0
20
0
0
SOLID
8
L3D0_control
10
120
20
0
11
120
21
80
12
320
22
0
13
400
23
80
0
SOLID
8
L3D0_control
10
280
20
80
11
320
21
120
12
400
22
80
13
400
23
120
0
SOLID
8
L3D0_control
10
320
20
120
11
320
21
240
12
400
22
120
13
400
23
240
0
SOLID
8
L3D0_control
10
320
20
200
11
280
21
240
12
320
22
240
13
320
23
240
0
SOLID
8
L3D0_control
10
80
20
0
11
80
21
120
12
120
22
0
13
120
23
80
0
SOLID
8
L3D0_control
10
80
20
0
11
0
21
80
12
80
22
160
13
0
23
160
0
SOLID
8
L3D0_control
10
80
20
240
11
0
21
320
12
400
22
240
13
320
23
320
0
SOLID
8
L3D0_control
10
80
20
320
11
80
21
360
12
120
22
320
13
120
23
320
0
SOLID
8
L3D0_control
10
0
20
320
11
0
21
400
12
80
22
320
13
80
23
400
0
SOLID
8
L3D0_control
10
80
20
440
11
80
21
480
12
120
22
480
13
120
23
480
0
SOLID
8
L3D0_control
10
0
20
400
11
0
21
480
12
80
22
400
13
80
23
480
0
SOLID
8
L3D0_control
10
320
20
400
11
320
21
480
12
400
22
400
13
400
23
480
0
SOLID
8
L3D0_control
10
320
20
440
11
280
21
480
12
320
22
480
13
320
23
480
0
SOLID
8
L3D0_control
10
0
20
480
11
80
21
560
12
400
22
480
13
320
23
560
0
ENDBLK
0
BLOCK
2
TEXT$12
70
0
10
0
20
0
0
SOLID
8
L3D0_control
10
120
20
0
11
120
21
80
12
320
22
0
13
400
23
80
0
SOLID
8
L3D0_control
10
280
20
80
11
320
21
120
12
400
22
80
13
400
23
120
0
SOLID
8
L3D0_control
10
320
20
120
11
320
21
440
12
400
22
120
13
400
23
440
0
SOLID
8
L3D0_control
10
80
20
0
11
0
21
80
12
120
22
0
13
120
23
80
0
SOLID
8
L3D0_control
10
0
20
80
11
0
21
120
12
120
22
80
13
80
23
120
0
SOLID
8
L3D0_control
10
0
20
120
11
0
21
440
12
80
22
120
13
80
23
440
0
SOLID
8
L3D0_control
10
320
20
440
11
280
21
480
12
400
22
440
13
400
23
480
0
SOLID
8
L3D0_control
10
120
20
480
11
120
21
560
12
400
22
480
13
320
23
560
0
SOLID
8
L3D0_control
10
0
20
440
11
0
21
480
12
80
22
440
13
120
23
480
0
SOLID
8
L3D0_control
10
0
20
480
11
80
21
560
12
120
22
480
13
120
23
560
0
SOLID
8
L3D0_control
10
160
20
200
11
160
21
360
12
240
22
200
13
240
23
360
0
ENDBLK
0
BLOCK
2
TEXT$13
70
0
10
0
20
0
0
SOLID
8
L3D0_control
10
160
20
0
11
160
21
80
12
400
22
0
13
400
23
80
0
SOLID
8
L3D0_control
10
160
20
80
11
160
21
560
12
240
22
80
13
240
23
560
0
SOLID
8
L3D0_control
10
0
20
320
11
0
21
400
12
40
22
320
13
120
23
400
0
SOLID
8
L3D0_control
10
0
20
400
11
160
21
560
12
160
22
400
13
160
23
400
0
SOLID
8
L3D0_control
10
0
20
0
11
0
21
80
12
160
22
0
13
160
23
80
0
ENDBLK
0
BLOCK
2
TEXT$14
70
0
10
0
20
0
0
SOLID
8
L3D0_control
10
0
20
0
11
0
21
80
12
400
22
0
13
400
23
80
0
SOLID
8
L3D0_control
10
0
20
80
11
0
21
160
12
80
22
80
13
80
23
160
0
SOLID
8
L3D0_control
10
120
20
200
11
120
21
280
12
320
22
200
13
400
23
280
0
SOLID
8
L3D0_control
10
0
20
160
11
0
21
200
12
80
22
160
13
120
23
200
0
SOLID
8
L3D0_control
10
0
20
200
11
80
21
280
12
120
22
200
13
120
23
280
0
SOLID
8
L3D0_control
10
320
20
280
11
320
21
440
12
400
22
280
13
400
23
440
0
SOLID
8
L3D0_control
10
280
20
280
11
320
21
320
12
320
22
280
13
320
23
280
0
SOLID
8
L3D0_control
10
320
20
440
11
280
21
480
12
400
22
440
13
400
23
480
0
SOLID
8
L3D0_control
10
280
20
480
11
280
21
560
12
400
22
480
13
320
23
560
0
SOLID
8
L3D0_control
10
80
20
440
11
80
21
480
12
120
22
480
13
120
23
480
0
SOLID
8
L3D0_control
10
0
20
400
11
0
21
480
12
80
22
400
13
80
23
480
0
SOLID
8
L3D0_control
10
0
20
480
11
80
21
560
12
280
22
480
13
280
23
560
0
ENDBLK
0
BLOCK
2
1mm-ruler
70
0
10
0
20
0
0
SOLID
8
L3D0_control
10
30
20
0
11
30
21
40
12
33
22
0
13
33
23
40
0
SOLID
8
L3D0_control
10
80
20
0
11
80
21
40
12
83
22
0
13
83
23
40
0
SOLID
8
L3D0_control
10
130
20
0
11
130
21
40
12
133
22
0
13
133
23
40
0
SOLID
8
L3D0_control
10
180
20
0
11
180
21
40
12
183
22
0
13
183
23
40
0
SOLID
8
L3D0_control
10
230
20
0
11
230
21
40
12
233
22
0
13
233
23
40
0
SOLID
8
L3D0_control
10
280
20
0
11
280
21
40
12
283
22
0
13
283
23
40
0
SOLID
8
L3D0_control
10
330
20
0
11
330
21
40
12
333
22
0
13
333
23
40
0
SOLID
8
L3D0_control
10
380
20
0
11
380
21
40
12
383
22
0
13
383
23
40
0
SOLID
8
L3D0_control
10
430
20
0
11
430
21
40
12
433
22
0
13
433
23
40
0
SOLID
8
L3D0_control
10
480
20
0
11
480
21
40
12
483
22
0
13
483
23
40
0
SOLID
8
L3D0_control
10
530
20
0
11
530
21
40
12
533
22
0
13
533
23
40
0
SOLID
8
L3D0_control
10
580
20
0
11
580
21
40
12
583
22
0
13
583
23
40
0
SOLID
8
L3D0_control
10
630
20
0
11
630
21
40
12
633
22
0
13
633
23
40
0
SOLID
8
L3D0_control
10
680
20
0
11
680
21
40
12
683
22
0
13
683
23
40
0
SOLID
8
L3D0_control
10
730
20
0
11
730
21
40
12
733
22
0
13
733
23
40
0
SOLID
8
L3D0_control
10
780
20
0
11
780
21
40
12
783
22
0
13
783
23
40
0
SOLID
8
L3D0_control
10
830
20
0
11
830
21
40
12
833
22
0
13
833
23
40
0
SOLID
8
L3D0_control
10
880
20
0
11
880
21
40
12
883
22
0
13
883
23
40
0
SOLID
8
L3D0_control
10
930
20
0
11
930
21
40
12
933
22
0
13
933
23
40
0
SOLID
8
L3D0_control
10
980
20
0
11
980
21
40
12
983
22
0
13
983
23
40
0
SOLID
8
L3D0_control
10
55
20
0
11
55
21
40
12
58
22
0
13
58
23
40
0
SOLID
8
L3D0_control
10
155
20
0
11
155
21
40
12
158
22
0
13
158
23
40
0
SOLID
8
L3D0_control
10
255
20
0
11
255
21
40
12
258
22
0
13
258
23
40
0
SOLID
8
L3D0_control
10
355
20
0
11
355
21
40
12
358
22
0
13
358
23
40
0
SOLID
8
L3D0_control
10
455
20
0
11
455
21
40
12
458
22
0
13
458
23
40
0
SOLID
8
L3D0_control
10
555
20
0
11
555
21
40
12
558
22
0
13
558
23
40
0
SOLID
8
L3D0_control
10
655
20
0
11
655
21
40
12
658
22
0
13
658
23
40
0
SOLID
8
L3D0_control
10
755
20
0
11
755
21
40
12
758
22
0
13
758
23
40
0
SOLID
8
L3D0_control
10
855
20
0
11
855
21
40
12
858
22
0
13
858
23
40
0
SOLID
8
L3D0_control
10
955
20
0
11
955
21
40
12
958
22
0
13
958
23
40
0
SOLID
8
L3D0_control
10
0
20
0
11
0
21
200
12
13
22
0
13
13
23
200
0
SOLID
8
L3D0_control
10
104
20
0
11
104
21
80
12
109
22
0
13
109
23
80
0
SOLID
8
L3D0_control
10
204
20
0
11
204
21
80
12
209
22
0
13
209
23
80
0
SOLID
8
L3D0_control
10
304
20
0
11
304
21
80
12
309
22
0
13
309
23
80
0
SOLID
8
L3D0_control
10
404
20
0
11
404
21
80
12
409
22
0
13
409
23
80
0
SOLID
8
L3D0_control
10
504
20
0
11
504
21
80
12
509
22
0
13
509
23
80
0
SOLID
8
L3D0_control
10
604
20
0
11
604
21
80
12
609
22
0
13
609
23
80
0
SOLID
8
L3D0_control
10
704
20
0
11
704
21
80
12
709
22
0
13
709
23
80
0
SOLID
8
L3D0_control
10
804
20
0
11
804
21
80
12
809
22
0
13
809
23
80
0
SOLID
8
L3D0_control
10
904
20
0
11
904
21
80
12
909
22
0
13
909
23
80
0
ENDBLK
0
BLOCK
2
device
70
0
10
0
20
0
0
INSERT
8
0
2
TEXT$12
10
-3150
20
3300
41
1
42
1
50
0
0
INSERT
8
0
2
TEXT$12
10
-274
20
7675
41
1
42
1
50
0
0
INSERT
8
0
2
control-inlet
10
-399
20
-7100
41
1
42
1
50
0
0
INSERT
8
0
2
control-inlet
10
1076
20
-7100
41
1
42
1
50
0
0
INSERT
8
0
2
control-inlet
10
2126
20
-6200
41
1
42
1
50
0
0
INSERT
8
0
2
control-inlet
10
-1075
20
3600
41
1
42
1
50
0
0
INSERT
8
0
2
control-inlet
10
2126
20
3600
41
1
42
1
50
0
0
INSERT
8
0
2
control-inlet
10
-575
20
5350
41
1
42
1
50
0
0
INSERT
8
0
2
control-inlet
10
1626
20
5350
41
1
42
1
50
0
0
INSERT
8
0
2
control-inlet
10
-74
20
7100
41
1
42
1
50
0
0
INSERT
8
0
2
control-inlet
10
1126
20
7100
41
1
42
1
50
0
0
INSERT
8
0
2
TEXT$3
10
-2825
20
-8100
41
1
42
1
50
0
0
INSERT
8
0
2
chamber
10
-1200
20
-3475
41
1
42
1
50
0
0
INSERT
8
0
2
chamber
10
-800
20
-3475
41
1
42
1
50
0
0
INSERT
8
0
2
chamber
10
-400
20
-3475
41
1
42
1
50
0
0
INSERT
8
0
2
chamber
10
0
20
-3475
41
1
42
1
50
0
0
INSERT
8
0
2
chamber
10
400
20
-3475
41
1
42
1
50
0
0
INSERT
8
0
2
chamber
10
800
20
-3475
41
1
42
1
50
0
0
INSERT
8
0
2
chamber
10
1200
20
-3475
41
1
42
1
50
0
0
INSERT
8
0
2
chamber
10
1600
20
-3475
41
1
42
1
50
0
0
INSERT
8
0
2
chamber
10
-1200
20
-3100
41
1
42
1
50
0
0
INSERT
8
0
2
chamber
10
-800
20
-3100
41
1
42
1
50
0
0
INSERT
8
0
2
chamber
10
-400
20
-3100
41
1
42
1
50
0
0
INSERT
8
0
2
chamber
10
0
20
-3100
41
1
42
1
50
0
0
INSERT
8
0
2
chamber
10
400
20
-3100
41
1
42
1
50
0
0
INSERT
8
0
2
chamber
10
800
20
-3100
41
1
42
1
50
0
0
INSERT
8
0
2
chamber
10
1200
20
-3100
41
1
42
1
50
0
0
INSERT
8
0
2
chamber
10
1600
20
-3100
41
1
42
1
50
0
0
INSERT
8
0
2
chamber
10
-1200
20
-2725
41
1
42
1
50
0
0
INSERT
8
0
2
chamber
10
-800
20
-2725
41
1
42
1
50
0
0
INSERT
8
0
2
chamber
10
-400
20
-2725
41
1
42
1
50
0
0
INSERT
8
0
2
chamber
10
0
20
-2725
41
1
42
1
50
0
0
INSERT
8
0
2
chamber
10
400
20
-2725
41
1
42
1
50
0
0
INSERT
8
0
2
chamber
10
800
20
-2725
41
1
42
1
50
0
0
INSERT
8
0
2
chamber
10
1200
20
-2725
41
1
42
1
50
0
0
INSERT
8
0
2
chamber
10
1600
20
-2725
41
1
42
1
50
0
0
INSERT
8
0
2
chamber
10
-1200
20
-2350
41
1
42
1
50
0
0
INSERT
8
0
2
chamber
10
-800
20
-2350
41
1
42
1
50
0
0
INSERT
8
0
2
chamber
10
-400
20
-2350
41
1
42
1
50
0
0
INSERT
8
0
2
chamber
10
0
20
-2350
41
1
42
1
50
0
0
INSERT
8
0
2
chamber
10
400
20
-2350
41
1
42
1
50
0
0
INSERT
8
0
2
chamber
10
800
20
-2350
41
1
42
1
50
0
0
INSERT
8
0
2
chamber
10
1200
20
-2350
41
1
42
1
50
0
0
INSERT
8
0
2
chamber
10
1600
20
-2350
41
1
42
1
50
0
0
INSERT
8
0
2
chamber
10
-1200
20
-1975
41
1
42
1
50
0
0
INSERT
8
0
2
chamber
10
-800
20
-1975
41
1
42
1
50
0
0
INSERT
8
0
2
chamber
10
-400
20
-1975
41
1
42
1
50
0
0
INSERT
8
0
2
chamber
10
0
20
-1975
41
1
42
1
50
0
0
INSERT
8
0
2
chamber
10
400
20
-1975
41
1
42
1
50
0
0
INSERT
8
0
2
chamber
10
800
20
-1975
41
1
42
1
50
0
0
INSERT
8
0
2
chamber
10
1200
20
-1975
41
1
42
1
50
0
0
INSERT
8
0
2
chamber
10
1600
20
-1975
41
1
42
1
50
0
0
INSERT
8
0
2
chamber
10
-1200
20
-1600
41
1
42
1
50
0
0
INSERT
8
0
2
chamber
10
-800
20
-1600
41
1
42
1
50
0
0
INSERT
8
0
2
chamber
10
-400
20
-1600
41
1
42
1
50
0
0
INSERT
8
0
2
chamber
10
0
20
-1600
41
1
42
1
50
0
0
INSERT
8
0
2
chamber
10
400
20
-1600
41
1
42
1
50
0
0
INSERT
8
0
2
chamber
10
800
20
-1600
41
1
42
1
50
0
0
INSERT
8
0
2
chamber
10
1200
20
-1600
41
1
42
1
50
0
0
INSERT
8
0
2
chamber
10
1600
20
-1600
41
1
42
1
50
0
0
INSERT
8
0
2
chamber
10
-1200
20
-1225
41
1
42
1
50
0
0
INSERT
8
0
2
chamber
10
-800
20
-1225
41
1
42
1
50
0
0
INSERT
8
0
2
chamber
10
-400
20
-1225
41
1
42
1
50
0
0
INSERT
8
0
2
chamber
10
0
20
-1225
41
1
42
1
50
0
0
INSERT
8
0
2
chamber
10
400
20
-1225
41
1
42
1
50
0
0
INSERT
8
0
2
chamber
10
800
20
-1225
41
1
42
1
50
0
0
INSERT
8
0
2
chamber
10
1200
20
-1225
41
1
42
1
50
0
0
INSERT
8
0
2
chamber
10
1600
20
-1225
41
1
42
1
50
0
0
INSERT
8
0
2
chamber
10
-1200
20
-850
41
1
42
1
50
0
0
INSERT
8
0
2
chamber
10
-800
20
-850
41
1
42
1
50
0
0
INSERT
8
0
2
chamber
10
-400
20
-850
41
1
42
1
50
0
0
INSERT
8
0
2
chamber
10
0
20
-850
41
1
42
1
50
0
0
INSERT
8
0
2
chamber
10
400
20
-850
41
1
42
1
50
0
0
INSERT
8
0
2
chamber
10
800
20
-850
41
1
42
1
50
0
0
INSERT
8
0
2
chamber
10
1200
20
-850
41
1
42
1
50
0
0
INSERT
8
0
2
chamber
10
1600
20
-850
41
1
42
1
50
0
0
INSERT
8
0
2
flow-inlet
10
526
20
3600
41
1
42
1
50
0
0
INSERT
8
0
2
flow-inlet
10
-2150
20
-7100
41
1
42
1
50
0
0
INSERT
8
0
2
TEXT
10
1951
20
-7250
41
1
42
1
50
0
0
INSERT
8
0
2
TEXT$10
10
-600
20
-8150
41
1
42
1
50
0
0
INSERT
8
0
2
TEXT$11
10
901
20
-8150
41
1
42
1
50
0
0
INSERT
8
0
2
TEXT$13
10
-3150
20
5050
41
1
42
1
50
0
0
INSERT
8
0
2
TEXT$13
10
926
20
7675
41
1
42
1
50
0
0
INSERT
8
0
2
TEXT$14
10
-3150
20
6800
41
1
42
1
50
0
0
SOLID
8
L3D0_control
10
-449
20
-6750
11
-449
21
-6600
12
-349
22
-6750
13
-349
23
-6600
0
SOLID
8
L3D0_control
10
-1250
20
-6700
11
-1250
21
-6600
12
-449
22
-6700
13
-449
23
-6600
0
SOLID
8
L3D0_control
10
1026
20
-6750
11
1026
21
-5450
12
1126
22
-6750
13
1126
23
-5450
0
SOLID
8
L3D0_control
10
1026
20
-5450
11
1026
21
-5350
12
1526
22
-5450
13
1526
23
-5350
0
SOLID
8
L3D0_control
10
1426
20
-5350
11
1426
21
-4650
12
1526
22
-5350
13
1526
23
-4650
0
SOLID
8
L3D0_control
10
1426
20
-4650
11
1426
21
-4550
12
1826
22
-4650
13
1826
23
-4550
0
SOLID
8
L3D0_control
10
1726
20
-4550
11
1726
21
-3850
12
1826
22
-4550
13
1826
23
-3850
0
SOLID
8
L3D0_control
10
1726
20
-3850
11
1726
21
-3750
12
1826
22
-3850
13
1826
23
-3750
0
SOLID
8
L3D0_control
10
1426
20
-3775
11
1426
21
-3750
12
1726
22
-3775
13
1726
23
-3750
0
SOLID
8
L3D0_control
10
1426
20
-3850
11
1426
21
-3825
12
1726
22
-3850
13
1726
23
-3825
0
SOLID
8
L3D0_control
10
1226
20
-3775
11
1226
21
-3750
12
1426
22
-3775
13
1426
23
-3750
0
SOLID
8
L3D0_control
10
1226
20
-3850
11
1226
21
-3775
12
1426
22
-3850
13
1426
23
-3775
0
SOLID
8
L3D0_control
10
426
20
-3775
11
426
21
-3750
12
1226
22
-3775
13
1226
23
-3750
0
SOLID
8
L3D0_control
10
626
20
-3850
11
626
21
-3825
12
1226
22
-3850
13
1226
23
-3825
0
SOLID
8
L3D0_control
10
426
20
-3850
11
426
21
-3775
12
626
22
-3850
13
626
23
-3775
0
SOLID
8
L3D0_control
10
-1500
20
-3775
11
-1500
21
-3750
12
426
22
-3775
13
426
23
-3750
0
SOLID
8
L3D0_control
10
-174
20
-3850
11
-174
21
-3825
12
426
22
-3850
13
426
23
-3825
0
SOLID
8
L3D0_control
10
-374
20
-3850
11
-374
21
-3775
12
-174
22
-3850
13
-174
23
-3775
0
SOLID
8
L3D0_control
10
-975
20
-3850
11
-975
21
-3825
12
-374
22
-3850
13
-374
23
-3825
0
SOLID
8
L3D0_control
10
-1175
20
-3850
11
-1175
21
-3775
12
-975
22
-3850
13
-975
23
-3775
0
SOLID
8
L3D0_control
10
-1475
20
-3850
11
-1475
21
-3825
12
-1175
22
-3850
13
-1175
23
-3825
0
SOLID
8
L3D0_control
10
-1500
20
-3850
11
-1500
21
-3775
12
-1475
22
-3850
13
-1475
23
-3775
0
SOLID
8
L3D0_control
10
-74
20
-6250
11
-74
21
-5750
12
26
22
-6250
13
26
23
-5750
0
SOLID
8
L3D0_control
10
-2425
20
-6250
11
-2425
21
-6150
12
-74
22
-6250
13
-74
23
-6150
0
SOLID
8
L3D0_control
10
-2525
20
-6250
11
-2525
21
-5750
12
-2425
22
-6250
13
-2425
23
-5750
0
SOLID
8
L3D0_control
10
-2525
20
-5750
11
-2525
21
1575
12
-2425
22
-5750
13
-2425
23
1575
0
SOLID
8
L3D0_control
10
-74
20
1575
11
-74
21
2075
12
26
22
1575
13
26
23
2075
0
SOLID
8
L3D0_control
10
-2425
20
1975
11
-2425
21
2075
12
-74
22
1975
13
-74
23
2075
0
SOLID
8
L3D0_control
10
-2525
20
1575
11
-2525
21
2075
12
-2425
22
1575
13
-2425
23
2075
0
SOLID
8
L3D0_control
10
-2525
20
2075
11
-2525
21
7050
12
-2425
22
2075
13
-2425
23
7050
0
SOLID
8
L3D0_control
10
-2525
20
7050
11
-2525
21
7150
12
-424
22
7050
13
-424
23
7150
0
SOLID
8
L3D0_control
10
-1175
20
-700
11
-1175
21
-650
12
-1150
22
-700
13
-1150
23
-650
0
SOLID
8
L3D0_control
10
-1375
20
-650
11
-1375
21
-525
12
-1150
22
-650
13
-1150
23
-525
0
SOLID
8
L3D0_control
10
-775
20
-700
11
-775
21
-650
12
-750
22
-700
13
-750
23
-650
0
SOLID
8
L3D0_control
10
-975
20
-650
11
-975
21
-525
12
-750
22
-650
13
-750
23
-525
0
SOLID
8
L3D0_control
10
26
20
-700
11
26
21
-650
12
51
22
-700
13
51
23
-650
0
SOLID
8
L3D0_control
10
-174
20
-650
11
-174
21
-525
12
51
22
-650
13
51
23
-525
0
SOLID
8
L3D0_control
10
426
20
-700
11
426
21
-650
12
451
22
-700
13
451
23
-650
0
SOLID
8
L3D0_control
10
226
20
-650
11
226
21
-525
12
451
22
-650
13
451
23
-525
0
SOLID
8
L3D0_control
10
826
20
-700
11
826
21
-650
12
851
22
-700
13
851
23
-650
0
SOLID
8
L3D0_control
10
626
20
-650
11
626
21
-525
12
851
22
-650
13
851
23
-525
0
SOLID
8
L3D0_control
10
1226
20
-700
11
1226
21
-650
12
1251
22
-700
13
1251
23
-650
0
SOLID
8
L3D0_control
10
1026
20
-650
11
1026
21
-525
12
1251
22
-650
13
1251
23
-525
0
SOLID
8
L3D0_control
10
1626
20
-700
11
1626
21
-650
12
1651
22
-700
13
1651
23
-650
0
SOLID
8
L3D0_control
10
1426
20
-650
11
1426
21
-525
12
1651
22
-650
13
1651
23
-525
0
SOLID
8
L3D0_control
10
-374
20
-700
11
-374
21
-650
12
-349
22
-700
13
-349
23
-650
0
SOLID
8
L3D0_control
10
-575
20
-650
11
-575
21
-525
12
-349
22
-650
13
-349
23
-525
0
SOLID
8
L3D0_control
10
1426
20
-4450
11
1426
21
-4050
12
1526
22
-4450
13
1526
23
-4050
0
SOLID
8
L3D0_control
10
1126
20
-4050
11
1126
21
-3950
12
1526
22
-4050
13
1526
23
-3950
0
SOLID
8
L3D0_control
10
726
20
-3975
11
726
21
-3950
12
1126
22
-3975
13
1126
23
-3950
0
SOLID
8
L3D0_control
10
726
20
-4050
11
726
21
-4025
12
1126
22
-4050
13
1126
23
-4025
0
SOLID
8
L3D0_control
10
-74
20
-3975
11
-74
21
-3950
12
726
22
-3975
13
726
23
-3950
0
SOLID
8
L3D0_control
10
626
20
-4450
11
626
21
-4050
12
726
22
-4450
13
726
23
-4050
0
SOLID
8
L3D0_control
10
326
20
-4050
11
326
21
-3975
12
726
22
-4050
13
726
23
-3975
0
SOLID
8
L3D0_control
10
-74
20
-4050
11
-74
21
-4025
12
326
22
-4050
13
326
23
-4025
0
SOLID
8
L3D0_control
10
-1650
20
-3975
11
-1650
21
-3950
12
-74
22
-3975
13
-74
23
-3950
0
SOLID
8
L3D0_control
10
-174
20
-4450
11
-174
21
-4050
12
-74
22
-4450
13
-74
23
-4050
0
SOLID
8
L3D0_control
10
-475
20
-4050
11
-475
21
-3975
12
-74
22
-4050
13
-74
23
-3975
0
SOLID
8
L3D0_control
10
-875
20
-4050
11
-875
21
-4025
12
-475
22
-4050
13
-475
23
-4025
0
SOLID
8
L3D0_control
10
-975
20
-4450
11
-975
21
-4050
12
-875
22
-4450
13
-875
23
-4050
0
SOLID
8
L3D0_control
10
-1275
20
-4050
11
-1275
21
-3975
12
-875
22
-4050
13
-875
23
-3975
0
SOLID
8
L3D0_control
10
-1475
20
-4050
11
-1475
21
-4025
12
-1275
22
-4050
13
-1275
23
-4025
0
SOLID
8
L3D0_control
10
-1650
20
-4050
11
-1650
21
-3975
12
-1475
22
-4050
13
-1475
23
-3975
0
SOLID
8
L3D0_control
10
-1650
20
-3950
11
-1650
21
-225
12
-1550
22
-3950
13
-1550
23
-225
0
SOLID
8
L3D0_control
10
1726
20
-225
11
1726
21
-125
12
1851
22
-225
13
1851
23
-125
0
SOLID
8
L3D0_control
10
1526
20
-150
11
1526
21
-125
12
1726
22
-150
13
1726
23
-125
0
SOLID
8
L3D0_control
10
1526
20
-225
11
1526
21
-200
12
1726
22
-225
13
1726
23
-200
0
SOLID
8
L3D0_control
10
1126
20
-150
11
1126
21
-125
12
1526
22
-150
13
1526
23
-125
0
SOLID
8
L3D0_control
10
1126
20
-225
11
1126
21
-150
12
1526
22
-225
13
1526
23
-150
0
SOLID
8
L3D0_control
10
726
20
-150
11
726
21
-125
12
1126
22
-150
13
1126
23
-125
0
SOLID
8
L3D0_control
10
726
20
-225
11
726
21
-200
12
1126
22
-225
13
1126
23
-200
0
SOLID
8
L3D0_control
10
1751
20
-125
11
1751
21
275
12
1851
22
-125
13
1851
23
275
0
SOLID
8
L3D0_control
10
1426
20
-125
11
1426
21
275
12
1526
22
-125
13
1526
23
275
0
SOLID
8
L3D0_control
10
-74
20
-150
11
-74
21
-125
12
726
22
-150
13
726
23
-125
0
SOLID
8
L3D0_control
10
626
20
-125
11
626
21
275
12
726
22
-125
13
726
23
275
0
SOLID
8
L3D0_control
10
326
20
-225
11
326
21
-150
12
726
22
-225
13
726
23
-150
0
SOLID
8
L3D0_control
10
-74
20
-225
11
-74
21
-200
12
326
22
-225
13
326
23
-200
0
SOLID
8
L3D0_control
10
-874
20
-150
11
-874
21
-125
12
-74
22
-150
13
-74
23
-125
0
SOLID
8
L3D0_control
10
-174
20
-125
11
-174
21
275
12
-74
22
-125
13
-74
23
275
0
SOLID
8
L3D0_control
10
-1650
20
-150
11
-1650
21
-125
12
-874
22
-150
13
-874
23
-125
0
SOLID
8
L3D0_control
10
-974
20
-125
11
-974
21
275
12
-874
22
-125
13
-874
23
275
0
SOLID
8
L3D0_control
10
-474
20
-225
11
-474
21
-150
12
-74
22
-225
13
-74
23
-150
0
SOLID
8
L3D0_control
10
-874
20
-225
11
-874
21
-200
12
-474
22
-225
13
-474
23
-200
0
SOLID
8
L3D0_control
10
-1274
20
-225
11
-1274
21
-150
12
-874
22
-225
13
-874
23
-150
0
SOLID
8
L3D0_control
10
-1474
20
-225
11
-1474
21
-200
12
-1274
22
-225
13
-1274
23
-200
0
SOLID
8
L3D0_control
10
-1650
20
-225
11
-1650
21
-150
12
-1474
22
-225
13
-1474
23
-150
0
SOLID
8
L3D0_control
10
1751
20
275
11
1751
21
2725
12
1851
22
275
13
1851
23
2725
0
SOLID
8
L3D0_control
10
1751
20
2725
11
1751
21
2825
12
2176
22
2725
13
2176
23
2825
0
SOLID
8
L3D0_control
10
2076
20
2825
11
2076
21
3250
12
2176
22
2825
13
2176
23
3250
0
SOLID
8
L3D0_control
10
-575
20
-5450
11
-575
21
-5350
12
826
22
-5450
13
826
23
-5350
0
SOLID
8
L3D0_control
10
726
20
-5350
11
726
21
-4950
12
826
22
-5350
13
826
23
-4950
0
SOLID
8
L3D0_control
10
-875
20
-5375
11
-875
21
-5350
12
-575
22
-5375
13
-575
23
-5350
0
SOLID
8
L3D0_control
10
-875
20
-5350
11
-875
21
-4950
12
-775
22
-5350
13
-775
23
-4950
0
SOLID
8
L3D0_control
10
-2075
20
-5375
11
-2075
21
-5350
12
-875
22
-5375
13
-875
23
-5350
0
SOLID
8
L3D0_control
10
-2175
20
-5375
11
-2175
21
-4950
12
-2075
22
-5375
13
-2075
23
-4950
0
SOLID
8
L3D0_control
10
-775
20
-5450
11
-775
21
-5425
12
-575
22
-5450
13
-575
23
-5425
0
SOLID
8
L3D0_control
10
-2175
20
-5450
11
-2175
21
-5375
12
-775
22
-5450
13
-775
23
-5375
0
SOLID
8
L3D0_control
10
-2175
20
-4950
11
-2175
21
775
12
-2075
22
-4950
13
-2075
23
775
0
SOLID
8
L3D0_control
10
726
20
775
11
726
21
1200
12
826
22
775
13
826
23
1200
0
SOLID
8
L3D0_control
10
-774
20
1175
11
-774
21
1200
12
726
22
1175
13
726
23
1200
0
SOLID
8
L3D0_control
10
726
20
1200
11
726
21
1625
12
826
22
1200
13
826
23
1625
0
SOLID
8
L3D0_control
10
-574
20
1200
11
-574
21
1275
12
726
22
1200
13
726
23
1275
0
SOLID
8
L3D0_control
10
-774
20
1250
11
-774
21
1275
12
-574
22
1250
13
-574
23
1275
0
SOLID
8
L3D0_control
10
-2175
20
1250
11
-2175
21
1275
12
-774
22
1250
13
-774
23
1275
0
SOLID
8
L3D0_control
10
-874
20
775
11
-874
21
1250
12
-774
22
775
13
-774
23
1250
0
SOLID
8
L3D0_control
10
-2175
20
775
11
-2175
21
1175
12
-2075
22
775
13
-2075
23
1175
0
SOLID
8
L3D0_control
10
-2175
20
1175
11
-2175
21
1250
12
-874
22
1175
13
-874
23
1250
0
SOLID
8
L3D0_control
10
801
20
1625
11
801
21
1825
12
826
22
1625
13
826
23
1825
0
SOLID
8
L3D0_control
10
726
20
1825
11
726
21
2325
12
826
22
1825
13
826
23
2325
0
SOLID
8
L3D0_control
10
226
20
2325
11
226
21
2425
12
826
22
2325
13
826
23
2425
0
SOLID
8
L3D0_control
10
26
20
2400
11
26
21
2425
12
226
22
2400
13
226
23
2425
0
SOLID
8
L3D0_control
10
26
20
2325
11
26
21
2350
12
226
22
2325
13
226
23
2350
0
SOLID
8
L3D0_control
10
-2175
20
2400
11
-2175
21
2425
12
26
22
2400
13
26
23
2425
0
SOLID
8
L3D0_control
10
-2175
20
2325
11
-2175
21
2400
12
26
22
2325
13
26
23
2400
0
SOLID
8
L3D0_control
10
726
20
1625
11
726
21
1825
12
751
22
1625
13
751
23
1825
0
SOLID
8
L3D0_control
10
-2175
20
2425
11
-2175
21
5300
12
-2075
22
2425
13
-2075
23
5300
0
SOLID
8
L3D0_control
10
-2175
20
5300
11
-2175
21
5400
12
-925
22
5300
13
-925
23
5400
0
SOLID
8
L3D0_control
10
2076
20
-5850
11
2076
21
-425
12
2176
22
-5850
13
2176
23
-425
0
SOLID
8
L3D0_control
10
1726
20
-425
11
1726
21
-325
12
2176
22
-425
13
2176
23
-325
0
SOLID
8
L3D0_control
10
1226
20
-350
11
1226
21
-325
12
1726
22
-350
13
1726
23
-325
0
SOLID
8
L3D0_control
10
1426
20
-425
11
1426
21
-400
12
1726
22
-425
13
1726
23
-400
0
SOLID
8
L3D0_control
10
1226
20
-425
11
1226
21
-350
12
1426
22
-425
13
1426
23
-350
0
SOLID
8
L3D0_control
10
426
20
-350
11
426
21
-325
12
1226
22
-350
13
1226
23
-325
0
SOLID
8
L3D0_control
10
626
20
-425
11
626
21
-400
12
1226
22
-425
13
1226
23
-400
0
SOLID
8
L3D0_control
10
426
20
-425
11
426
21
-350
12
626
22
-425
13
626
23
-350
0
SOLID
8
L3D0_control
10
-1500
20
-350
11
-1500
21
-325
12
426
22
-350
13
426
23
-325
0
SOLID
8
L3D0_control
10
-174
20
-425
11
-174
21
-400
12
426
22
-425
13
426
23
-400
0
SOLID
8
L3D0_control
10
-374
20
-425
11
-374
21
-350
12
-174
22
-425
13
-174
23
-350
0
SOLID
8
L3D0_control
10
-975
20
-425
11
-975
21
-400
12
-374
22
-425
13
-374
23
-400
0
SOLID
8
L3D0_control
10
-1174
20
-425
11
-1174
21
-350
12
-975
22
-425
13
-975
23
-350
0
SOLID
8
L3D0_control
10
-1474
20
-425
11
-1474
21
-400
12
-1174
22
-425
13
-1174
23
-400
0
SOLID
8
L3D0_control
10
-1500
20
-425
11
-1500
21
-350
12
-1474
22
-425
13
-1474
23
-350
0
SOLID
8
L3D0_control
10
626
20
-4650
11
626
21
-4550
12
1226
22
-4650
13
1226
23
-4550
0
SOLID
8
L3D0_control
10
426
20
-4575
11
426
21
-4550
12
626
22
-4575
13
626
23
-4550
0
SOLID
8
L3D0_control
10
426
20
-4650
11
426
21
-4625
12
626
22
-4650
13
626
23
-4625
0
SOLID
8
L3D0_control
10
1126
20
-4550
11
1126
21
-4150
12
1226
22
-4550
13
1226
23
-4150
0
SOLID
8
L3D0_control
10
-374
20
-4575
11
-374
21
-4550
12
426
22
-4575
13
426
23
-4550
0
SOLID
8
L3D0_control
10
326
20
-4550
11
326
21
-4150
12
426
22
-4550
13
426
23
-4150
0
SOLID
8
L3D0_control
10
-174
20
-4650
11
-174
21
-4575
12
426
22
-4650
13
426
23
-4575
0
SOLID
8
L3D0_control
10
-374
20
-4650
11
-374
21
-4625
12
-174
22
-4650
13
-174
23
-4625
0
SOLID
8
L3D0_control
10
-1175
20
-4575
11
-1175
21
-4550
12
-374
22
-4575
13
-374
23
-4550
0
SOLID
8
L3D0_control
10
-474
20
-4550
11
-474
21
-4150
12
-374
22
-4550
13
-374
23
-4150
0
SOLID
8
L3D0_control
10
-1725
20
-4575
11
-1725
21
-4550
12
-1175
22
-4575
13
-1175
23
-4550
0
SOLID
8
L3D0_control
10
-1275
20
-4550
11
-1275
21
-4150
12
-1175
22
-4550
13
-1175
23
-4150
0
SOLID
8
L3D0_control
10
-1825
20
-4575
11
-1825
21
-4150
12
-1725
22
-4575
13
-1725
23
-4150
0
SOLID
8
L3D0_control
10
-975
20
-4650
11
-975
21
-4575
12
-374
22
-4650
13
-374
23
-4575
0
SOLID
8
L3D0_control
10
-1175
20
-4650
11
-1175
21
-4625
12
-975
22
-4650
13
-975
23
-4625
0
SOLID
8
L3D0_control
10
-1825
20
-4650
11
-1825
21
-4575
12
-1175
22
-4650
13
-1175
23
-4575
0
SOLID
8
L3D0_control
10
-1825
20
-4150
11
-1825
21
-25
12
-1725
22
-4150
13
-1725
23
-25
0
SOLID
8
L3D0_control
10
1126
20
-25
11
1126
21
375
12
1226
22
-25
13
1226
23
375
0
SOLID
8
L3D0_control
10
1426
20
375
11
1426
21
475
12
1551
22
375
13
1551
23
475
0
SOLID
8
L3D0_control
10
1226
20
450
11
1226
21
475
12
1426
22
450
13
1426
23
475
0
SOLID
8
L3D0_control
10
1226
20
375
11
1226
21
400
12
1426
22
375
13
1426
23
400
0
SOLID
8
L3D0_control
10
626
20
450
11
626
21
475
12
1226
22
450
13
1226
23
475
0
SOLID
8
L3D0_control
10
626
20
375
11
626
21
450
12
1226
22
375
13
1226
23
450
0
SOLID
8
L3D0_control
10
-174
20
450
11
-174
21
475
12
626
22
450
13
626
23
475
0
SOLID
8
L3D0_control
10
326
20
-25
11
326
21
375
12
426
22
-25
13
426
23
375
0
SOLID
8
L3D0_control
10
426
20
375
11
426
21
400
12
626
22
375
13
626
23
400
0
SOLID
8
L3D0_control
10
-174
20
375
11
-174
21
450
12
426
22
375
13
426
23
450
0
SOLID
8
L3D0_control
10
-1825
20
450
11
-1825
21
475
12
-174
22
450
13
-174
23
475
0
SOLID
8
L3D0_control
10
-474
20
-25
11
-474
21
375
12
-374
22
-25
13
-374
23
375
0
SOLID
8
L3D0_control
10
-374
20
375
11
-374
21
400
12
-174
22
375
13
-174
23
400
0
SOLID
8
L3D0_control
10
-974
20
375
11
-974
21
450
12
-374
22
375
13
-374
23
450
0
SOLID
8
L3D0_control
10
-1825
20
-25
11
-1825
21
375
12
-1725
22
-25
13
-1725
23
375
0
SOLID
8
L3D0_control
10
-1274
20
-25
11
-1274
21
375
12
-1174
22
-25
13
-1174
23
375
0
SOLID
8
L3D0_control
10
-1174
20
375
11
-1174
21
400
12
-974
22
375
13
-974
23
400
0
SOLID
8
L3D0_control
10
-1825
20
375
11
-1825
21
450
12
-1174
22
375
13
-1174
23
450
0
SOLID
8
L3D0_control
10
1451
20
475
11
1451
21
2675
12
1551
22
475
13
1551
23
2675
0
SOLID
8
L3D0_control
10
226
20
2675
11
226
21
2775
12
1551
22
2675
13
1551
23
2775
0
SOLID
8
L3D0_control
10
-1125
20
2750
11
-1125
21
2775
12
226
22
2750
13
226
23
2775
0
SOLID
8
L3D0_control
10
-1125
20
2775
11
-1125
21
3250
12
-1025
22
2775
13
-1025
23
3250
0
SOLID
8
L3D0_control
10
26
20
2675
11
26
21
2700
12
226
22
2675
13
226
23
2700
0
SOLID
8
L3D0_control
10
-1125
20
2675
11
-1125
21
2750
12
26
22
2675
13
26
23
2750
0
SOLID
8
L3D0_control
10
1026
20
-5250
11
1026
21
-4850
12
1126
22
-5250
13
1126
23
-4850
0
SOLID
8
L3D0_control
10
626
20
-4850
11
626
21
-4750
12
1126
22
-4850
13
1126
23
-4750
0
SOLID
8
L3D0_control
10
426
20
-4775
11
426
21
-4750
12
626
22
-4775
13
626
23
-4750
0
SOLID
8
L3D0_control
10
426
20
-4850
11
426
21
-4825
12
626
22
-4850
13
626
23
-4825
0
SOLID
8
L3D0_control
10
-474
20
-4775
11
-474
21
-4750
12
426
22
-4775
13
426
23
-4750
0
SOLID
8
L3D0_control
10
-174
20
-4850
11
-174
21
-4775
12
426
22
-4850
13
426
23
-4775
0
SOLID
8
L3D0_control
10
-374
20
-4850
11
-374
21
-4825
12
-174
22
-4850
13
-174
23
-4825
0
SOLID
8
L3D0_control
10
-474
20
-4850
11
-474
21
-4775
12
-374
22
-4850
13
-374
23
-4775
0
SOLID
8
L3D0_control
10
-2000
20
-4775
11
-2000
21
-4750
12
-474
22
-4775
13
-474
23
-4750
0
SOLID
8
L3D0_control
10
-575
20
-5250
11
-575
21
-4850
12
-474
22
-5250
13
-474
23
-4850
0
SOLID
8
L3D0_control
10
-975
20
-4850
11
-975
21
-4775
12
-474
22
-4850
13
-474
23
-4775
0
SOLID
8
L3D0_control
10
-1175
20
-4850
11
-1175
21
-4825
12
-975
22
-4850
13
-975
23
-4825
0
SOLID
8
L3D0_control
10
-2000
20
-4850
11
-2000
21
-4775
12
-1175
22
-4850
13
-1175
23
-4775
0
SOLID
8
L3D0_control
10
-2000
20
-4750
11
-2000
21
575
12
-1900
22
-4750
13
-1900
23
575
0
SOLID
8
L3D0_control
10
626
20
575
11
626
21
675
12
1126
22
575
13
1126
23
675
0
SOLID
8
L3D0_control
10
426
20
650
11
426
21
675
12
626
22
650
13
626
23
675
0
SOLID
8
L3D0_control
10
426
20
575
11
426
21
600
12
626
22
575
13
626
23
600
0
SOLID
8
L3D0_control
10
1026
20
675
11
1026
21
1075
12
1126
22
675
13
1126
23
1075
0
SOLID
8
L3D0_control
10
-474
20
650
11
-474
21
675
12
426
22
650
13
426
23
675
0
SOLID
8
L3D0_control
10
-174
20
575
11
-174
21
650
12
426
22
575
13
426
23
650
0
SOLID
8
L3D0_control
10
-374
20
575
11
-374
21
600
12
-174
22
575
13
-174
23
600
0
SOLID
8
L3D0_control
10
-474
20
575
11
-474
21
650
12
-374
22
575
13
-374
23
650
0
SOLID
8
L3D0_control
10
-574
20
650
11
-574
21
1075
12
-474
22
650
13
-474
23
1075
0
SOLID
8
L3D0_control
10
-2000
20
650
11
-2000
21
675
12
-574
22
650
13
-574
23
675
0
SOLID
8
L3D0_control
10
-974
20
575
11
-974
21
650
12
-474
22
575
13
-474
23
650
0
SOLID
8
L3D0_control
10
-1174
20
575
11
-1174
21
600
12
-974
22
575
13
-974
23
600
0
SOLID
8
L3D0_control
10
-2000
20
575
11
-2000
21
650
12
-1174
22
575
13
-1174
23
650
0
SOLID
8
L3D0_control
10
1026
20
1075
11
1026
21
2500
12
1126
22
1075
13
1126
23
2500
0
SOLID
8
L3D0_control
10
226
20
2500
11
226
21
2600
12
1126
22
2500
13
1126
23
2600
0
SOLID
8
L3D0_control
10
26
20
2575
11
26
21
2600
12
226
22
2575
13
226
23
2600
0
SOLID
8
L3D0_control
10
26
20
2500
11
26
21
2525
12
226
22
2500
13
226
23
2525
0
SOLID
8
L3D0_control
10
-2000
20
2575
11
-2000
21
2600
12
26
22
2575
13
26
23
2600
0
SOLID
8
L3D0_control
10
-2000
20
2500
11
-2000
21
2575
12
26
22
2500
13
26
23
2575
0
SOLID
8
L3D0_control
10
-2000
20
2600
11
-2000
21
4425
12
-1900
22
2600
13
-1900
23
4425
0
SOLID
8
L3D0_control
10
1576
20
4425
11
1576
21
5000
12
1676
22
4425
13
1676
23
5000
0
SOLID
8
L3D0_control
10
-2000
20
4425
11
-2000
21
4525
12
1576
22
4425
13
1576
23
4525
0
SOLID
8
L3D0_control
10
226
20
-6050
11
226
21
-5650
12
326
22
-6050
13
326
23
-5650
0
SOLID
8
L3D0_control
10
-575
20
-5650
11
-575
21
-5550
12
326
22
-5650
13
326
23
-5550
0
SOLID
8
L3D0_control
10
-775
20
-5575
11
-775
21
-5550
12
-575
22
-5575
13
-575
23
-5550
0
SOLID
8
L3D0_control
10
-775
20
-5650
11
-775
21
-5625
12
-575
22
-5650
13
-575
23
-5625
0
SOLID
8
L3D0_control
10
-2350
20
-5575
11
-2350
21
-5550
12
-775
22
-5575
13
-775
23
-5550
0
SOLID
8
L3D0_control
10
-2350
20
-5650
11
-2350
21
-5575
12
-775
22
-5650
13
-775
23
-5575
0
SOLID
8
L3D0_control
10
-2350
20
-5550
11
-2350
21
1375
12
-2250
22
-5550
13
-2250
23
1375
0
SOLID
8
L3D0_control
10
-574
20
1375
11
-574
21
1475
12
326
22
1375
13
326
23
1475
0
SOLID
8
L3D0_control
10
-774
20
1450
11
-774
21
1475
12
-574
22
1450
13
-574
23
1475
0
SOLID
8
L3D0_control
10
-774
20
1375
11
-774
21
1400
12
-574
22
1375
13
-574
23
1400
0
SOLID
8
L3D0_control
10
226
20
1475
11
226
21
2150
12
326
22
1475
13
326
23
2150
0
SOLID
8
L3D0_control
10
26
20
2150
11
26
21
2175
12
326
22
2150
13
326
23
2175
0
SOLID
8
L3D0_control
10
226
20
2175
11
226
21
2250
12
326
22
2175
13
326
23
2250
0
SOLID
8
L3D0_control
10
26
20
2225
11
26
21
2250
12
226
22
2225
13
226
23
2250
0
SOLID
8
L3D0_control
10
-774
20
2225
11
-774
21
2250
12
26
22
2225
13
26
23
2250
0
SOLID
8
L3D0_control
10
-774
20
2150
11
-774
21
2225
12
26
22
2150
13
26
23
2225
0
SOLID
8
L3D0_control
10
-2350
20
2225
11
-2350
21
2250
12
-774
22
2225
13
-774
23
2250
0
SOLID
8
L3D0_control
10
-2350
20
2150
11
-2350
21
2225
12
-774
22
2150
13
-774
23
2225
0
SOLID
8
L3D0_control
10
-2350
20
1450
11
-2350
21
1475
12
-774
22
1450
13
-774
23
1475
0
SOLID
8
L3D0_control
10
-2350
20
1375
11
-2350
21
1450
12
-774
22
1375
13
-774
23
1450
0
SOLID
8
L3D0_control
10
-2350
20
2250
11
-2350
21
6175
12
-2250
22
2250
13
-2250
23
6175
0
SOLID
8
L3D0_control
10
1076
20
6175
11
1076
21
6750
12
1176
22
6175
13
1176
23
6750
0
SOLID
8
L3D0_control
10
-2350
20
6175
11
-2350
21
6275
12
1076
22
6175
13
1076
23
6275
0
SOLID
8
L3D0_control
10
-4025
20
-9075
11
-4025
21
-8975
12
4100
22
-9075
13
4100
23
-8975
0
SOLID
8
L3D0_control
10
4000
20
-8975
11
4000
21
8975
12
4100
22
-8975
13
4100
23
8975
0
SOLID
8
L3D0_control
10
-4125
20
-9075
11
-4125
21
8975
12
-4025
22
-9075
13
-4025
23
8975
0
SOLID
8
L3D0_control
10
-4125
20
8975
11
-4125
21
9075
12
4100
22
8975
13
4100
23
9075
0
ENDBLK
0
BLOCK
2
TEXT$43
70
0
10
0
20
0
0
SOLID
8
L3D0_control
10
15
20
0
11
15
21
10
12
40
22
0
13
50
23
10
0
SOLID
8
L3D0_control
10
35
20
10
11
40
21
15
12
50
22
10
13
50
23
15
0
SOLID
8
L3D0_control
10
40
20
15
11
40
21
35
12
50
22
15
13
50
23
35
0
SOLID
8
L3D0_control
10
40
20
30
11
35
21
35
12
40
22
35
13
40
23
35
0
SOLID
8
L3D0_control
10
10
20
0
11
10
21
15
12
15
22
0
13
15
23
10
0
SOLID
8
L3D0_control
10
10
20
0
11
0
21
10
12
10
22
20
13
0
23
20
0
SOLID
8
L3D0_control
10
0
20
35
11
0
21
45
12
50
22
35
13
40
23
45
0
SOLID
8
L3D0_control
10
0
20
45
11
0
21
60
12
10
22
45
13
10
23
60
0
SOLID
8
L3D0_control
10
0
20
60
11
0
21
70
12
50
22
60
13
50
23
70
0
SOLID
8
L3D0_control
10
100
20
0
11
100
21
25
12
110
22
0
13
110
23
15
0
SOLID
8
L3D0_control
10
100
20
10
11
85
21
25
12
100
22
25
13
100
23
25
0
SOLID
8
L3D0_control
10
85
20
25
11
80
21
30
12
100
22
25
13
95
23
30
0
SOLID
8
L3D0_control
10
80
20
30
11
80
21
35
12
95
22
30
13
90
23
35
0
SOLID
8
L3D0_control
10
100
20
45
11
100
21
70
12
110
22
55
13
110
23
70
0
SOLID
8
L3D0_control
10
80
20
35
11
80
21
40
12
90
22
35
13
95
23
40
0
SOLID
8
L3D0_control
10
80
20
40
11
85
21
45
12
95
22
40
13
100
23
45
0
SOLID
8
L3D0_control
10
85
20
45
11
100
21
60
12
100
22
45
13
100
23
45
0
SOLID
8
L3D0_control
10
60
20
0
11
60
21
30
12
70
22
0
13
70
23
30
0
SOLID
8
L3D0_control
10
60
20
30
11
60
21
40
12
80
22
30
13
80
23
40
0
SOLID
8
L3D0_control
10
60
20
40
11
60
21
70
12
70
22
40
13
70
23
70
0
ENDBLK
0
BLOCK
2
TEXT$44
70
0
10
0
20
0
0
SOLID
8
L3D0_control
10
2
20
0
11
0
21
2
12
8
22
0
13
10
23
2
0
SOLID
8
L3D0_control
10
8
20
2
11
8
21
4
12
10
22
2
13
10
23
4
0
SOLID
8
L3D0_control
10
7
20
2
11
8
21
3
12
8
22
2
13
8
23
2
0
SOLID
8
L3D0_control
10
2
20
2
11
2
21
3
12
3
22
2
13
3
23
2
0
SOLID
8
L3D0_control
10
0
20
2
11
0
21
4
12
2
22
2
13
2
23
4
0
SOLID
8
L3D0_control
10
8
20
4
11
8
21
5
12
10
22
4
13
10
23
5
0
SOLID
8
L3D0_control
10
8
20
5
11
7
21
6
12
10
22
5
13
10
23
6
0
SOLID
8
L3D0_control
10
4
20
6
11
4
21
7
12
10
22
6
13
9
23
7
0
SOLID
8
L3D0_control
10
4
20
7
11
4
21
8
12
9
22
7
13
10
23
8
0
SOLID
8
L3D0_control
10
7
20
8
11
8
21
9
12
10
22
8
13
10
23
9
0
SOLID
8
L3D0_control
10
8
20
9
11
8
21
11
12
10
22
9
13
10
23
11
0
SOLID
8
L3D0_control
10
8
20
11
11
7
21
12
12
10
22
11
13
10
23
12
0
SOLID
8
L3D0_control
10
4
20
12
11
4
21
14
12
10
22
12
13
8
23
14
0
SOLID
8
L3D0_control
10
2
20
11
11
2
21
12
12
3
22
12
13
3
23
12
0
SOLID
8
L3D0_control
10
0
20
10
11
0
21
12
12
2
22
10
13
2
23
12
0
SOLID
8
L3D0_control
10
0
20
12
11
2
21
14
12
4
22
12
13
4
23
14
0
SOLID
8
L3D0_control
10
15
20
0
11
15
21
2
12
20
22
0
13
22
23
2
0
SOLID
8
L3D0_control
10
19
20
2
11
20
21
3
12
22
22
2
13
22
23
3
0
SOLID
8
L3D0_control
10
20
20
3
11
20
21
11
12
22
22
3
13
22
23
11
0
SOLID
8
L3D0_control
10
14
20
0
11
12
21
2
12
15
22
0
13
15
23
2
0
SOLID
8
L3D0_control
10
12
20
2
11
12
21
3
12
15
22
2
13
14
23
3
0
SOLID
8
L3D0_control
10
12
20
3
11
12
21
11
12
14
22
3
13
14
23
11
0
SOLID
8
L3D0_control
10
20
20
11
11
19
21
12
12
22
22
11
13
22
23
12
0
SOLID
8
L3D0_control
10
15
20
12
11
15
21
14
12
22
22
12
13
20
23
14
0
SOLID
8
L3D0_control
10
12
20
11
11
12
21
12
12
14
22
11
13
15
23
12
0
SOLID
8
L3D0_control
10
12
20
12
11
14
21
14
12
15
22
12
13
15
23
14
0
SOLID
8
L3D0_control
10
16
20
5
11
16
21
9
12
18
22
5
13
18
23
9
0
SOLID
8
L3D0_control
10
27
20
0
11
27
21
2
12
32
22
0
13
34
23
2
0
SOLID
8
L3D0_control
10
31
20
2
11
32
21
3
12
34
22
2
13
34
23
3
0
SOLID
8
L3D0_control
10
32
20
3
11
32
21
11
12
34
22
3
13
34
23
11
0
SOLID
8
L3D0_control
10
26
20
0
11
24
21
2
12
27
22
0
13
27
23
2
0
SOLID
8
L3D0_control
10
24
20
2
11
24
21
3
12
27
22
2
13
26
23
3
0
SOLID
8
L3D0_control
10
24
20
3
11
24
21
11
12
26
22
3
13
26
23
11
0
SOLID
8
L3D0_control
10
32
20
11
11
31
21
12
12
34
22
11
13
34
23
12
0
SOLID
8
L3D0_control
10
27
20
12
11
27
21
14
12
34
22
12
13
32
23
14
0
SOLID
8
L3D0_control
10
24
20
11
11
24
21
12
12
26
22
11
13
27
23
12
0
SOLID
8
L3D0_control
10
24
20
12
11
26
21
14
12
27
22
12
13
27
23
14
0
SOLID
8
L3D0_control
10
28
20
5
11
28
21
9
12
30
22
5
13
30
23
9
0
ENDBLK
0
BLOCK
2
TEXT$45
70
0
10
0
20
0
0
SOLID
8
L3D0_control
10
15
20
0
11
15
21
10
12
40
22
0
13
50
23
10
0
SOLID
8
L3D0_control
10
35
20
10
11
40
21
15
12
50
22
10
13
50
23
15
0
SOLID
8
L3D0_control
10
40
20
15
11
40
21
35
12
50
22
15
13
50
23
35
0
SOLID
8
L3D0_control
10
40
20
30
11
35
21
35
12
40
22
35
13
40
23
35
0
SOLID
8
L3D0_control
10
10
20
0
11
0
21
10
12
15
22
0
13
15
23
10
0
SOLID
8
L3D0_control
10
0
20
10
11
0
21
15
12
15
22
10
13
10
23
15
0
SOLID
8
L3D0_control
10
10
20
30
11
10
21
35
12
15
22
35
13
15
23
35
0
SOLID
8
L3D0_control
10
0
20
15
11
0
21
35
12
10
22
15
13
10
23
35
0
SOLID
8
L3D0_control
10
15
20
35
11
15
21
45
12
50
22
35
13
40
23
45
0
SOLID
8
L3D0_control
10
0
20
35
11
0
21
50
12
15
22
35
13
15
23
50
0
SOLID
8
L3D0_control
10
0
20
50
11
10
21
60
12
15
22
50
13
25
23
60
0
SOLID
8
L3D0_control
10
10
20
60
11
20
21
70
12
40
22
60
13
40
23
70
0
SOLID
8
L3D0_control
10
100
20
0
11
100
21
25
12
110
22
0
13
110
23
15
0
SOLID
8
L3D0_control
10
100
20
10
11
85
21
25
12
100
22
25
13
100
23
25
0
SOLID
8
L3D0_control
10
85
20
25
11
80
21
30
12
100
22
25
13
95
23
30
0
SOLID
8
L3D0_control
10
80
20
30
11
80
21
35
12
95
22
30
13
90
23
35
0
SOLID
8
L3D0_control
10
100
20
45
11
100
21
70
12
110
22
55
13
110
23
70
0
SOLID
8
L3D0_control
10
80
20
35
11
80
21
40
12
90
22
35
13
95
23
40
0
SOLID
8
L3D0_control
10
80
20
40
11
85
21
45
12
95
22
40
13
100
23
45
0
SOLID
8
L3D0_control
10
85
20
45
11
100
21
60
12
100
22
45
13
100
23
45
0
SOLID
8
L3D0_control
10
60
20
0
11
60
21
30
12
70
22
0
13
70
23
30
0
SOLID
8
L3D0_control
10
60
20
30
11
60
21
40
12
80
22
30
13
80
23
40
0
SOLID
8
L3D0_control
10
60
20
40
11
60
21
70
12
70
22
40
13
70
23
70
0
ENDBLK
0
BLOCK
2
TEXT$46
70
0
10
0
20
0
0
SOLID
8
L3D0_control
10
0
20
5
11
0
21
7
12
2
22
5
13
2
23
7
0
SOLID
8
L3D0_control
10
6
20
0
11
6
21
3
12
8
22
0
13
8
23
3
0
SOLID
8
L3D0_control
10
0
20
3
11
0
21
5
12
10
22
3
13
10
23
5
0
SOLID
8
L3D0_control
10
6
20
5
11
6
21
7
12
8
22
5
13
8
23
7
0
SOLID
8
L3D0_control
10
6
20
7
11
6
21
14
12
8
22
7
13
8
23
14
0
SOLID
8
L3D0_control
10
5
20
10
11
5
21
13
12
6
22
10
13
6
23
14
0
SOLID
8
L3D0_control
10
2
20
7
11
2
21
10
12
5
22
10
13
5
23
10
0
SOLID
8
L3D0_control
10
0
20
7
11
0
21
8
12
2
22
7
13
2
23
10
0
SOLID
8
L3D0_control
10
2
20
10
11
5
21
13
12
5
22
10
13
5
23
10
0
SOLID
8
L3D0_control
10
15
20
0
11
15
21
2
12
20
22
0
13
22
23
2
0
SOLID
8
L3D0_control
10
19
20
2
11
20
21
3
12
22
22
2
13
22
23
3
0
SOLID
8
L3D0_control
10
20
20
3
11
20
21
11
12
22
22
3
13
22
23
11
0
SOLID
8
L3D0_control
10
14
20
0
11
12
21
2
12
15
22
0
13
15
23
2
0
SOLID
8
L3D0_control
10
12
20
2
11
12
21
3
12
15
22
2
13
14
23
3
0
SOLID
8
L3D0_control
10
12
20
3
11
12
21
11
12
14
22
3
13
14
23
11
0
SOLID
8
L3D0_control
10
20
20
11
11
19
21
12
12
22
22
11
13
22
23
12
0
SOLID
8
L3D0_control
10
15
20
12
11
15
21
14
12
22
22
12
13
20
23
14
0
SOLID
8
L3D0_control
10
12
20
11
11
12
21
12
12
14
22
11
13
15
23
12
0
SOLID
8
L3D0_control
10
12
20
12
11
14
21
14
12
15
22
12
13
15
23
14
0
SOLID
8
L3D0_control
10
16
20
5
11
16
21
9
12
18
22
5
13
18
23
9
0
SOLID
8
L3D0_control
10
27
20
0
11
27
21
2
12
32
22
0
13
34
23
2
0
SOLID
8
L3D0_control
10
31
20
2
11
32
21
3
12
34
22
2
13
34
23
3
0
SOLID
8
L3D0_control
10
32
20
3
11
32
21
11
12
34
22
3
13
34
23
11
0
SOLID
8
L3D0_control
10
26
20
0
11
24
21
2
12
27
22
0
13
27
23
2
0
SOLID
8
L3D0_control
10
24
20
2
11
24
21
3
12
27
22
2
13
26
23
3
0
SOLID
8
L3D0_control
10
24
20
3
11
24
21
11
12
26
22
3
13
26
23
11
0
SOLID
8
L3D0_control
10
32
20
11
11
31
21
12
12
34
22
11
13
34
23
12
0
SOLID
8
L3D0_control
10
27
20
12
11
27
21
14
12
34
22
12
13
32
23
14
0
SOLID
8
L3D0_control
10
24
20
11
11
24
21
12
12
26
22
11
13
27
23
12
0
SOLID
8
L3D0_control
10
24
20
12
11
26
21
14
12
27
22
12
13
27
23
14
0
SOLID
8
L3D0_control
10
28
20
5
11
28
21
9
12
30
22
5
13
30
23
9
0
ENDBLK
0
BLOCK
2
TEXT$47
70
0
10
0
20
0
0
SOLID
8
L3D0_control
10
20
20
0
11
20
21
10
12
50
22
0
13
50
23
10
0
SOLID
8
L3D0_control
10
20
20
10
11
20
21
70
12
30
22
10
13
30
23
70
0
SOLID
8
L3D0_control
10
0
20
40
11
0
21
50
12
5
22
40
13
15
23
50
0
SOLID
8
L3D0_control
10
0
20
50
11
20
21
70
12
20
22
50
13
20
23
50
0
SOLID
8
L3D0_control
10
0
20
0
11
0
21
10
12
20
22
0
13
20
23
10
0
SOLID
8
L3D0_control
10
90
20
30
11
90
21
35
12
95
22
35
13
95
23
35
0
SOLID
8
L3D0_control
10
80
20
0
11
80
21
35
12
90
22
0
13
90
23
35
0
SOLID
8
L3D0_control
10
80
20
35
11
95
21
50
12
95
22
35
13
110
23
50
0
SOLID
8
L3D0_control
10
95
20
50
11
100
21
55
12
110
22
50
13
110
23
55
0
SOLID
8
L3D0_control
10
100
20
55
11
100
21
70
12
110
22
55
13
110
23
70
0
SOLID
8
L3D0_control
10
60
20
60
11
60
21
70
12
100
22
60
13
100
23
70
0
SOLID
8
L3D0_control
10
160
20
0
11
160
21
25
12
170
22
0
13
170
23
15
0
SOLID
8
L3D0_control
10
160
20
10
11
145
21
25
12
160
22
25
13
160
23
25
0
SOLID
8
L3D0_control
10
145
20
25
11
140
21
30
12
160
22
25
13
155
23
30
0
SOLID
8
L3D0_control
10
140
20
30
11
140
21
35
12
155
22
30
13
150
23
35
0
SOLID
8
L3D0_control
10
160
20
45
11
160
21
70
12
170
22
55
13
170
23
70
0
SOLID
8
L3D0_control
10
140
20
35
11
140
21
40
12
150
22
35
13
155
23
40
0
SOLID
8
L3D0_control
10
140
20
40
11
145
21
45
12
155
22
40
13
160
23
45
0
SOLID
8
L3D0_control
10
145
20
45
11
160
21
60
12
160
22
45
13
160
23
45
0
SOLID
8
L3D0_control
10
120
20
0
11
120
21
30
12
130
22
0
13
130
23
30
0
SOLID
8
L3D0_control
10
120
20
30
11
120
21
40
12
140
22
30
13
140
23
40
0
SOLID
8
L3D0_control
10
120
20
40
11
120
21
70
12
130
22
40
13
130
23
70
0
ENDBLK
0
BLOCK
2
TEXT$48
70
0
10
0
20
0
0
SOLID
8
L3D0_control
10
3
20
0
11
3
21
2
12
8
22
0
13
10
23
2
0
SOLID
8
L3D0_control
10
7
20
2
11
8
21
3
12
10
22
2
13
10
23
3
0
SOLID
8
L3D0_control
10
8
20
3
11
8
21
7
12
10
22
3
13
10
23
7
0
SOLID
8
L3D0_control
10
8
20
6
11
7
21
7
12
8
22
7
13
8
23
7
0
SOLID
8
L3D0_control
10
2
20
0
11
0
21
2
12
3
22
0
13
3
23
2
0
SOLID
8
L3D0_control
10
0
20
2
11
0
21
3
12
3
22
2
13
2
23
3
0
SOLID
8
L3D0_control
10
2
20
6
11
2
21
7
12
3
22
7
13
3
23
7
0
SOLID
8
L3D0_control
10
0
20
3
11
0
21
7
12
2
22
3
13
2
23
7
0
SOLID
8
L3D0_control
10
3
20
7
11
3
21
9
12
10
22
7
13
8
23
9
0
SOLID
8
L3D0_control
10
0
20
7
11
0
21
10
12
3
22
7
13
3
23
10
0
SOLID
8
L3D0_control
10
0
20
10
11
2
21
12
12
3
22
10
13
5
23
12
0
SOLID
8
L3D0_control
10
2
20
12
11
4
21
14
12
8
22
12
13
8
23
14
0
SOLID
8
L3D0_control
10
15
20
0
11
15
21
2
12
20
22
0
13
22
23
2
0
SOLID
8
L3D0_control
10
19
20
2
11
20
21
3
12
22
22
2
13
22
23
3
0
SOLID
8
L3D0_control
10
20
20
3
11
20
21
11
12
22
22
3
13
22
23
11
0
SOLID
8
L3D0_control
10
14
20
0
11
12
21
2
12
15
22
0
13
15
23
2
0
SOLID
8
L3D0_control
10
12
20
2
11
12
21
3
12
15
22
2
13
14
23
3
0
SOLID
8
L3D0_control
10
12
20
3
11
12
21
11
12
14
22
3
13
14
23
11
0
SOLID
8
L3D0_control
10
20
20
11
11
19
21
12
12
22
22
11
13
22
23
12
0
SOLID
8
L3D0_control
10
15
20
12
11
15
21
14
12
22
22
12
13
20
23
14
0
SOLID
8
L3D0_control
10
12
20
11
11
12
21
12
12
14
22
11
13
15
23
12
0
SOLID
8
L3D0_control
10
12
20
12
11
14
21
14
12
15
22
12
13
15
23
14
0
SOLID
8
L3D0_control
10
16
20
5
11
16
21
9
12
18
22
5
13
18
23
9
0
SOLID
8
L3D0_control
10
27
20
0
11
27
21
2
12
32
22
0
13
34
23
2
0
SOLID
8
L3D0_control
10
31
20
2
11
32
21
3
12
34
22
2
13
34
23
3
0
SOLID
8
L3D0_control
10
32
20
3
11
32
21
11
12
34
22
3
13
34
23
11
0
SOLID
8
L3D0_control
10
26
20
0
11
24
21
2
12
27
22
0
13
27
23
2
0
SOLID
8
L3D0_control
10
24
20
2
11
24
21
3
12
27
22
2
13
26
23
3
0
SOLID
8
L3D0_control
10
24
20
3
11
24
21
11
12
26
22
3
13
26
23
11
0
SOLID
8
L3D0_control
10
32
20
11
11
31
21
12
12
34
22
11
13
34
23
12
0
SOLID
8
L3D0_control
10
27
20
12
11
27
21
14
12
34
22
12
13
32
23
14
0
SOLID
8
L3D0_control
10
24
20
11
11
24
21
12
12
26
22
11
13
27
23
12
0
SOLID
8
L3D0_control
10
24
20
12
11
26
21
14
12
27
22
12
13
27
23
14
0
SOLID
8
L3D0_control
10
28
20
5
11
28
21
9
12
30
22
5
13
30
23
9
0
ENDBLK
0
BLOCK
2
TEXT$49
70
0
10
0
20
0
0
SOLID
8
L3D0_control
10
15
20
0
11
15
21
10
12
40
22
0
13
50
23
10
0
SOLID
8
L3D0_control
10
35
20
10
11
40
21
15
12
50
22
10
13
50
23
15
0
SOLID
8
L3D0_control
10
10
20
0
11
0
21
10
12
15
22
0
13
15
23
10
0
SOLID
8
L3D0_control
10
0
20
10
11
0
21
15
12
15
22
10
13
10
23
15
0
SOLID
8
L3D0_control
10
40
20
15
11
40
21
30
12
50
22
15
13
50
23
30
0
SOLID
8
L3D0_control
10
40
20
25
11
35
21
30
12
40
22
30
13
40
23
30
0
SOLID
8
L3D0_control
10
0
20
15
11
0
21
25
12
10
22
15
13
10
23
25
0
SOLID
8
L3D0_control
10
15
20
30
11
15
21
35
12
50
22
30
13
45
23
35
0
SOLID
8
L3D0_control
10
0
20
25
11
0
21
30
12
10
22
25
13
15
23
30
0
SOLID
8
L3D0_control
10
0
20
30
11
5
21
35
12
15
22
30
13
15
23
35
0
SOLID
8
L3D0_control
10
35
20
35
11
35
21
40
12
45
22
35
13
50
23
40
0
SOLID
8
L3D0_control
10
35
20
40
11
40
21
45
12
50
22
40
13
50
23
45
0
SOLID
8
L3D0_control
10
15
20
35
11
15
21
40
12
35
22
35
13
35
23
40
0
SOLID
8
L3D0_control
10
40
20
45
11
40
21
55
12
50
22
45
13
50
23
55
0
SOLID
8
L3D0_control
10
5
20
35
11
0
21
40
12
15
22
35
13
15
23
40
0
SOLID
8
L3D0_control
10
0
20
40
11
0
21
45
12
15
22
40
13
10
23
45
0
SOLID
8
L3D0_control
10
0
20
45
11
0
21
55
12
10
22
45
13
10
23
55
0
SOLID
8
L3D0_control
10
40
20
55
11
35
21
60
12
50
22
55
13
50
23
60
0
SOLID
8
L3D0_control
10
15
20
60
11
15
21
70
12
50
22
60
13
40
23
70
0
SOLID
8
L3D0_control
10
0
20
55
11
0
21
60
12
10
22
55
13
15
23
60
0
SOLID
8
L3D0_control
10
0
20
60
11
10
21
70
12
15
22
60
13
15
23
70
0
SOLID
8
L3D0_control
10
100
20
0
11
100
21
25
12
110
22
0
13
110
23
15
0
SOLID
8
L3D0_control
10
100
20
10
11
85
21
25
12
100
22
25
13
100
23
25
0
SOLID
8
L3D0_control
10
85
20
25
11
80
21
30
12
100
22
25
13
95
23
30
0
SOLID
8
L3D0_control
10
80
20
30
11
80
21
35
12
95
22
30
13
90
23
35
0
SOLID
8
L3D0_control
10
100
20
45
11
100
21
70
12
110
22
55
13
110
23
70
0
SOLID
8
L3D0_control
10
80
20
35
11
80
21
40
12
90
22
35
13
95
23
40
0
SOLID
8
L3D0_control
10
80
20
40
11
85
21
45
12
95
22
40
13
100
23
45
0
SOLID
8
L3D0_control
10
85
20
45
11
100
21
60
12
100
22
45
13
100
23
45
0
SOLID
8
L3D0_control
10
60
20
0
11
60
21
30
12
70
22
0
13
70
23
30
0
SOLID
8
L3D0_control
10
60
20
30
11
60
21
40
12
80
22
30
13
80
23
40
0
SOLID
8
L3D0_control
10
60
20
40
11
60
21
70
12
70
22
40
13
70
23
70
0
ENDBLK
0
BLOCK
2
TEXT$50
70
0
10
0
20
0
0
SOLID
8
L3D0_control
10
4
20
0
11
4
21
2
12
10
22
0
13
10
23
2
0
SOLID
8
L3D0_control
10
4
20
2
11
4
21
14
12
6
22
2
13
6
23
14
0
SOLID
8
L3D0_control
10
0
20
8
11
0
21
10
12
1
22
8
13
3
23
10
0
SOLID
8
L3D0_control
10
0
20
10
11
4
21
14
12
4
22
10
13
4
23
10
0
SOLID
8
L3D0_control
10
0
20
0
11
0
21
2
12
4
22
0
13
4
23
2
0
SOLID
8
L3D0_control
10
15
20
0
11
15
21
2
12
20
22
0
13
22
23
2
0
SOLID
8
L3D0_control
10
19
20
2
11
20
21
3
12
22
22
2
13
22
23
3
0
SOLID
8
L3D0_control
10
20
20
3
11
20
21
11
12
22
22
3
13
22
23
11
0
SOLID
8
L3D0_control
10
14
20
0
11
12
21
2
12
15
22
0
13
15
23
2
0
SOLID
8
L3D0_control
10
12
20
2
11
12
21
3
12
15
22
2
13
14
23
3
0
SOLID
8
L3D0_control
10
12
20
3
11
12
21
11
12
14
22
3
13
14
23
11
0
SOLID
8
L3D0_control
10
20
20
11
11
19
21
12
12
22
22
11
13
22
23
12
0
SOLID
8
L3D0_control
10
15
20
12
11
15
21
14
12
22
22
12
13
20
23
14
0
SOLID
8
L3D0_control
10
12
20
11
11
12
21
12
12
14
22
11
13
15
23
12
0
SOLID
8
L3D0_control
10
12
20
12
11
14
21
14
12
15
22
12
13
15
23
14
0
SOLID
8
L3D0_control
10
16
20
5
11
16
21
9
12
18
22
5
13
18
23
9
0
SOLID
8
L3D0_control
10
27
20
0
11
27
21
2
12
32
22
0
13
34
23
2
0
SOLID
8
L3D0_control
10
31
20
2
11
32
21
3
12
34
22
2
13
34
23
3
0
SOLID
8
L3D0_control
10
32
20
3
11
32
21
11
12
34
22
3
13
34
23
11
0
SOLID
8
L3D0_control
10
26
20
0
11
24
21
2
12
27
22
0
13
27
23
2
0
SOLID
8
L3D0_control
10
24
20
2
11
24
21
3
12
27
22
2
13
26
23
3
0
SOLID
8
L3D0_control
10
24
20
3
11
24
21
11
12
26
22
3
13
26
23
11
0
SOLID
8
L3D0_control
10
32
20
11
11
31
21
12
12
34
22
11
13
34
23
12
0
SOLID
8
L3D0_control
10
27
20
12
11
27
21
14
12
34
22
12
13
32
23
14
0
SOLID
8
L3D0_control
10
24
20
11
11
24
21
12
12
26
22
11
13
27
23
12
0
SOLID
8
L3D0_control
10
24
20
12
11
26
21
14
12
27
22
12
13
27
23
14
0
SOLID
8
L3D0_control
10
28
20
5
11
28
21
9
12
30
22
5
13
30
23
9
0
ENDBLK
0
BLOCK
2
TEXT$51
70
0
10
0
20
0
0
SOLID
8
L3D0_control
10
20
20
0
11
20
21
10
12
50
22
0
13
50
23
10
0
SOLID
8
L3D0_control
10
20
20
10
11
20
21
70
12
30
22
10
13
30
23
70
0
SOLID
8
L3D0_control
10
0
20
40
11
0
21
50
12
5
22
40
13
15
23
50
0
SOLID
8
L3D0_control
10
0
20
50
11
20
21
70
12
20
22
50
13
20
23
50
0
SOLID
8
L3D0_control
10
0
20
0
11
0
21
10
12
20
22
0
13
20
23
10
0
SOLID
8
L3D0_control
10
75
20
0
11
75
21
10
12
100
22
0
13
110
23
10
0
SOLID
8
L3D0_control
10
95
20
10
11
100
21
15
12
110
22
10
13
110
23
15
0
SOLID
8
L3D0_control
10
70
20
0
11
60
21
10
12
75
22
0
13
75
23
10
0
SOLID
8
L3D0_control
10
60
20
10
11
60
21
15
12
75
22
10
13
70
23
15
0
SOLID
8
L3D0_control
10
100
20
15
11
100
21
30
12
110
22
15
13
110
23
30
0
SOLID
8
L3D0_control
10
100
20
25
11
95
21
30
12
100
22
30
13
100
23
30
0
SOLID
8
L3D0_control
10
60
20
15
11
60
21
25
12
70
22
15
13
70
23
25
0
SOLID
8
L3D0_control
10
75
20
30
11
75
21
35
12
110
22
30
13
105
23
35
0
SOLID
8
L3D0_control
10
60
20
25
11
60
21
30
12
70
22
25
13
75
23
30
0
SOLID
8
L3D0_control
10
60
20
30
11
65
21
35
12
75
22
30
13
75
23
35
0
SOLID
8
L3D0_control
10
95
20
35
11
95
21
40
12
105
22
35
13
110
23
40
0
SOLID
8
L3D0_control
10
95
20
40
11
100
21
45
12
110
22
40
13
110
23
45
0
SOLID
8
L3D0_control
10
75
20
35
11
75
21
40
12
95
22
35
13
95
23
40
0
SOLID
8
L3D0_control
10
100
20
45
11
100
21
55
12
110
22
45
13
110
23
55
0
SOLID
8
L3D0_control
10
65
20
35
11
60
21
40
12
75
22
35
13
75
23
40
0
SOLID
8
L3D0_control
10
60
20
40
11
60
21
45
12
75
22
40
13
70
23
45
0
SOLID
8
L3D0_control
10
60
20
45
11
60
21
55
12
70
22
45
13
70
23
55
0
SOLID
8
L3D0_control
10
100
20
55
11
95
21
60
12
110
22
55
13
110
23
60
0
SOLID
8
L3D0_control
10
75
20
60
11
75
21
70
12
110
22
60
13
100
23
70
0
SOLID
8
L3D0_control
10
60
20
55
11
60
21
60
12
70
22
55
13
75
23
60
0
SOLID
8
L3D0_control
10
60
20
60
11
70
21
70
12
75
22
60
13
75
23
70
0
SOLID
8
L3D0_control
10
160
20
0
11
160
21
25
12
170
22
0
13
170
23
15
0
SOLID
8
L3D0_control
10
160
20
10
11
145
21
25
12
160
22
25
13
160
23
25
0
SOLID
8
L3D0_control
10
145
20
25
11
140
21
30
12
160
22
25
13
155
23
30
0
SOLID
8
L3D0_control
10
140
20
30
11
140
21
35
12
155
22
30
13
150
23
35
0
SOLID
8
L3D0_control
10
160
20
45
11
160
21
70
12
170
22
55
13
170
23
70
0
SOLID
8
L3D0_control
10
140
20
35
11
140
21
40
12
150
22
35
13
155
23
40
0
SOLID
8
L3D0_control
10
140
20
40
11
145
21
45
12
155
22
40
13
160
23
45
0
SOLID
8
L3D0_control
10
145
20
45
11
160
21
60
12
160
22
45
13
160
23
45
0
SOLID
8
L3D0_control
10
120
20
0
11
120
21
30
12
130
22
0
13
130
23
30
0
SOLID
8
L3D0_control
10
120
20
30
11
120
21
40
12
140
22
30
13
140
23
40
0
SOLID
8
L3D0_control
10
120
20
40
11
120
21
70
12
130
22
40
13
130
23
70
0
ENDBLK
0
BLOCK
2
TEXT$52
70
0
10
0
20
0
0
SOLID
8
L3D0_control
10
0
20
25
11
0
21
35
12
10
22
25
13
10
23
35
0
SOLID
8
L3D0_control
10
30
20
0
11
30
21
15
12
40
22
0
13
40
23
15
0
SOLID
8
L3D0_control
10
0
20
15
11
0
21
25
12
50
22
15
13
50
23
25
0
SOLID
8
L3D0_control
10
30
20
25
11
30
21
35
12
40
22
25
13
40
23
35
0
SOLID
8
L3D0_control
10
30
20
35
11
30
21
70
12
40
22
35
13
40
23
70
0
SOLID
8
L3D0_control
10
25
20
50
11
25
21
65
12
30
22
50
13
30
23
70
0
SOLID
8
L3D0_control
10
10
20
35
11
10
21
50
12
25
22
50
13
25
23
50
0
SOLID
8
L3D0_control
10
0
20
35
11
0
21
40
12
10
22
35
13
10
23
50
0
SOLID
8
L3D0_control
10
10
20
50
11
25
21
65
12
25
22
50
13
25
23
50
0
SOLID
8
L3D0_control
10
100
20
0
11
100
21
25
12
110
22
0
13
110
23
15
0
SOLID
8
L3D0_control
10
100
20
10
11
85
21
25
12
100
22
25
13
100
23
25
0
SOLID
8
L3D0_control
10
85
20
25
11
80
21
30
12
100
22
25
13
95
23
30
0
SOLID
8
L3D0_control
10
80
20
30
11
80
21
35
12
95
22
30
13
90
23
35
0
SOLID
8
L3D0_control
10
100
20
45
11
100
21
70
12
110
22
55
13
110
23
70
0
SOLID
8
L3D0_control
10
80
20
35
11
80
21
40
12
90
22
35
13
95
23
40
0
SOLID
8
L3D0_control
10
80
20
40
11
85
21
45
12
95
22
40
13
100
23
45
0
SOLID
8
L3D0_control
10
85
20
45
11
100
21
60
12
100
22
45
13
100
23
45
0
SOLID
8
L3D0_control
10
60
20
0
11
60
21
30
12
70
22
0
13
70
23
30
0
SOLID
8
L3D0_control
10
60
20
30
11
60
21
40
12
80
22
30
13
80
23
40
0
SOLID
8
L3D0_control
10
60
20
40
11
60
21
70
12
70
22
40
13
70
23
70
0
ENDBLK
0
BLOCK
2
TEXT$53
70
0
10
0
20
0
0
SOLID
8
L3D0_control
10
20
20
0
11
20
21
10
12
50
22
0
13
50
23
10
0
SOLID
8
L3D0_control
10
20
20
10
11
20
21
70
12
30
22
10
13
30
23
70
0
SOLID
8
L3D0_control
10
0
20
40
11
0
21
50
12
5
22
40
13
15
23
50
0
SOLID
8
L3D0_control
10
0
20
50
11
20
21
70
12
20
22
50
13
20
23
50
0
SOLID
8
L3D0_control
10
0
20
0
11
0
21
10
12
20
22
0
13
20
23
10
0
SOLID
8
L3D0_control
10
75
20
0
11
75
21
10
12
100
22
0
13
110
23
10
0
SOLID
8
L3D0_control
10
95
20
10
11
100
21
15
12
110
22
10
13
110
23
15
0
SOLID
8
L3D0_control
10
100
20
15
11
100
21
35
12
110
22
15
13
110
23
35
0
SOLID
8
L3D0_control
10
100
20
30
11
95
21
35
12
100
22
35
13
100
23
35
0
SOLID
8
L3D0_control
10
70
20
0
11
70
21
15
12
75
22
0
13
75
23
10
0
SOLID
8
L3D0_control
10
70
20
0
11
60
21
10
12
70
22
20
13
60
23
20
0
SOLID
8
L3D0_control
10
60
20
35
11
60
21
45
12
110
22
35
13
100
23
45
0
SOLID
8
L3D0_control
10
60
20
45
11
60
21
60
12
70
22
45
13
70
23
60
0
SOLID
8
L3D0_control
10
60
20
60
11
60
21
70
12
110
22
60
13
110
23
70
0
SOLID
8
L3D0_control
10
160
20
0
11
160
21
25
12
170
22
0
13
170
23
15
0
SOLID
8
L3D0_control
10
160
20
10
11
145
21
25
12
160
22
25
13
160
23
25
0
SOLID
8
L3D0_control
10
145
20
25
11
140
21
30
12
160
22
25
13
155
23
30
0
SOLID
8
L3D0_control
10
140
20
30
11
140
21
35
12
155
22
30
13
150
23
35
0
SOLID
8
L3D0_control
10
160
20
45
11
160
21
70
12
170
22
55
13
170
23
70
0
SOLID
8
L3D0_control
10
140
20
35
11
140
21
40
12
150
22
35
13
155
23
40
0
SOLID
8
L3D0_control
10
140
20
40
11
145
21
45
12
155
22
40
13
160
23
45
0
SOLID
8
L3D0_control
10
145
20
45
11
160
21
60
12
160
22
45
13
160
23
45
0
SOLID
8
L3D0_control
10
120
20
0
11
120
21
30
12
130
22
0
13
130
23
30
0
SOLID
8
L3D0_control
10
120
20
30
11
120
21
40
12
140
22
30
13
140
23
40
0
SOLID
8
L3D0_control
10
120
20
40
11
120
21
70
12
130
22
40
13
130
23
70
0
ENDBLK
0
BLOCK
2
TEXT$54
70
0
10
0
20
0
0
SOLID
8
L3D0_control
10
3
20
3
11
3
21
4
12
4
22
4
13
4
23
4
0
SOLID
8
L3D0_control
10
2
20
0
11
2
21
4
12
3
22
0
13
3
23
4
0
SOLID
8
L3D0_control
10
4
20
4
11
4
21
6
12
5
22
5
13
5
23
6
0
SOLID
8
L3D0_control
10
2
20
4
11
4
21
6
12
4
22
4
13
4
23
4
0
SOLID
8
L3D0_control
10
0
20
6
11
0
21
7
12
5
22
6
13
5
23
7
0
SOLID
8
L3D0_control
10
8
20
0
11
8
21
1
12
10
22
0
13
11
23
1
0
SOLID
8
L3D0_control
10
10
20
1
11
10
21
4
12
11
22
1
13
11
23
4
0
SOLID
8
L3D0_control
10
7
20
0
11
6
21
1
12
8
22
0
13
8
23
1
0
SOLID
8
L3D0_control
10
6
20
1
11
6
21
2
12
8
22
1
13
7
23
2
0
SOLID
8
L3D0_control
10
6
20
4
11
6
21
5
12
11
22
4
13
10
23
5
0
SOLID
8
L3D0_control
10
6
20
5
11
6
21
6
12
7
22
5
13
7
23
6
0
SOLID
8
L3D0_control
10
6
20
6
11
6
21
7
12
11
22
6
13
11
23
7
0
ENDBLK
0
BLOCK
2
TEXT$55
70
0
10
0
20
0
0
SOLID
8
L3D0_control
10
3
20
0
11
3
21
2
12
8
22
0
13
10
23
2
0
SOLID
8
L3D0_control
10
7
20
2
11
8
21
3
12
10
22
2
13
10
23
3
0
SOLID
8
L3D0_control
10
8
20
3
11
8
21
7
12
10
22
3
13
10
23
7
0
SOLID
8
L3D0_control
10
8
20
6
11
7
21
7
12
8
22
7
13
8
23
7
0
SOLID
8
L3D0_control
10
2
20
0
11
2
21
3
12
3
22
0
13
3
23
2
0
SOLID
8
L3D0_control
10
2
20
0
11
0
21
2
12
2
22
4
13
0
23
4
0
SOLID
8
L3D0_control
10
0
20
7
11
0
21
9
12
10
22
7
13
8
23
9
0
SOLID
8
L3D0_control
10
0
20
9
11
0
21
12
12
2
22
9
13
2
23
12
0
SOLID
8
L3D0_control
10
0
20
12
11
0
21
14
12
10
22
12
13
10
23
14
0
SOLID
8
L3D0_control
10
15
20
0
11
15
21
2
12
20
22
0
13
22
23
2
0
SOLID
8
L3D0_control
10
19
20
2
11
20
21
3
12
22
22
2
13
22
23
3
0
SOLID
8
L3D0_control
10
20
20
3
11
20
21
11
12
22
22
3
13
22
23
11
0
SOLID
8
L3D0_control
10
14
20
0
11
12
21
2
12
15
22
0
13
15
23
2
0
SOLID
8
L3D0_control
10
12
20
2
11
12
21
3
12
15
22
2
13
14
23
3
0
SOLID
8
L3D0_control
10
12
20
3
11
12
21
11
12
14
22
3
13
14
23
11
0
SOLID
8
L3D0_control
10
20
20
11
11
19
21
12
12
22
22
11
13
22
23
12
0
SOLID
8
L3D0_control
10
15
20
12
11
15
21
14
12
22
22
12
13
20
23
14
0
SOLID
8
L3D0_control
10
12
20
11
11
12
21
12
12
14
22
11
13
15
23
12
0
SOLID
8
L3D0_control
10
12
20
12
11
14
21
14
12
15
22
12
13
15
23
14
0
SOLID
8
L3D0_control
10
16
20
5
11
16
21
9
12
18
22
5
13
18
23
9
0
SOLID
8
L3D0_control
10
27
20
0
11
27
21
2
12
32
22
0
13
34
23
2
0
SOLID
8
L3D0_control
10
31
20
2
11
32
21
3
12
34
22
2
13
34
23
3
0
SOLID
8
L3D0_control
10
32
20
3
11
32
21
11
12
34
22
3
13
34
23
11
0
SOLID
8
L3D0_control
10
26
20
0
11
24
21
2
12
27
22
0
13
27
23
2
0
SOLID
8
L3D0_control
10
24
20
2
11
24
21
3
12
27
22
2
13
26
23
3
0
SOLID
8
L3D0_control
10
24
20
3
11
24
21
11
12
26
22
3
13
26
23
11
0
SOLID
8
L3D0_control
10
32
20
11
11
31
21
12
12
34
22
11
13
34
23
12
0
SOLID
8
L3D0_control
10
27
20
12
11
27
21
14
12
34
22
12
13
32
23
14
0
SOLID
8
L3D0_control
10
24
20
11
11
24
21
12
12
26
22
11
13
27
23
12
0
SOLID
8
L3D0_control
10
24
20
12
11
26
21
14
12
27
22
12
13
27
23
14
0
SOLID
8
L3D0_control
10
28
20
5
11
28
21
9
12
30
22
5
13
30
23
9
0
ENDBLK
0
BLOCK
2
TEXT$56
70
0
10
0
20
0
0
SOLID
8
L3D0_control
10
30
20
30
11
30
21
35
12
35
22
35
13
35
23
35
0
SOLID
8
L3D0_control
10
20
20
0
11
20
21
35
12
30
22
0
13
30
23
35
0
SOLID
8
L3D0_control
10
20
20
35
11
35
21
50
12
35
22
35
13
50
23
50
0
SOLID
8
L3D0_control
10
35
20
50
11
40
21
55
12
50
22
50
13
50
23
55
0
SOLID
8
L3D0_control
10
40
20
55
11
40
21
70
12
50
22
55
13
50
23
70
0
SOLID
8
L3D0_control
10
0
20
60
11
0
21
70
12
40
22
60
13
40
23
70
0
SOLID
8
L3D0_control
10
100
20
0
11
100
21
25
12
110
22
0
13
110
23
15
0
SOLID
8
L3D0_control
10
100
20
10
11
85
21
25
12
100
22
25
13
100
23
25
0
SOLID
8
L3D0_control
10
85
20
25
11
80
21
30
12
100
22
25
13
95
23
30
0
SOLID
8
L3D0_control
10
80
20
30
11
80
21
35
12
95
22
30
13
90
23
35
0
SOLID
8
L3D0_control
10
100
20
45
11
100
21
70
12
110
22
55
13
110
23
70
0
SOLID
8
L3D0_control
10
80
20
35
11
80
21
40
12
90
22
35
13
95
23
40
0
SOLID
8
L3D0_control
10
80
20
40
11
85
21
45
12
95
22
40
13
100
23
45
0
SOLID
8
L3D0_control
10
85
20
45
11
100
21
60
12
100
22
45
13
100
23
45
0
SOLID
8
L3D0_control
10
60
20
0
11
60
21
30
12
70
22
0
13
70
23
30
0
SOLID
8
L3D0_control
10
60
20
30
11
60
21
40
12
80
22
30
13
80
23
40
0
SOLID
8
L3D0_control
10
60
20
40
11
60
21
70
12
70
22
40
13
70
23
70
0
ENDBLK
0
BLOCK
2
TEXT$57
70
0
10
0
20
0
0
SOLID
8
L3D0_control
10
2
20
0
11
2
21
1
12
4
22
0
13
5
23
1
0
SOLID
8
L3D0_control
10
4
20
1
11
4
21
4
12
5
22
1
13
5
23
4
0
SOLID
8
L3D0_control
10
1
20
0
11
0
21
1
12
2
22
0
13
2
23
1
0
SOLID
8
L3D0_control
10
0
20
1
11
0
21
2
12
2
22
1
13
1
23
2
0
SOLID
8
L3D0_control
10
0
20
4
11
0
21
5
12
5
22
4
13
4
23
5
0
SOLID
8
L3D0_control
10
0
20
5
11
0
21
6
12
1
22
5
13
1
23
6
0
SOLID
8
L3D0_control
10
0
20
6
11
0
21
7
12
5
22
6
13
5
23
7
0
SOLID
8
L3D0_control
10
7
20
0
11
6
21
1
12
10
22
0
13
11
23
1
0
SOLID
8
L3D0_control
10
10
20
1
11
10
21
2
12
11
22
1
13
11
23
2
0
SOLID
8
L3D0_control
10
6
20
1
11
6
21
2
12
8
22
1
13
7
23
2
0
SOLID
8
L3D0_control
10
10
20
2
11
10
21
6
12
11
22
2
13
11
23
6
0
SOLID
8
L3D0_control
10
6
20
2
11
6
21
6
12
7
22
2
13
7
23
6
0
SOLID
8
L3D0_control
10
6
20
6
11
7
21
7
12
11
22
6
13
10
23
7
0
SOLID
8
L3D0_control
10
8
20
3
11
8
21
5
12
9
22
3
13
9
23
5
0
ENDBLK
0
BLOCK
2
TEXT$58
70
0
10
0
20
0
0
SOLID
8
L3D0_control
10
20
20
0
11
20
21
10
12
50
22
0
13
50
23
10
0
SOLID
8
L3D0_control
10
20
20
10
11
20
21
70
12
30
22
10
13
30
23
70
0
SOLID
8
L3D0_control
10
0
20
40
11
0
21
50
12
5
22
40
13
15
23
50
0
SOLID
8
L3D0_control
10
0
20
50
11
20
21
70
12
20
22
50
13
20
23
50
0
SOLID
8
L3D0_control
10
0
20
0
11
0
21
10
12
20
22
0
13
20
23
10
0
SOLID
8
L3D0_control
10
70
20
0
11
60
21
10
12
100
22
0
13
110
23
10
0
SOLID
8
L3D0_control
10
100
20
10
11
100
21
20
12
110
22
10
13
110
23
20
0
SOLID
8
L3D0_control
10
95
20
10
11
100
21
15
12
100
22
10
13
100
23
10
0
SOLID
8
L3D0_control
10
70
20
10
11
70
21
15
12
75
22
10
13
75
23
10
0
SOLID
8
L3D0_control
10
60
20
10
11
60
21
20
12
70
22
10
13
70
23
20
0
SOLID
8
L3D0_control
10
100
20
20
11
100
21
25
12
110
22
20
13
110
23
25
0
SOLID
8
L3D0_control
10
100
20
25
11
95
21
30
12
110
22
25
13
110
23
30
0
SOLID
8
L3D0_control
10
80
20
30
11
80
21
35
12
110
22
30
13
105
23
35
0
SOLID
8
L3D0_control
10
80
20
35
11
80
21
40
12
105
22
35
13
110
23
40
0
SOLID
8
L3D0_control
10
95
20
40
11
100
21
45
12
110
22
40
13
110
23
45
0
SOLID
8
L3D0_control
10
100
20
45
11
100
21
55
12
110
22
45
13
110
23
55
0
SOLID
8
L3D0_control
10
100
20
55
11
95
21
60
12
110
22
55
13
110
23
60
0
SOLID
8
L3D0_control
10
80
20
60
11
80
21
70
12
110
22
60
13
100
23
70
0
SOLID
8
L3D0_control
10
70
20
55
11
70
21
60
12
75
22
60
13
75
23
60
0
SOLID
8
L3D0_control
10
60
20
50
11
60
21
60
12
70
22
50
13
70
23
60
0
SOLID
8
L3D0_control
10
60
20
60
11
70
21
70
12
80
22
60
13
80
23
70
0
SOLID
8
L3D0_control
10
160
20
0
11
160
21
25
12
170
22
0
13
170
23
15
0
SOLID
8
L3D0_control
10
160
20
10
11
145
21
25
12
160
22
25
13
160
23
25
0
SOLID
8
L3D0_control
10
145
20
25
11
140
21
30
12
160
22
25
13
155
23
30
0
SOLID
8
L3D0_control
10
140
20
30
11
140
21
35
12
155
22
30
13
150
23
35
0
SOLID
8
L3D0_control
10
160
20
45
11
160
21
70
12
170
22
55
13
170
23
70
0
SOLID
8
L3D0_control
10
140
20
35
11
140
21
40
12
150
22
35
13
155
23
40
0
SOLID
8
L3D0_control
10
140
20
40
11
145
21
45
12
155
22
40
13
160
23
45
0
SOLID
8
L3D0_control
10
145
20
45
11
160
21
60
12
160
22
45
13
160
23
45
0
SOLID
8
L3D0_control
10
120
20
0
11
120
21
30
12
130
22
0
13
130
23
30
0
SOLID
8
L3D0_control
10
120
20
30
11
120
21
40
12
140
22
30
13
140
23
40
0
SOLID
8
L3D0_control
10
120
20
40
11
120
21
70
12
130
22
40
13
130
23
70
0
ENDBLK
0
BLOCK
2
TEXT$59
70
0
10
0
20
0
0
SOLID
8
L3D0_control
10
0
20
0
11
0
21
10
12
50
22
0
13
50
23
10
0
SOLID
8
L3D0_control
10
0
20
10
11
0
21
20
12
10
22
10
13
10
23
20
0
SOLID
8
L3D0_control
10
15
20
25
11
15
21
35
12
40
22
25
13
50
23
35
0
SOLID
8
L3D0_control
10
0
20
20
11
0
21
25
12
10
22
20
13
15
23
25
0
SOLID
8
L3D0_control
10
0
20
25
11
10
21
35
12
15
22
25
13
15
23
35
0
SOLID
8
L3D0_control
10
40
20
35
11
40
21
55
12
50
22
35
13
50
23
55
0
SOLID
8
L3D0_control
10
35
20
35
11
40
21
40
12
40
22
35
13
40
23
35
0
SOLID
8
L3D0_control
10
40
20
55
11
35
21
60
12
50
22
55
13
50
23
60
0
SOLID
8
L3D0_control
10
35
20
60
11
35
21
70
12
50
22
60
13
40
23
70
0
SOLID
8
L3D0_control
10
10
20
55
11
10
21
60
12
15
22
60
13
15
23
60
0
SOLID
8
L3D0_control
10
0
20
50
11
0
21
60
12
10
22
50
13
10
23
60
0
SOLID
8
L3D0_control
10
0
20
60
11
10
21
70
12
35
22
60
13
35
23
70
0
SOLID
8
L3D0_control
10
100
20
0
11
100
21
25
12
110
22
0
13
110
23
15
0
SOLID
8
L3D0_control
10
100
20
10
11
85
21
25
12
100
22
25
13
100
23
25
0
SOLID
8
L3D0_control
10
85
20
25
11
80
21
30
12
100
22
25
13
95
23
30
0
SOLID
8
L3D0_control
10
80
20
30
11
80
21
35
12
95
22
30
13
90
23
35
0
SOLID
8
L3D0_control
10
100
20
45
11
100
21
70
12
110
22
55
13
110
23
70
0
SOLID
8
L3D0_control
10
80
20
35
11
80
21
40
12
90
22
35
13
95
23
40
0
SOLID
8
L3D0_control
10
80
20
40
11
85
21
45
12
95
22
40
13
100
23
45
0
SOLID
8
L3D0_control
10
85
20
45
11
100
21
60
12
100
22
45
13
100
23
45
0
SOLID
8
L3D0_control
10
60
20
0
11
60
21
30
12
70
22
0
13
70
23
30
0
SOLID
8
L3D0_control
10
60
20
30
11
60
21
40
12
80
22
30
13
80
23
40
0
SOLID
8
L3D0_control
10
60
20
40
11
60
21
70
12
70
22
40
13
70
23
70
0
ENDBLK
0
BLOCK
2
TEXT$60
70
0
10
0
20
0
0
SOLID
8
L3D0_control
10
20
20
0
11
20
21
10
12
50
22
0
13
50
23
10
0
SOLID
8
L3D0_control
10
20
20
10
11
20
21
70
12
30
22
10
13
30
23
70
0
SOLID
8
L3D0_control
10
0
20
40
11
0
21
50
12
5
22
40
13
15
23
50
0
SOLID
8
L3D0_control
10
0
20
50
11
20
21
70
12
20
22
50
13
20
23
50
0
SOLID
8
L3D0_control
10
0
20
0
11
0
21
10
12
20
22
0
13
20
23
10
0
SOLID
8
L3D0_control
10
70
20
0
11
70
21
10
12
90
22
0
13
100
23
10
0
SOLID
8
L3D0_control
10
85
20
10
11
95
21
20
12
100
22
10
13
110
23
20
0
SOLID
8
L3D0_control
10
95
20
20
11
95
21
35
12
110
22
20
13
110
23
35
0
SOLID
8
L3D0_control
10
70
20
25
11
60
21
35
12
95
22
25
13
95
23
35
0
SOLID
8
L3D0_control
10
100
20
35
11
100
21
55
12
110
22
35
13
110
23
55
0
SOLID
8
L3D0_control
10
95
20
35
11
100
21
40
12
100
22
35
13
100
23
35
0
SOLID
8
L3D0_control
10
100
20
55
11
95
21
60
12
110
22
55
13
110
23
60
0
SOLID
8
L3D0_control
10
95
20
60
11
95
21
70
12
110
22
60
13
100
23
70
0
SOLID
8
L3D0_control
10
70
20
35
11
70
21
40
12
75
22
35
13
75
23
35
0
SOLID
8
L3D0_control
10
60
20
35
11
60
21
55
12
70
22
35
13
70
23
55
0
SOLID
8
L3D0_control
10
60
20
55
11
60
21
60
12
70
22
55
13
75
23
60
0
SOLID
8
L3D0_control
10
60
20
60
11
70
21
70
12
95
22
60
13
95
23
70
0
SOLID
8
L3D0_control
10
160
20
0
11
160
21
25
12
170
22
0
13
170
23
15
0
SOLID
8
L3D0_control
10
160
20
10
11
145
21
25
12
160
22
25
13
160
23
25
0
SOLID
8
L3D0_control
10
145
20
25
11
140
21
30
12
160
22
25
13
155
23
30
0
SOLID
8
L3D0_control
10
140
20
30
11
140
21
35
12
155
22
30
13
150
23
35
0
SOLID
8
L3D0_control
10
160
20
45
11
160
21
70
12
170
22
55
13
170
23
70
0
SOLID
8
L3D0_control
10
140
20
35
11
140
21
40
12
150
22
35
13
155
23
40
0
SOLID
8
L3D0_control
10
140
20
40
11
145
21
45
12
155
22
40
13
160
23
45
0
SOLID
8
L3D0_control
10
145
20
45
11
160
21
60
12
160
22
45
13
160
23
45
0
SOLID
8
L3D0_control
10
120
20
0
11
120
21
30
12
130
22
0
13
130
23
30
0
SOLID
8
L3D0_control
10
120
20
30
11
120
21
40
12
140
22
30
13
140
23
40
0
SOLID
8
L3D0_control
10
120
20
40
11
120
21
70
12
130
22
40
13
130
23
70
0
ENDBLK
0
BLOCK
2
TEXT$61
70
0
10
0
20
0
0
SOLID
8
L3D0_control
10
1
20
0
11
0
21
1
12
4
22
0
13
5
23
1
0
SOLID
8
L3D0_control
10
4
20
1
11
4
21
2
12
5
22
1
13
5
23
2
0
SOLID
8
L3D0_control
10
0
20
1
11
0
21
2
12
2
22
1
13
1
23
2
0
SOLID
8
L3D0_control
10
4
20
2
11
4
21
6
12
5
22
2
13
5
23
6
0
SOLID
8
L3D0_control
10
0
20
2
11
0
21
6
12
1
22
2
13
1
23
6
0
SOLID
8
L3D0_control
10
0
20
6
11
1
21
7
12
5
22
6
13
4
23
7
0
SOLID
8
L3D0_control
10
2
20
3
11
2
21
5
12
3
22
3
13
3
23
5
0
ENDBLK
0
BLOCK
2
TEXT$62
70
0
10
0
20
0
0
SOLID
8
L3D0_control
10
20
20
0
11
20
21
10
12
50
22
0
13
50
23
10
0
SOLID
8
L3D0_control
10
20
20
10
11
20
21
70
12
30
22
10
13
30
23
70
0
SOLID
8
L3D0_control
10
0
20
40
11
0
21
50
12
5
22
40
13
15
23
50
0
SOLID
8
L3D0_control
10
0
20
50
11
20
21
70
12
20
22
50
13
20
23
50
0
SOLID
8
L3D0_control
10
0
20
0
11
0
21
10
12
20
22
0
13
20
23
10
0
SOLID
8
L3D0_control
10
75
20
0
11
75
21
10
12
100
22
0
13
110
23
10
0
SOLID
8
L3D0_control
10
95
20
10
11
100
21
15
12
110
22
10
13
110
23
15
0
SOLID
8
L3D0_control
10
100
20
15
11
100
21
35
12
110
22
15
13
110
23
35
0
SOLID
8
L3D0_control
10
100
20
30
11
95
21
35
12
100
22
35
13
100
23
35
0
SOLID
8
L3D0_control
10
70
20
0
11
60
21
10
12
75
22
0
13
75
23
10
0
SOLID
8
L3D0_control
10
60
20
10
11
60
21
15
12
75
22
10
13
70
23
15
0
SOLID
8
L3D0_control
10
70
20
30
11
70
21
35
12
75
22
35
13
75
23
35
0
SOLID
8
L3D0_control
10
60
20
15
11
60
21
35
12
70
22
15
13
70
23
35
0
SOLID
8
L3D0_control
10
75
20
35
11
75
21
45
12
110
22
35
13
100
23
45
0
SOLID
8
L3D0_control
10
60
20
35
11
60
21
50
12
75
22
35
13
75
23
50
0
SOLID
8
L3D0_control
10
60
20
50
11
70
21
60
12
75
22
50
13
85
23
60
0
SOLID
8
L3D0_control
10
70
20
60
11
80
21
70
12
100
22
60
13
100
23
70
0
SOLID
8
L3D0_control
10
160
20
0
11
160
21
25
12
170
22
0
13
170
23
15
0
SOLID
8
L3D0_control
10
160
20
10
11
145
21
25
12
160
22
25
13
160
23
25
0
SOLID
8
L3D0_control
10
145
20
25
11
140
21
30
12
160
22
25
13
155
23
30
0
SOLID
8
L3D0_control
10
140
20
30
11
140
21
35
12
155
22
30
13
150
23
35
0
SOLID
8
L3D0_control
10
160
20
45
11
160
21
70
12
170
22
55
13
170
23
70
0
SOLID
8
L3D0_control
10
140
20
35
11
140
21
40
12
150
22
35
13
155
23
40
0
SOLID
8
L3D0_control
10
140
20
40
11
145
21
45
12
155
22
40
13
160
23
45
0
SOLID
8
L3D0_control
10
145
20
45
11
160
21
60
12
160
22
45
13
160
23
45
0
SOLID
8
L3D0_control
10
120
20
0
11
120
21
30
12
130
22
0
13
130
23
30
0
SOLID
8
L3D0_control
10
120
20
30
11
120
21
40
12
140
22
30
13
140
23
40
0
SOLID
8
L3D0_control
10
120
20
40
11
120
21
70
12
130
22
40
13
130
23
70
0
ENDBLK
0
BLOCK
2
TEXT$63
70
0
10
0
20
0
0
SOLID
8
L3D0_control
10
0
20
0
11
0
21
2
12
10
22
0
13
10
23
2
0
SOLID
8
L3D0_control
10
0
20
2
11
0
21
4
12
2
22
2
13
2
23
4
0
SOLID
8
L3D0_control
10
3
20
5
11
3
21
7
12
8
22
5
13
10
23
7
0
SOLID
8
L3D0_control
10
0
20
4
11
0
21
5
12
2
22
4
13
3
23
5
0
SOLID
8
L3D0_control
10
0
20
5
11
2
21
7
12
3
22
5
13
3
23
7
0
SOLID
8
L3D0_control
10
8
20
7
11
8
21
11
12
10
22
7
13
10
23
11
0
SOLID
8
L3D0_control
10
7
20
7
11
8
21
8
12
8
22
7
13
8
23
7
0
SOLID
8
L3D0_control
10
8
20
11
11
7
21
12
12
10
22
11
13
10
23
12
0
SOLID
8
L3D0_control
10
7
20
12
11
7
21
14
12
10
22
12
13
8
23
14
0
SOLID
8
L3D0_control
10
2
20
11
11
2
21
12
12
3
22
12
13
3
23
12
0
SOLID
8
L3D0_control
10
0
20
10
11
0
21
12
12
2
22
10
13
2
23
12
0
SOLID
8
L3D0_control
10
0
20
12
11
2
21
14
12
7
22
12
13
7
23
14
0
SOLID
8
L3D0_control
10
15
20
0
11
15
21
2
12
20
22
0
13
22
23
2
0
SOLID
8
L3D0_control
10
19
20
2
11
20
21
3
12
22
22
2
13
22
23
3
0
SOLID
8
L3D0_control
10
20
20
3
11
20
21
11
12
22
22
3
13
22
23
11
0
SOLID
8
L3D0_control
10
14
20
0
11
12
21
2
12
15
22
0
13
15
23
2
0
SOLID
8
L3D0_control
10
12
20
2
11
12
21
3
12
15
22
2
13
14
23
3
0
SOLID
8
L3D0_control
10
12
20
3
11
12
21
11
12
14
22
3
13
14
23
11
0
SOLID
8
L3D0_control
10
20
20
11
11
19
21
12
12
22
22
11
13
22
23
12
0
SOLID
8
L3D0_control
10
15
20
12
11
15
21
14
12
22
22
12
13
20
23
14
0
SOLID
8
L3D0_control
10
12
20
11
11
12
21
12
12
14
22
11
13
15
23
12
0
SOLID
8
L3D0_control
10
12
20
12
11
14
21
14
12
15
22
12
13
15
23
14
0
SOLID
8
L3D0_control
10
16
20
5
11
16
21
9
12
18
22
5
13
18
23
9
0
SOLID
8
L3D0_control
10
27
20
0
11
27
21
2
12
32
22
0
13
34
23
2
0
SOLID
8
L3D0_control
10
31
20
2
11
32
21
3
12
34
22
2
13
34
23
3
0
SOLID
8
L3D0_control
10
32
20
3
11
32
21
11
12
34
22
3
13
34
23
11
0
SOLID
8
L3D0_control
10
26
20
0
11
24
21
2
12
27
22
0
13
27
23
2
0
SOLID
8
L3D0_control
10
24
20
2
11
24
21
3
12
27
22
2
13
26
23
3
0
SOLID
8
L3D0_control
10
24
20
3
11
24
21
11
12
26
22
3
13
26
23
11
0
SOLID
8
L3D0_control
10
32
20
11
11
31
21
12
12
34
22
11
13
34
23
12
0
SOLID
8
L3D0_control
10
27
20
12
11
27
21
14
12
34
22
12
13
32
23
14
0
SOLID
8
L3D0_control
10
24
20
11
11
24
21
12
12
26
22
11
13
27
23
12
0
SOLID
8
L3D0_control
10
24
20
12
11
26
21
14
12
27
22
12
13
27
23
14
0
SOLID
8
L3D0_control
10
28
20
5
11
28
21
9
12
30
22
5
13
30
23
9
0
ENDBLK
0
BLOCK
2
TEXT$64
70
0
10
0
20
0
0
SOLID
8
L3D0_control
10
20
20
0
11
20
21
10
12
50
22
0
13
50
23
10
0
SOLID
8
L3D0_control
10
20
20
10
11
20
21
70
12
30
22
10
13
30
23
70
0
SOLID
8
L3D0_control
10
0
20
40
11
0
21
50
12
5
22
40
13
15
23
50
0
SOLID
8
L3D0_control
10
0
20
50
11
20
21
70
12
20
22
50
13
20
23
50
0
SOLID
8
L3D0_control
10
0
20
0
11
0
21
10
12
20
22
0
13
20
23
10
0
SOLID
8
L3D0_control
10
100
20
0
11
100
21
25
12
110
22
0
13
110
23
15
0
SOLID
8
L3D0_control
10
100
20
10
11
85
21
25
12
100
22
25
13
100
23
25
0
SOLID
8
L3D0_control
10
85
20
25
11
80
21
30
12
100
22
25
13
95
23
30
0
SOLID
8
L3D0_control
10
80
20
30
11
80
21
35
12
95
22
30
13
90
23
35
0
SOLID
8
L3D0_control
10
100
20
45
11
100
21
70
12
110
22
55
13
110
23
70
0
SOLID
8
L3D0_control
10
80
20
35
11
80
21
40
12
90
22
35
13
95
23
40
0
SOLID
8
L3D0_control
10
80
20
40
11
85
21
45
12
95
22
40
13
100
23
45
0
SOLID
8
L3D0_control
10
85
20
45
11
100
21
60
12
100
22
45
13
100
23
45
0
SOLID
8
L3D0_control
10
60
20
0
11
60
21
30
12
70
22
0
13
70
23
30
0
SOLID
8
L3D0_control
10
60
20
30
11
60
21
40
12
80
22
30
13
80
23
40
0
SOLID
8
L3D0_control
10
60
20
40
11
60
21
70
12
70
22
40
13
70
23
70
0
ENDBLK
0
BLOCK
2
TEXT$65
70
0
10
0
20
0
0
SOLID
8
L3D0_control
10
20
20
0
11
20
21
10
12
50
22
0
13
50
23
10
0
SOLID
8
L3D0_control
10
20
20
10
11
20
21
70
12
30
22
10
13
30
23
70
0
SOLID
8
L3D0_control
10
0
20
40
11
0
21
50
12
5
22
40
13
15
23
50
0
SOLID
8
L3D0_control
10
0
20
50
11
20
21
70
12
20
22
50
13
20
23
50
0
SOLID
8
L3D0_control
10
0
20
0
11
0
21
10
12
20
22
0
13
20
23
10
0
SOLID
8
L3D0_control
10
60
20
0
11
60
21
10
12
110
22
0
13
110
23
10
0
SOLID
8
L3D0_control
10
60
20
10
11
60
21
20
12
70
22
10
13
70
23
20
0
SOLID
8
L3D0_control
10
75
20
25
11
75
21
35
12
100
22
25
13
110
23
35
0
SOLID
8
L3D0_control
10
60
20
20
11
60
21
25
12
70
22
20
13
75
23
25
0
SOLID
8
L3D0_control
10
60
20
25
11
70
21
35
12
75
22
25
13
75
23
35
0
SOLID
8
L3D0_control
10
100
20
35
11
100
21
55
12
110
22
35
13
110
23
55
0
SOLID
8
L3D0_control
10
95
20
35
11
100
21
40
12
100
22
35
13
100
23
35
0
SOLID
8
L3D0_control
10
100
20
55
11
95
21
60
12
110
22
55
13
110
23
60
0
SOLID
8
L3D0_control
10
95
20
60
11
95
21
70
12
110
22
60
13
100
23
70
0
SOLID
8
L3D0_control
10
70
20
55
11
70
21
60
12
75
22
60
13
75
23
60
0
SOLID
8
L3D0_control
10
60
20
50
11
60
21
60
12
70
22
50
13
70
23
60
0
SOLID
8
L3D0_control
10
60
20
60
11
70
21
70
12
95
22
60
13
95
23
70
0
SOLID
8
L3D0_control
10
160
20
0
11
160
21
25
12
170
22
0
13
170
23
15
0
SOLID
8
L3D0_control
10
160
20
10
11
145
21
25
12
160
22
25
13
160
23
25
0
SOLID
8
L3D0_control
10
145
20
25
11
140
21
30
12
160
22
25
13
155
23
30
0
SOLID
8
L3D0_control
10
140
20
30
11
140
21
35
12
155
22
30
13
150
23
35
0
SOLID
8
L3D0_control
10
160
20
45
11
160
21
70
12
170
22
55
13
170
23
70
0
SOLID
8
L3D0_control
10
140
20
35
11
140
21
40
12
150
22
35
13
155
23
40
0
SOLID
8
L3D0_control
10
140
20
40
11
145
21
45
12
155
22
40
13
160
23
45
0
SOLID
8
L3D0_control
10
145
20
45
11
160
21
60
12
160
22
45
13
160
23
45
0
SOLID
8
L3D0_control
10
120
20
0
11
120
21
30
12
130
22
0
13
130
23
30
0
SOLID
8
L3D0_control
10
120
20
30
11
120
21
40
12
140
22
30
13
140
23
40
0
SOLID
8
L3D0_control
10
120
20
40
11
120
21
70
12
130
22
40
13
130
23
70
0
ENDBLK
0
BLOCK
2
TEXT$66
70
0
10
0
20
0
0
SOLID
8
L3D0_control
10
10
20
0
11
0
21
10
12
40
22
0
13
50
23
10
0
SOLID
8
L3D0_control
10
40
20
10
11
40
21
20
12
50
22
10
13
50
23
20
0
SOLID
8
L3D0_control
10
35
20
10
11
40
21
15
12
40
22
10
13
40
23
10
0
SOLID
8
L3D0_control
10
10
20
10
11
10
21
15
12
15
22
10
13
15
23
10
0
SOLID
8
L3D0_control
10
0
20
10
11
0
21
20
12
10
22
10
13
10
23
20
0
SOLID
8
L3D0_control
10
40
20
20
11
40
21
25
12
50
22
20
13
50
23
25
0
SOLID
8
L3D0_control
10
40
20
25
11
35
21
30
12
50
22
25
13
50
23
30
0
SOLID
8
L3D0_control
10
20
20
30
11
20
21
35
12
50
22
30
13
45
23
35
0
SOLID
8
L3D0_control
10
20
20
35
11
20
21
40
12
45
22
35
13
50
23
40
0
SOLID
8
L3D0_control
10
35
20
40
11
40
21
45
12
50
22
40
13
50
23
45
0
SOLID
8
L3D0_control
10
40
20
45
11
40
21
55
12
50
22
45
13
50
23
55
0
SOLID
8
L3D0_control
10
40
20
55
11
35
21
60
12
50
22
55
13
50
23
60
0
SOLID
8
L3D0_control
10
20
20
60
11
20
21
70
12
50
22
60
13
40
23
70
0
SOLID
8
L3D0_control
10
10
20
55
11
10
21
60
12
15
22
60
13
15
23
60
0
SOLID
8
L3D0_control
10
0
20
50
11
0
21
60
12
10
22
50
13
10
23
60
0
SOLID
8
L3D0_control
10
0
20
60
11
10
21
70
12
20
22
60
13
20
23
70
0
SOLID
8
L3D0_control
10
100
20
0
11
100
21
25
12
110
22
0
13
110
23
15
0
SOLID
8
L3D0_control
10
100
20
10
11
85
21
25
12
100
22
25
13
100
23
25
0
SOLID
8
L3D0_control
10
85
20
25
11
80
21
30
12
100
22
25
13
95
23
30
0
SOLID
8
L3D0_control
10
80
20
30
11
80
21
35
12
95
22
30
13
90
23
35
0
SOLID
8
L3D0_control
10
100
20
45
11
100
21
70
12
110
22
55
13
110
23
70
0
SOLID
8
L3D0_control
10
80
20
35
11
80
21
40
12
90
22
35
13
95
23
40
0
SOLID
8
L3D0_control
10
80
20
40
11
85
21
45
12
95
22
40
13
100
23
45
0
SOLID
8
L3D0_control
10
85
20
45
11
100
21
60
12
100
22
45
13
100
23
45
0
SOLID
8
L3D0_control
10
60
20
0
11
60
21
30
12
70
22
0
13
70
23
30
0
SOLID
8
L3D0_control
10
60
20
30
11
60
21
40
12
80
22
30
13
80
23
40
0
SOLID
8
L3D0_control
10
60
20
40
11
60
21
70
12
70
22
40
13
70
23
70
0
ENDBLK
0
BLOCK
2
TEXT$67
70
0
10
0
20
0
0
SOLID
8
L3D0_control
10
20
20
0
11
20
21
10
12
50
22
0
13
50
23
10
0
SOLID
8
L3D0_control
10
20
20
10
11
20
21
70
12
30
22
10
13
30
23
70
0
SOLID
8
L3D0_control
10
0
20
40
11
0
21
50
12
5
22
40
13
15
23
50
0
SOLID
8
L3D0_control
10
0
20
50
11
20
21
70
12
20
22
50
13
20
23
50
0
SOLID
8
L3D0_control
10
0
20
0
11
0
21
10
12
20
22
0
13
20
23
10
0
SOLID
8
L3D0_control
10
60
20
25
11
60
21
35
12
70
22
25
13
70
23
35
0
SOLID
8
L3D0_control
10
90
20
0
11
90
21
15
12
100
22
0
13
100
23
15
0
SOLID
8
L3D0_control
10
60
20
15
11
60
21
25
12
110
22
15
13
110
23
25
0
SOLID
8
L3D0_control
10
90
20
25
11
90
21
35
12
100
22
25
13
100
23
35
0
SOLID
8
L3D0_control
10
90
20
35
11
90
21
70
12
100
22
35
13
100
23
70
0
SOLID
8
L3D0_control
10
85
20
50
11
85
21
65
12
90
22
50
13
90
23
70
0
SOLID
8
L3D0_control
10
70
20
35
11
70
21
50
12
85
22
50
13
85
23
50
0
SOLID
8
L3D0_control
10
60
20
35
11
60
21
40
12
70
22
35
13
70
23
50
0
SOLID
8
L3D0_control
10
70
20
50
11
85
21
65
12
85
22
50
13
85
23
50
0
SOLID
8
L3D0_control
10
160
20
0
11
160
21
25
12
170
22
0
13
170
23
15
0
SOLID
8
L3D0_control
10
160
20
10
11
145
21
25
12
160
22
25
13
160
23
25
0
SOLID
8
L3D0_control
10
145
20
25
11
140
21
30
12
160
22
25
13
155
23
30
0
SOLID
8
L3D0_control
10
140
20
30
11
140
21
35
12
155
22
30
13
150
23
35
0
SOLID
8
L3D0_control
10
160
20
45
11
160
21
70
12
170
22
55
13
170
23
70
0
SOLID
8
L3D0_control
10
140
20
35
11
140
21
40
12
150
22
35
13
155
23
40
0
SOLID
8
L3D0_control
10
140
20
40
11
145
21
45
12
155
22
40
13
160
23
45
0
SOLID
8
L3D0_control
10
145
20
45
11
160
21
60
12
160
22
45
13
160
23
45
0
SOLID
8
L3D0_control
10
120
20
0
11
120
21
30
12
130
22
0
13
130
23
30
0
SOLID
8
L3D0_control
10
120
20
30
11
120
21
40
12
140
22
30
13
140
23
40
0
SOLID
8
L3D0_control
10
120
20
40
11
120
21
70
12
130
22
40
13
130
23
70
0
ENDBLK
0
BLOCK
2
TEXT$68
70
0
10
0
20
0
0
SOLID
8
L3D0_control
10
20
20
0
11
20
21
10
12
50
22
0
13
50
23
10
0
SOLID
8
L3D0_control
10
20
20
10
11
20
21
70
12
30
22
10
13
30
23
70
0
SOLID
8
L3D0_control
10
0
20
40
11
0
21
50
12
5
22
40
13
15
23
50
0
SOLID
8
L3D0_control
10
0
20
50
11
20
21
70
12
20
22
50
13
20
23
50
0
SOLID
8
L3D0_control
10
0
20
0
11
0
21
10
12
20
22
0
13
20
23
10
0
SOLID
8
L3D0_control
10
80
20
0
11
80
21
10
12
110
22
0
13
110
23
10
0
SOLID
8
L3D0_control
10
80
20
10
11
80
21
70
12
90
22
10
13
90
23
70
0
SOLID
8
L3D0_control
10
60
20
40
11
60
21
50
12
65
22
40
13
75
23
50
0
SOLID
8
L3D0_control
10
60
20
50
11
80
21
70
12
80
22
50
13
80
23
50
0
SOLID
8
L3D0_control
10
60
20
0
11
60
21
10
12
80
22
0
13
80
23
10
0
SOLID
8
L3D0_control
10
160
20
0
11
160
21
25
12
170
22
0
13
170
23
15
0
SOLID
8
L3D0_control
10
160
20
10
11
145
21
25
12
160
22
25
13
160
23
25
0
SOLID
8
L3D0_control
10
145
20
25
11
140
21
30
12
160
22
25
13
155
23
30
0
SOLID
8
L3D0_control
10
140
20
30
11
140
21
35
12
155
22
30
13
150
23
35
0
SOLID
8
L3D0_control
10
160
20
45
11
160
21
70
12
170
22
55
13
170
23
70
0
SOLID
8
L3D0_control
10
140
20
35
11
140
21
40
12
150
22
35
13
155
23
40
0
SOLID
8
L3D0_control
10
140
20
40
11
145
21
45
12
155
22
40
13
160
23
45
0
SOLID
8
L3D0_control
10
145
20
45
11
160
21
60
12
160
22
45
13
160
23
45
0
SOLID
8
L3D0_control
10
120
20
0
11
120
21
30
12
130
22
0
13
130
23
30
0
SOLID
8
L3D0_control
10
120
20
30
11
120
21
40
12
140
22
30
13
140
23
40
0
SOLID
8
L3D0_control
10
120
20
40
11
120
21
70
12
130
22
40
13
130
23
70
0
ENDBLK
0
BLOCK
2
TEXT$69
70
0
10
0
20
0
0
SOLID
8
L3D0_control
10
2
20
0
11
2
21
2
12
6
22
0
13
8
23
2
0
SOLID
8
L3D0_control
10
5
20
2
11
7
21
4
12
8
22
2
13
10
23
4
0
SOLID
8
L3D0_control
10
7
20
4
11
7
21
7
12
10
22
4
13
10
23
7
0
SOLID
8
L3D0_control
10
2
20
5
11
0
21
7
12
7
22
5
13
7
23
7
0
SOLID
8
L3D0_control
10
8
20
7
11
8
21
11
12
10
22
7
13
10
23
11
0
SOLID
8
L3D0_control
10
7
20
7
11
8
21
8
12
8
22
7
13
8
23
7
0
SOLID
8
L3D0_control
10
8
20
11
11
7
21
12
12
10
22
11
13
10
23
12
0
SOLID
8
L3D0_control
10
7
20
12
11
7
21
14
12
10
22
12
13
8
23
14
0
SOLID
8
L3D0_control
10
2
20
7
11
2
21
8
12
3
22
7
13
3
23
7
0
SOLID
8
L3D0_control
10
0
20
7
11
0
21
11
12
2
22
7
13
2
23
11
0
SOLID
8
L3D0_control
10
0
20
11
11
0
21
12
12
2
22
11
13
3
23
12
0
SOLID
8
L3D0_control
10
0
20
12
11
2
21
14
12
7
22
12
13
7
23
14
0
SOLID
8
L3D0_control
10
15
20
0
11
15
21
2
12
20
22
0
13
22
23
2
0
SOLID
8
L3D0_control
10
19
20
2
11
20
21
3
12
22
22
2
13
22
23
3
0
SOLID
8
L3D0_control
10
20
20
3
11
20
21
11
12
22
22
3
13
22
23
11
0
SOLID
8
L3D0_control
10
14
20
0
11
12
21
2
12
15
22
0
13
15
23
2
0
SOLID
8
L3D0_control
10
12
20
2
11
12
21
3
12
15
22
2
13
14
23
3
0
SOLID
8
L3D0_control
10
12
20
3
11
12
21
11
12
14
22
3
13
14
23
11
0
SOLID
8
L3D0_control
10
20
20
11
11
19
21
12
12
22
22
11
13
22
23
12
0
SOLID
8
L3D0_control
10
15
20
12
11
15
21
14
12
22
22
12
13
20
23
14
0
SOLID
8
L3D0_control
10
12
20
11
11
12
21
12
12
14
22
11
13
15
23
12
0
SOLID
8
L3D0_control
10
12
20
12
11
14
21
14
12
15
22
12
13
15
23
14
0
SOLID
8
L3D0_control
10
16
20
5
11
16
21
9
12
18
22
5
13
18
23
9
0
SOLID
8
L3D0_control
10
27
20
0
11
27
21
2
12
32
22
0
13
34
23
2
0
SOLID
8
L3D0_control
10
31
20
2
11
32
21
3
12
34
22
2
13
34
23
3
0
SOLID
8
L3D0_control
10
32
20
3
11
32
21
11
12
34
22
3
13
34
23
11
0
SOLID
8
L3D0_control
10
26
20
0
11
24
21
2
12
27
22
0
13
27
23
2
0
SOLID
8
L3D0_control
10
24
20
2
11
24
21
3
12
27
22
2
13
26
23
3
0
SOLID
8
L3D0_control
10
24
20
3
11
24
21
11
12
26
22
3
13
26
23
11
0
SOLID
8
L3D0_control
10
32
20
11
11
31
21
12
12
34
22
11
13
34
23
12
0
SOLID
8
L3D0_control
10
27
20
12
11
27
21
14
12
34
22
12
13
32
23
14
0
SOLID
8
L3D0_control
10
24
20
11
11
24
21
12
12
26
22
11
13
27
23
12
0
SOLID
8
L3D0_control
10
24
20
12
11
26
21
14
12
27
22
12
13
27
23
14
0
SOLID
8
L3D0_control
10
28
20
5
11
28
21
9
12
30
22
5
13
30
23
9
0
ENDBLK
0
BLOCK
2
TEXT$70
70
0
10
0
20
0
0
SOLID
8
L3D0_control
10
6
20
6
11
6
21
7
12
7
22
7
13
7
23
7
0
SOLID
8
L3D0_control
10
4
20
0
11
4
21
7
12
6
22
0
13
6
23
7
0
SOLID
8
L3D0_control
10
4
20
7
11
7
21
10
12
7
22
7
13
10
23
10
0
SOLID
8
L3D0_control
10
7
20
10
11
8
21
11
12
10
22
10
13
10
23
11
0
SOLID
8
L3D0_control
10
8
20
11
11
8
21
14
12
10
22
11
13
10
23
14
0
SOLID
8
L3D0_control
10
0
20
12
11
0
21
14
12
8
22
12
13
8
23
14
0
SOLID
8
L3D0_control
10
15
20
0
11
15
21
2
12
20
22
0
13
22
23
2
0
SOLID
8
L3D0_control
10
19
20
2
11
20
21
3
12
22
22
2
13
22
23
3
0
SOLID
8
L3D0_control
10
20
20
3
11
20
21
11
12
22
22
3
13
22
23
11
0
SOLID
8
L3D0_control
10
14
20
0
11
12
21
2
12
15
22
0
13
15
23
2
0
SOLID
8
L3D0_control
10
12
20
2
11
12
21
3
12
15
22
2
13
14
23
3
0
SOLID
8
L3D0_control
10
12
20
3
11
12
21
11
12
14
22
3
13
14
23
11
0
SOLID
8
L3D0_control
10
20
20
11
11
19
21
12
12
22
22
11
13
22
23
12
0
SOLID
8
L3D0_control
10
15
20
12
11
15
21
14
12
22
22
12
13
20
23
14
0
SOLID
8
L3D0_control
10
12
20
11
11
12
21
12
12
14
22
11
13
15
23
12
0
SOLID
8
L3D0_control
10
12
20
12
11
14
21
14
12
15
22
12
13
15
23
14
0
SOLID
8
L3D0_control
10
16
20
5
11
16
21
9
12
18
22
5
13
18
23
9
0
SOLID
8
L3D0_control
10
27
20
0
11
27
21
2
12
32
22
0
13
34
23
2
0
SOLID
8
L3D0_control
10
31
20
2
11
32
21
3
12
34
22
2
13
34
23
3
0
SOLID
8
L3D0_control
10
32
20
3
11
32
21
11
12
34
22
3
13
34
23
11
0
SOLID
8
L3D0_control
10
26
20
0
11
24
21
2
12
27
22
0
13
27
23
2
0
SOLID
8
L3D0_control
10
24
20
2
11
24
21
3
12
27
22
2
13
26
23
3
0
SOLID
8
L3D0_control
10
24
20
3
11
24
21
11
12
26
22
3
13
26
23
11
0
SOLID
8
L3D0_control
10
32
20
11
11
31
21
12
12
34
22
11
13
34
23
12
0
SOLID
8
L3D0_control
10
27
20
12
11
27
21
14
12
34
22
12
13
32
23
14
0
SOLID
8
L3D0_control
10
24
20
11
11
24
21
12
12
26
22
11
13
27
23
12
0
SOLID
8
L3D0_control
10
24
20
12
11
26
21
14
12
27
22
12
13
27
23
14
0
SOLID
8
L3D0_control
10
28
20
5
11
28
21
9
12
30
22
5
13
30
23
9
0
ENDBLK
0
BLOCK
2
TEXT$71
70
0
10
0
20
0
0
SOLID
8
L3D0_control
10
10
20
0
11
10
21
10
12
30
22
0
13
40
23
10
0
SOLID
8
L3D0_control
10
25
20
10
11
35
21
20
12
40
22
10
13
50
23
20
0
SOLID
8
L3D0_control
10
35
20
20
11
35
21
35
12
50
22
20
13
50
23
35
0
SOLID
8
L3D0_control
10
10
20
25
11
0
21
35
12
35
22
25
13
35
23
35
0
SOLID
8
L3D0_control
10
40
20
35
11
40
21
55
12
50
22
35
13
50
23
55
0
SOLID
8
L3D0_control
10
35
20
35
11
40
21
40
12
40
22
35
13
40
23
35
0
SOLID
8
L3D0_control
10
40
20
55
11
35
21
60
12
50
22
55
13
50
23
60
0
SOLID
8
L3D0_control
10
35
20
60
11
35
21
70
12
50
22
60
13
40
23
70
0
SOLID
8
L3D0_control
10
10
20
35
11
10
21
40
12
15
22
35
13
15
23
35
0
SOLID
8
L3D0_control
10
0
20
35
11
0
21
55
12
10
22
35
13
10
23
55
0
SOLID
8
L3D0_control
10
0
20
55
11
0
21
60
12
10
22
55
13
15
23
60
0
SOLID
8
L3D0_control
10
0
20
60
11
10
21
70
12
35
22
60
13
35
23
70
0
SOLID
8
L3D0_control
10
100
20
0
11
100
21
25
12
110
22
0
13
110
23
15
0
SOLID
8
L3D0_control
10
100
20
10
11
85
21
25
12
100
22
25
13
100
23
25
0
SOLID
8
L3D0_control
10
85
20
25
11
80
21
30
12
100
22
25
13
95
23
30
0
SOLID
8
L3D0_control
10
80
20
30
11
80
21
35
12
95
22
30
13
90
23
35
0
SOLID
8
L3D0_control
10
100
20
45
11
100
21
70
12
110
22
55
13
110
23
70
0
SOLID
8
L3D0_control
10
80
20
35
11
80
21
40
12
90
22
35
13
95
23
40
0
SOLID
8
L3D0_control
10
80
20
40
11
85
21
45
12
95
22
40
13
100
23
45
0
SOLID
8
L3D0_control
10
85
20
45
11
100
21
60
12
100
22
45
13
100
23
45
0
SOLID
8
L3D0_control
10
60
20
0
11
60
21
30
12
70
22
0
13
70
23
30
0
SOLID
8
L3D0_control
10
60
20
30
11
60
21
40
12
80
22
30
13
80
23
40
0
SOLID
8
L3D0_control
10
60
20
40
11
60
21
70
12
70
22
40
13
70
23
70
0
ENDBLK
0
BLOCK
2
TEXT$72
70
0
10
0
20
0
0
SOLID
8
L3D0_control
10
0
20
0
11
0
21
1
12
5
22
0
13
5
23
1
0
SOLID
8
L3D0_control
10
0
20
1
11
0
21
2
12
1
22
1
13
1
23
2
0
SOLID
8
L3D0_control
10
0
20
2
11
0
21
3
12
1
22
2
13
2
23
3
0
SOLID
8
L3D0_control
10
0
20
3
11
1
21
4
12
4
22
3
13
5
23
4
0
SOLID
8
L3D0_control
10
4
20
4
11
4
21
5
12
5
22
4
13
5
23
5
0
SOLID
8
L3D0_control
10
4
20
5
11
4
21
6
12
5
22
5
13
5
23
6
0
SOLID
8
L3D0_control
10
1
20
6
11
1
21
7
12
5
22
6
13
4
23
7
0
SOLID
8
L3D0_control
10
0
20
5
11
0
21
6
12
1
22
5
13
1
23
7
0
SOLID
8
L3D0_control
10
8
20
0
11
8
21
1
12
10
22
0
13
11
23
1
0
SOLID
8
L3D0_control
10
10
20
1
11
10
21
4
12
11
22
1
13
11
23
4
0
SOLID
8
L3D0_control
10
7
20
0
11
6
21
1
12
8
22
0
13
8
23
1
0
SOLID
8
L3D0_control
10
6
20
1
11
6
21
2
12
8
22
1
13
7
23
2
0
SOLID
8
L3D0_control
10
6
20
4
11
6
21
5
12
11
22
4
13
10
23
5
0
SOLID
8
L3D0_control
10
6
20
5
11
6
21
6
12
7
22
5
13
7
23
6
0
SOLID
8
L3D0_control
10
6
20
6
11
6
21
7
12
11
22
6
13
11
23
7
0
ENDBLK
0
BLOCK
2
TEXT$73
70
0
10
0
20
0
0
SOLID
8
L3D0_control
10
20
20
0
11
20
21
10
12
50
22
0
13
50
23
10
0
SOLID
8
L3D0_control
10
20
20
10
11
20
21
70
12
30
22
10
13
30
23
70
0
SOLID
8
L3D0_control
10
0
20
40
11
0
21
50
12
5
22
40
13
15
23
50
0
SOLID
8
L3D0_control
10
0
20
50
11
20
21
70
12
20
22
50
13
20
23
50
0
SOLID
8
L3D0_control
10
0
20
0
11
0
21
10
12
20
22
0
13
20
23
10
0
SOLID
8
L3D0_control
10
75
20
0
11
75
21
10
12
100
22
0
13
110
23
10
0
SOLID
8
L3D0_control
10
95
20
10
11
100
21
15
12
110
22
10
13
110
23
15
0
SOLID
8
L3D0_control
10
100
20
15
11
100
21
55
12
110
22
15
13
110
23
55
0
SOLID
8
L3D0_control
10
70
20
0
11
60
21
10
12
75
22
0
13
75
23
10
0
SOLID
8
L3D0_control
10
60
20
10
11
60
21
15
12
75
22
10
13
70
23
15
0
SOLID
8
L3D0_control
10
60
20
15
11
60
21
55
12
70
22
15
13
70
23
55
0
SOLID
8
L3D0_control
10
100
20
55
11
95
21
60
12
110
22
55
13
110
23
60
0
SOLID
8
L3D0_control
10
75
20
60
11
75
21
70
12
110
22
60
13
100
23
70
0
SOLID
8
L3D0_control
10
60
20
55
11
60
21
60
12
70
22
55
13
75
23
60
0
SOLID
8
L3D0_control
10
60
20
60
11
70
21
70
12
75
22
60
13
75
23
70
0
SOLID
8
L3D0_control
10
80
20
25
11
80
21
45
12
90
22
25
13
90
23
45
0
SOLID
8
L3D0_control
10
160
20
0
11
160
21
25
12
170
22
0
13
170
23
15
0
SOLID
8
L3D0_control
10
160
20
10
11
145
21
25
12
160
22
25
13
160
23
25
0
SOLID
8
L3D0_control
10
145
20
25
11
140
21
30
12
160
22
25
13
155
23
30
0
SOLID
8
L3D0_control
10
140
20
30
11
140
21
35
12
155
22
30
13
150
23
35
0
SOLID
8
L3D0_control
10
160
20
45
11
160
21
70
12
170
22
55
13
170
23
70
0
SOLID
8
L3D0_control
10
140
20
35
11
140
21
40
12
150
22
35
13
155
23
40
0
SOLID
8
L3D0_control
10
140
20
40
11
145
21
45
12
155
22
40
13
160
23
45
0
SOLID
8
L3D0_control
10
145
20
45
11
160
21
60
12
160
22
45
13
160
23
45
0
SOLID
8
L3D0_control
10
120
20
0
11
120
21
30
12
130
22
0
13
130
23
30
0
SOLID
8
L3D0_control
10
120
20
30
11
120
21
40
12
140
22
30
13
140
23
40
0
SOLID
8
L3D0_control
10
120
20
40
11
120
21
70
12
130
22
40
13
130
23
70
0
ENDBLK
0
BLOCK
2
TEXT$74
70
0
10
0
20
0
0
SOLID
8
L3D0_control
10
3
20
0
11
3
21
2
12
8
22
0
13
10
23
2
0
SOLID
8
L3D0_control
10
7
20
2
11
8
21
3
12
10
22
2
13
10
23
3
0
SOLID
8
L3D0_control
10
2
20
0
11
0
21
2
12
3
22
0
13
3
23
2
0
SOLID
8
L3D0_control
10
0
20
2
11
0
21
3
12
3
22
2
13
2
23
3
0
SOLID
8
L3D0_control
10
8
20
3
11
8
21
6
12
10
22
3
13
10
23
6
0
SOLID
8
L3D0_control
10
8
20
5
11
7
21
6
12
8
22
6
13
8
23
6
0
SOLID
8
L3D0_control
10
0
20
3
11
0
21
5
12
2
22
3
13
2
23
5
0
SOLID
8
L3D0_control
10
3
20
6
11
3
21
7
12
10
22
6
13
9
23
7
0
SOLID
8
L3D0_control
10
0
20
5
11
0
21
6
12
2
22
5
13
3
23
6
0
SOLID
8
L3D0_control
10
0
20
6
11
1
21
7
12
3
22
6
13
3
23
7
0
SOLID
8
L3D0_control
10
7
20
7
11
7
21
8
12
9
22
7
13
10
23
8
0
SOLID
8
L3D0_control
10
7
20
8
11
8
21
9
12
10
22
8
13
10
23
9
0
SOLID
8
L3D0_control
10
3
20
7
11
3
21
8
12
7
22
7
13
7
23
8
0
SOLID
8
L3D0_control
10
8
20
9
11
8
21
11
12
10
22
9
13
10
23
11
0
SOLID
8
L3D0_control
10
1
20
7
11
0
21
8
12
3
22
7
13
3
23
8
0
SOLID
8
L3D0_control
10
0
20
8
11
0
21
9
12
3
22
8
13
2
23
9
0
SOLID
8
L3D0_control
10
0
20
9
11
0
21
11
12
2
22
9
13
2
23
11
0
SOLID
8
L3D0_control
10
8
20
11
11
7
21
12
12
10
22
11
13
10
23
12
0
SOLID
8
L3D0_control
10
3
20
12
11
3
21
14
12
10
22
12
13
8
23
14
0
SOLID
8
L3D0_control
10
0
20
11
11
0
21
12
12
2
22
11
13
3
23
12
0
SOLID
8
L3D0_control
10
0
20
12
11
2
21
14
12
3
22
12
13
3
23
14
0
SOLID
8
L3D0_control
10
15
20
0
11
15
21
2
12
20
22
0
13
22
23
2
0
SOLID
8
L3D0_control
10
19
20
2
11
20
21
3
12
22
22
2
13
22
23
3
0
SOLID
8
L3D0_control
10
20
20
3
11
20
21
11
12
22
22
3
13
22
23
11
0
SOLID
8
L3D0_control
10
14
20
0
11
12
21
2
12
15
22
0
13
15
23
2
0
SOLID
8
L3D0_control
10
12
20
2
11
12
21
3
12
15
22
2
13
14
23
3
0
SOLID
8
L3D0_control
10
12
20
3
11
12
21
11
12
14
22
3
13
14
23
11
0
SOLID
8
L3D0_control
10
20
20
11
11
19
21
12
12
22
22
11
13
22
23
12
0
SOLID
8
L3D0_control
10
15
20
12
11
15
21
14
12
22
22
12
13
20
23
14
0
SOLID
8
L3D0_control
10
12
20
11
11
12
21
12
12
14
22
11
13
15
23
12
0
SOLID
8
L3D0_control
10
12
20
12
11
14
21
14
12
15
22
12
13
15
23
14
0
SOLID
8
L3D0_control
10
16
20
5
11
16
21
9
12
18
22
5
13
18
23
9
0
SOLID
8
L3D0_control
10
27
20
0
11
27
21
2
12
32
22
0
13
34
23
2
0
SOLID
8
L3D0_control
10
31
20
2
11
32
21
3
12
34
22
2
13
34
23
3
0
SOLID
8
L3D0_control
10
32
20
3
11
32
21
11
12
34
22
3
13
34
23
11
0
SOLID
8
L3D0_control
10
26
20
0
11
24
21
2
12
27
22
0
13
27
23
2
0
SOLID
8
L3D0_control
10
24
20
2
11
24
21
3
12
27
22
2
13
26
23
3
0
SOLID
8
L3D0_control
10
24
20
3
11
24
21
11
12
26
22
3
13
26
23
11
0
SOLID
8
L3D0_control
10
32
20
11
11
31
21
12
12
34
22
11
13
34
23
12
0
SOLID
8
L3D0_control
10
27
20
12
11
27
21
14
12
34
22
12
13
32
23
14
0
SOLID
8
L3D0_control
10
24
20
11
11
24
21
12
12
26
22
11
13
27
23
12
0
SOLID
8
L3D0_control
10
24
20
12
11
26
21
14
12
27
22
12
13
27
23
14
0
SOLID
8
L3D0_control
10
28
20
5
11
28
21
9
12
30
22
5
13
30
23
9
0
ENDBLK
0
BLOCK
2
TEXT$75
70
0
10
0
20
0
0
SOLID
8
L3D0_control
10
0
20
0
11
0
21
10
12
50
22
0
13
50
23
10
0
SOLID
8
L3D0_control
10
0
20
10
11
0
21
20
12
10
22
10
13
10
23
20
0
SOLID
8
L3D0_control
10
15
20
25
11
15
21
35
12
40
22
25
13
50
23
35
0
SOLID
8
L3D0_control
10
0
20
20
11
0
21
25
12
10
22
20
13
15
23
25
0
SOLID
8
L3D0_control
10
0
20
25
11
10
21
35
12
15
22
25
13
15
23
35
0
SOLID
8
L3D0_control
10
40
20
35
11
40
21
55
12
50
22
35
13
50
23
55
0
SOLID
8
L3D0_control
10
35
20
35
11
40
21
40
12
40
22
35
13
40
23
35
0
SOLID
8
L3D0_control
10
40
20
55
11
35
21
60
12
50
22
55
13
50
23
60
0
SOLID
8
L3D0_control
10
35
20
60
11
35
21
70
12
50
22
60
13
40
23
70
0
SOLID
8
L3D0_control
10
10
20
55
11
10
21
60
12
15
22
60
13
15
23
60
0
SOLID
8
L3D0_control
10
0
20
50
11
0
21
60
12
10
22
50
13
10
23
60
0
SOLID
8
L3D0_control
10
0
20
60
11
10
21
70
12
35
22
60
13
35
23
70
0
SOLID
8
L3D0_control
10
75
20
0
11
75
21
10
12
100
22
0
13
110
23
10
0
SOLID
8
L3D0_control
10
95
20
10
11
100
21
15
12
110
22
10
13
110
23
15
0
SOLID
8
L3D0_control
10
100
20
15
11
100
21
55
12
110
22
15
13
110
23
55
0
SOLID
8
L3D0_control
10
70
20
0
11
60
21
10
12
75
22
0
13
75
23
10
0
SOLID
8
L3D0_control
10
60
20
10
11
60
21
15
12
75
22
10
13
70
23
15
0
SOLID
8
L3D0_control
10
60
20
15
11
60
21
55
12
70
22
15
13
70
23
55
0
SOLID
8
L3D0_control
10
100
20
55
11
95
21
60
12
110
22
55
13
110
23
60
0
SOLID
8
L3D0_control
10
75
20
60
11
75
21
70
12
110
22
60
13
100
23
70
0
SOLID
8
L3D0_control
10
60
20
55
11
60
21
60
12
70
22
55
13
75
23
60
0
SOLID
8
L3D0_control
10
60
20
60
11
70
21
70
12
75
22
60
13
75
23
70
0
SOLID
8
L3D0_control
10
80
20
25
11
80
21
45
12
90
22
25
13
90
23
45
0
SOLID
8
L3D0_control
10
160
20
0
11
160
21
25
12
170
22
0
13
170
23
15
0
SOLID
8
L3D0_control
10
160
20
10
11
145
21
25
12
160
22
25
13
160
23
25
0
SOLID
8
L3D0_control
10
145
20
25
11
140
21
30
12
160
22
25
13
155
23
30
0
SOLID
8
L3D0_control
10
140
20
30
11
140
21
35
12
155
22
30
13
150
23
35
0
SOLID
8
L3D0_control
10
160
20
45
11
160
21
70
12
170
22
55
13
170
23
70
0
SOLID
8
L3D0_control
10
140
20
35
11
140
21
40
12
150
22
35
13
155
23
40
0
SOLID
8
L3D0_control
10
140
20
40
11
145
21
45
12
155
22
40
13
160
23
45
0
SOLID
8
L3D0_control
10
145
20
45
11
160
21
60
12
160
22
45
13
160
23
45
0
SOLID
8
L3D0_control
10
120
20
0
11
120
21
30
12
130
22
0
13
130
23
30
0
SOLID
8
L3D0_control
10
120
20
30
11
120
21
40
12
140
22
30
13
140
23
40
0
SOLID
8
L3D0_control
10
120
20
40
11
120
21
70
12
130
22
40
13
130
23
70
0
ENDBLK
0
ENDSEC
0
SECTION
2
ENTITIES
0
INSERT
8
0
2
TEXT$43
10
-33315
20
27815
41
1.015
42
1.015
50
0
0
INSERT
8
0
2
TEXT$44
10
-38049
20
27876
41
1.015
42
1.015
50
0
0
INSERT
8
0
2
TEXT$45
10
-32300
20
27815
41
1.015
42
1.015
50
0
0
INSERT
8
0
2
TEXT$46
10
-37948
20
27876
41
1.015
42
1.015
50
0
0
INSERT
8
0
2
TEXT$47
10
-21168
20
27816
41
1.015
42
1.015
50
0
0
INSERT
8
0
2
TEXT$48
10
-37745
20
27876
41
1.015
42
1.015
50
0
0
INSERT
8
0
2
TEXT$49
10
-30270
20
27815
41
1.015
42
1.015
50
0
0
INSERT
8
0
2
device
10
-28437
20
-19134
41
1.015
42
1.015
50
0
0
INSERT
8
0
2
device
10
-28437
20
-915
41
1.015
42
1.015
50
0
0
INSERT
8
0
2
device
10
-28437
20
17304
41
1.015
42
1.015
50
0
0
INSERT
8
0
2
device
10
-20292
20
-19134
41
1.015
42
1.015
50
0
0
INSERT
8
0
2
device
10
-20292
20
-915
41
1.015
42
1.015
50
0
0
INSERT
8
0
2
device
10
-20292
20
17304
41
1.015
42
1.015
50
0
0
INSERT
8
0
2
device
10
20435
20
-19134
41
1.015
42
1.015
50
0
0
INSERT
8
0
2
device
10
20435
20
-915
41
1.015
42
1.015
50
0
0
INSERT
8
0
2
device
10
20435
20
17304
41
1.015
42
1.015
50
0
0
INSERT
8
0
2
device
10
28581
20
-19134
41
1.015
42
1.015
50
0
0
INSERT
8
0
2
device
10
28581
20
-915
41
1.015
42
1.015
50
0
0
INSERT
8
0
2
device
10
28581
20
17304
41
1.015
42
1.015
50
0
0
INSERT
8
0
2
TEXT$50
10
-38252
20
27876
41
1.015
42
1.015
50
0
0
INSERT
8
0
2
TEXT$51
10
-20153
20
27816
41
1.015
42
1.015
50
0
0
INSERT
8
0
2
TEXT$52
10
-34330
20
27815
41
1.015
42
1.015
50
0
0
INSERT
8
0
2
TEXT$53
10
-23198
20
27816
41
1.015
42
1.015
50
0
0
INSERT
8
0
2
TEXT$54
10
-38265
20
27884
41
1.015
42
1.015
50
0
0
INSERT
8
0
2
TEXT$55
10
-37846
20
27876
41
1.015
42
1.015
50
0
0
INSERT
8
0
2
TEXT$56
10
-31285
20
27815
41
1.015
42
1.015
50
0
0
INSERT
8
0
2
device
10
-36583
20
-915
41
1.015
42
1.015
50
0
0
INSERT
8
0
2
device
10
-36583
20
17304
41
1.015
42
1.015
50
0
0
INSERT
8
0
2
device
10
36726
20
-915
41
1.015
42
1.015
50
0
0
INSERT
8
0
2
device
10
36726
20
17304
41
1.015
42
1.015
50
0
0
INSERT
8
0
2
TEXT$57
10
-38291
20
27884
41
1.015
42
1.015
50
0
0
INSERT
8
0
2
TEXT$58
10
-25228
20
27816
41
1.015
42
1.015
50
0
0
INSERT
8
0
2
TEXT$59
10
-36360
20
27815
41
1.015
42
1.015
50
0
0
INSERT
8
0
2
TEXT$60
10
-19138
20
27816
41
1.015
42
1.015
50
0
0
INSERT
8
0
2
TEXT$61
10
-38338
20
27884
41
1.015
42
1.015
50
0
0
INSERT
8
0
2
TEXT$62
10
-22183
20
27816
41
1.015
42
1.015
50
0
0
INSERT
8
0
2
TEXT$63
10
-38151
20
27876
41
1.015
42
1.015
50
0
0
INSERT
8
0
2
1mm-ruler
10
-37328
20
27893
41
1.015
42
1.015
50
0
0
INSERT
8
0
2
1mm-ruler
10
-36313
20
27893
41
1.015
42
1.015
50
0
0
INSERT
8
0
2
1mm-ruler
10
-35298
20
27893
41
1.015
42
1.015
50
0
0
INSERT
8
0
2
1mm-ruler
10
-34283
20
27893
41
1.015
42
1.015
50
0
0
INSERT
8
0
2
1mm-ruler
10
-33268
20
27893
41
1.015
42
1.015
50
0
0
INSERT
8
0
2
1mm-ruler
10
-32253
20
27893
41
1.015
42
1.015
50
0
0
INSERT
8
0
2
1mm-ruler
10
-31238
20
27893
41
1.015
42
1.015
50
0
0
INSERT
8
0
2
1mm-ruler
10
-30223
20
27893
41
1.015
42
1.015
50
0
0
INSERT
8
0
2
1mm-ruler
10
-29208
20
27893
41
1.015
42
1.015
50
0
0
INSERT
8
0
2
1mm-ruler
10
-28193
20
27893
41
1.015
42
1.015
50
0
0
INSERT
8
0
2
1mm-ruler
10
-27178
20
27893
41
1.015
42
1.015
50
0
0
INSERT
8
0
2
1mm-ruler
10
-26163
20
27893
41
1.015
42
1.015
50
0
0
INSERT
8
0
2
1mm-ruler
10
-25148
20
27893
41
1.015
42
1.015
50
0
0
INSERT
8
0
2
1mm-ruler
10
-24133
20
27893
41
1.015
42
1.015
50
0
0
INSERT
8
0
2
1mm-ruler
10
-23118
20
27893
41
1.015
42
1.015
50
0
0
INSERT
8
0
2
1mm-ruler
10
-22103
20
27893
41
1.015
42
1.015
50
0
0
INSERT
8
0
2
1mm-ruler
10
-21088
20
27893
41
1.015
42
1.015
50
0
0
INSERT
8
0
2
1mm-ruler
10
-20073
20
27893
41
1.015
42
1.015
50
0
0
INSERT
8
0
2
1mm-ruler
10
-19058
20
27893
41
1.015
42
1.015
50
0
0
INSERT
8
0
2
TEXT$64
10
-37375
20
27815
41
1.015
42
1.015
50
0
0
INSERT
8
0
2
TEXT$65
10
-26243
20
27816
41
1.015
42
1.015
50
0
0
INSERT
8
0
2
TEXT$66
10
-35345
20
27815
41
1.015
42
1.015
50
0
0
INSERT
8
0
2
TEXT$67
10
-24213
20
27816
41
1.015
42
1.015
50
0
0
INSERT
8
0
2
TEXT$68
10
-27258
20
27816
41
1.015
42
1.015
50
0
0
INSERT
8
0
2
TEXT$69
10
-37440
20
27876
41
1.015
42
1.015
50
0
0
INSERT
8
0
2
TEXT$70
10
-37643
20
27876
41
1.015
42
1.015
50
0
0
INSERT
8
0
2
device
10
12290
20
-19134
41
1.015
42
1.015
50
0
0
INSERT
8
0
2
device
10
12290
20
-915
41
1.015
42
1.015
50
0
0
INSERT
8
0
2
device
10
12290
20
17304
41
1.015
42
1.015
50
0
0
INSERT
8
0
2
device
10
12290
20
35523
41
1.015
42
1.015
50
0
0
INSERT
8
0
2
TEXT$71
10
-29255
20
27815
41
1.015
42
1.015
50
0
0
INSERT
8
0
2
device
10
-12146
20
-37354
41
1.015
42
1.015
50
0
0
INSERT
8
0
2
device
10
-12146
20
-19135
41
1.015
42
1.015
50
0
0
INSERT
8
0
2
device
10
-12146
20
-916
41
1.015
42
1.015
50
0
0
INSERT
8
0
2
device
10
-12146
20
17303
41
1.015
42
1.015
50
0
0
INSERT
8
0
2
device
10
-12146
20
35522
41
1.015
42
1.015
50
0
0
INSERT
8
0
2
device
10
-4001
20
-37354
41
1.015
42
1.015
50
0
0
INSERT
8
0
2
device
10
-4001
20
-19135
41
1.015
42
1.015
50
0
0
INSERT
8
0
2
device
10
-4001
20
-916
41
1.015
42
1.015
50
0
0
INSERT
8
0
2
device
10
-4001
20
17303
41
1.015
42
1.015
50
0
0
INSERT
8
0
2
device
10
-4001
20
35522
41
1.015
42
1.015
50
0
0
INSERT
8
0
2
device
10
4144
20
-37354
41
1.015
42
1.015
50
0
0
INSERT
8
0
2
device
10
4144
20
-19135
41
1.015
42
1.015
50
0
0
INSERT
8
0
2
device
10
4144
20
-916
41
1.015
42
1.015
50
0
0
INSERT
8
0
2
device
10
4144
20
17303
41
1.015
42
1.015
50
0
0
INSERT
8
0
2
device
10
4144
20
35522
41
1.015
42
1.015
50
0
0
INSERT
8
0
2
device
10
12290
20
-37354
41
1.015
42
1.015
50
0
0
INSERT
8
0
2
device
10
12290
20
-19135
41
1.015
42
1.015
50
0
0
INSERT
8
0
2
device
10
12290
20
-916
41
1.015
42
1.015
50
0
0
INSERT
8
0
2
device
10
12290
20
17303
41
1.015
42
1.015
50
0
0
INSERT
8
0
2
device
10
12290
20
35522
41
1.015
42
1.015
50
0
0
INSERT
8
0
2
TEXT$72
10
-38316
20
27884
41
1.015
42
1.015
50
0
0
INSERT
8
0
2
TEXT$73
10
-28273
20
27816
41
1.015
42
1.015
50
0
0
INSERT
8
0
2
TEXT$74
10
-37542
20
27876
41
1.015
42
1.015
50
0
0
INSERT
8
0
2
TEXT$75
10
-18123
20
27816
41
1.015
42
1.015
50
0
0
SOLID
8
L3D0_control
10
22837
20
35437
11
22837
21
35640
12
27912
22
35437
13
27912
23
35640
0
SOLID
8
L3D0_control
10
22796
20
32473
11
22796
21
33488
12
22837
22
32473
13
22837
23
33488
0
SOLID
8
L3D0_control
10
22309
20
32961
11
22309
21
33001
12
23324
22
32961
13
23324
23
33001
0
SOLID
8
L3D0_control
10
22202
20
32463
11
22202
21
32473
12
22405
22
32463
13
22405
23
32473
0
SOLID
8
L3D0_control
10
22299
20
32367
11
22299
21
32570
12
22309
22
32367
13
22309
23
32570
0
SOLID
8
L3D0_control
10
22181
20
32365
11
22181
21
32367
12
22222
22
32365
13
22222
23
32367
0
SOLID
8
L3D0_control
10
22200
20
32346
11
22200
21
32386
12
22202
22
32346
13
22202
23
32386
0
SOLID
8
L3D0_control
10
25273
20
33001
11
25273
21
38076
12
25476
22
33001
13
25476
23
38076
0
SOLID
8
L3D0_control
10
-18043
20
27893
11
-18043
21
28096
12
-18029
22
27893
13
-18029
23
28096
0
SOLID
8
L3D0_control
10
-27913
20
35437
11
-27913
21
35640
12
-22838
22
35437
13
-22838
23
35640
0
SOLID
8
L3D0_control
10
-22838
20
32473
11
-22838
21
33488
12
-22798
22
32473
13
-22798
23
33488
0
SOLID
8
L3D0_control
10
-23326
20
32961
11
-23326
21
33001
12
-22311
22
32961
13
-22311
23
33001
0
SOLID
8
L3D0_control
10
-22407
20
32463
11
-22407
21
32473
12
-22204
22
32463
13
-22204
23
32473
0
SOLID
8
L3D0_control
10
-22311
20
32367
11
-22311
21
32570
12
-22300
22
32367
13
-22300
23
32570
0
SOLID
8
L3D0_control
10
-22223
20
32365
11
-22223
21
32367
12
-22183
22
32365
13
-22183
23
32367
0
SOLID
8
L3D0_control
10
-22204
20
32346
11
-22204
21
32386
12
-22202
22
32346
13
-22202
23
32386
0
SOLID
8
L3D0_control
10
-25477
20
33001
11
-25477
21
38076
12
-25274
22
33001
13
-25274
23
38076
0
SOLID
8
L3D0_control
10
-38237
20
27893
11
-38237
21
27974
12
-38232
22
27893
13
-38232
23
27974
0
SOLID
8
L3D0_control
10
-38135
20
27893
11
-38135
21
27974
12
-38130
22
27893
13
-38130
23
27974
0
SOLID
8
L3D0_control
10
-38034
20
27893
11
-38034
21
27974
12
-38029
22
27893
13
-38029
23
27974
0
SOLID
8
L3D0_control
10
-37932
20
27893
11
-37932
21
27974
12
-37927
22
27893
13
-37927
23
27974
0
SOLID
8
L3D0_control
10
-37831
20
27893
11
-37831
21
27974
12
-37826
22
27893
13
-37826
23
27974
0
SOLID
8
L3D0_control
10
-37729
20
27893
11
-37729
21
27974
12
-37724
22
27893
13
-37724
23
27974
0
SOLID
8
L3D0_control
10
-37628
20
27893
11
-37628
21
27974
12
-37623
22
27893
13
-37623
23
27974
0
SOLID
8
L3D0_control
10
-37526
20
27893
11
-37526
21
27974
12
-37521
22
27893
13
-37521
23
27974
0
SOLID
8
L3D0_control
10
-37425
20
27893
11
-37425
21
27974
12
-37420
22
27893
13
-37420
23
27974
0
SOLID
8
L3D0_control
10
-38296
20
27893
11
-38296
21
27913
12
-38295
22
27893
13
-38295
23
27913
0
SOLID
8
L3D0_control
10
-38291
20
27893
11
-38291
21
27913
12
-38290
22
27893
13
-38290
23
27913
0
SOLID
8
L3D0_control
10
-38281
20
27893
11
-38281
21
27913
12
-38280
22
27893
13
-38280
23
27913
0
SOLID
8
L3D0_control
10
-38276
20
27893
11
-38276
21
27913
12
-38275
22
27893
13
-38275
23
27913
0
SOLID
8
L3D0_control
10
-38270
20
27893
11
-38270
21
27913
12
-38269
22
27893
13
-38269
23
27913
0
SOLID
8
L3D0_control
10
-38265
20
27893
11
-38265
21
27913
12
-38264
22
27893
13
-38264
23
27913
0
SOLID
8
L3D0_control
10
-38255
20
27893
11
-38255
21
27913
12
-38254
22
27893
13
-38254
23
27913
0
SOLID
8
L3D0_control
10
-38250
20
27893
11
-38250
21
27913
12
-38249
22
27893
13
-38249
23
27913
0
SOLID
8
L3D0_control
10
-38245
20
27893
11
-38245
21
27913
12
-38244
22
27893
13
-38244
23
27913
0
SOLID
8
L3D0_control
10
-38240
20
27893
11
-38240
21
27913
12
-38239
22
27893
13
-38239
23
27913
0
SOLID
8
L3D0_control
10
-38230
20
27893
11
-38230
21
27913
12
-38229
22
27893
13
-38229
23
27913
0
SOLID
8
L3D0_control
10
-38225
20
27893
11
-38225
21
27913
12
-38224
22
27893
13
-38224
23
27913
0
SOLID
8
L3D0_control
10
-38220
20
27893
11
-38220
21
27913
12
-38219
22
27893
13
-38219
23
27913
0
SOLID
8
L3D0_control
10
-38215
20
27893
11
-38215
21
27913
12
-38214
22
27893
13
-38214
23
27913
0
SOLID
8
L3D0_control
10
-38204
20
27893
11
-38204
21
27913
12
-38203
22
27893
13
-38203
23
27913
0
SOLID
8
L3D0_control
10
-38199
20
27893
11
-38199
21
27913
12
-38198
22
27893
13
-38198
23
27913
0
SOLID
8
L3D0_control
10
-38194
20
27893
11
-38194
21
27913
12
-38193
22
27893
13
-38193
23
27913
0
SOLID
8
L3D0_control
10
-38189
20
27893
11
-38189
21
27913
12
-38188
22
27893
13
-38188
23
27913
0
SOLID
8
L3D0_control
10
-38179
20
27893
11
-38179
21
27913
12
-38178
22
27893
13
-38178
23
27913
0
SOLID
8
L3D0_control
10
-38174
20
27893
11
-38174
21
27913
12
-38173
22
27893
13
-38173
23
27913
0
SOLID
8
L3D0_control
10
-38169
20
27893
11
-38169
21
27913
12
-38168
22
27893
13
-38168
23
27913
0
SOLID
8
L3D0_control
10
-38164
20
27893
11
-38164
21
27913
12
-38163
22
27893
13
-38163
23
27913
0
SOLID
8
L3D0_control
10
-38154
20
27893
11
-38154
21
27913
12
-38153
22
27893
13
-38153
23
27913
0
SOLID
8
L3D0_control
10
-38149
20
27893
11
-38149
21
27913
12
-38148
22
27893
13
-38148
23
27913
0
SOLID
8
L3D0_control
10
-38144
20
27893
11
-38144
21
27913
12
-38143
22
27893
13
-38143
23
27913
0
SOLID
8
L3D0_control
10
-38138
20
27893
11
-38138
21
27913
12
-38137
22
27893
13
-38137
23
27913
0
SOLID
8
L3D0_control
10
-38128
20
27893
11
-38128
21
27913
12
-38127
22
27893
13
-38127
23
27913
0
SOLID
8
L3D0_control
10
-38123
20
27893
11
-38123
21
27913
12
-38122
22
27893
13
-38122
23
27913
0
SOLID
8
L3D0_control
10
-38118
20
27893
11
-38118
21
27913
12
-38117
22
27893
13
-38117
23
27913
0
SOLID
8
L3D0_control
10
-38113
20
27893
11
-38113
21
27913
12
-38112
22
27893
13
-38112
23
27913
0
SOLID
8
L3D0_control
10
-38103
20
27893
11
-38103
21
27913
12
-38102
22
27893
13
-38102
23
27913
0
SOLID
8
L3D0_control
10
-38098
20
27893
11
-38098
21
27913
12
-38097
22
27893
13
-38097
23
27913
0
SOLID
8
L3D0_control
10
-38093
20
27893
11
-38093
21
27913
12
-38092
22
27893
13
-38092
23
27913
0
SOLID
8
L3D0_control
10
-38088
20
27893
11
-38088
21
27913
12
-38087
22
27893
13
-38087
23
27913
0
SOLID
8
L3D0_control
10
-38078
20
27893
11
-38078
21
27913
12
-38077
22
27893
13
-38077
23
27913
0
SOLID
8
L3D0_control
10
-38073
20
27893
11
-38073
21
27913
12
-38072
22
27893
13
-38072
23
27913
0
SOLID
8
L3D0_control
10
-38067
20
27893
11
-38067
21
27913
12
-38066
22
27893
13
-38066
23
27913
0
SOLID
8
L3D0_control
10
-38062
20
27893
11
-38062
21
27913
12
-38061
22
27893
13
-38061
23
27913
0
SOLID
8
L3D0_control
10
-38052
20
27893
11
-38052
21
27913
12
-38051
22
27893
13
-38051
23
27913
0
SOLID
8
L3D0_control
10
-38047
20
27893
11
-38047
21
27913
12
-38046
22
27893
13
-38046
23
27913
0
SOLID
8
L3D0_control
10
-38042
20
27893
11
-38042
21
27913
12
-38041
22
27893
13
-38041
23
27913
0
SOLID
8
L3D0_control
10
-38037
20
27893
11
-38037
21
27913
12
-38036
22
27893
13
-38036
23
27913
0
SOLID
8
L3D0_control
10
-38027
20
27893
11
-38027
21
27913
12
-38026
22
27893
13
-38026
23
27913
0
SOLID
8
L3D0_control
10
-38022
20
27893
11
-38022
21
27913
12
-38021
22
27893
13
-38021
23
27913
0
SOLID
8
L3D0_control
10
-38017
20
27893
11
-38017
21
27913
12
-38016
22
27893
13
-38016
23
27913
0
SOLID
8
L3D0_control
10
-38012
20
27893
11
-38012
21
27913
12
-38011
22
27893
13
-38011
23
27913
0
SOLID
8
L3D0_control
10
-38001
20
27893
11
-38001
21
27913
12
-38000
22
27893
13
-38000
23
27913
0
SOLID
8
L3D0_control
10
-37996
20
27893
11
-37996
21
27913
12
-37995
22
27893
13
-37995
23
27913
0
SOLID
8
L3D0_control
10
-37991
20
27893
11
-37991
21
27913
12
-37990
22
27893
13
-37990
23
27913
0
SOLID
8
L3D0_control
10
-37986
20
27893
11
-37986
21
27913
12
-37985
22
27893
13
-37985
23
27913
0
SOLID
8
L3D0_control
10
-37976
20
27893
11
-37976
21
27913
12
-37975
22
27893
13
-37975
23
27913
0
SOLID
8
L3D0_control
10
-37971
20
27893
11
-37971
21
27913
12
-37970
22
27893
13
-37970
23
27913
0
SOLID
8
L3D0_control
10
-37966
20
27893
11
-37966
21
27913
12
-37965
22
27893
13
-37965
23
27913
0
SOLID
8
L3D0_control
10
-37961
20
27893
11
-37961
21
27913
12
-37960
22
27893
13
-37960
23
27913
0
SOLID
8
L3D0_control
10
-37951
20
27893
11
-37951
21
27913
12
-37950
22
27893
13
-37950
23
27913
0
SOLID
8
L3D0_control
10
-37946
20
27893
11
-37946
21
27913
12
-37945
22
27893
13
-37945
23
27913
0
SOLID
8
L3D0_control
10
-37941
20
27893
11
-37941
21
27913
12
-37940
22
27893
13
-37940
23
27913
0
SOLID
8
L3D0_control
10
-37935
20
27893
11
-37935
21
27913
12
-37934
22
27893
13
-37934
23
27913
0
SOLID
8
L3D0_control
10
-37925
20
27893
11
-37925
21
27913
12
-37924
22
27893
13
-37924
23
27913
0
SOLID
8
L3D0_control
10
-37920
20
27893
11
-37920
21
27913
12
-37919
22
27893
13
-37919
23
27913
0
SOLID
8
L3D0_control
10
-37915
20
27893
11
-37915
21
27913
12
-37914
22
27893
13
-37914
23
27913
0
SOLID
8
L3D0_control
10
-37910
20
27893
11
-37910
21
27913
12
-37909
22
27893
13
-37909
23
27913
0
SOLID
8
L3D0_control
10
-37900
20
27893
11
-37900
21
27913
12
-37899
22
27893
13
-37899
23
27913
0
SOLID
8
L3D0_control
10
-37895
20
27893
11
-37895
21
27913
12
-37894
22
27893
13
-37894
23
27913
0
SOLID
8
L3D0_control
10
-37890
20
27893
11
-37890
21
27913
12
-37889
22
27893
13
-37889
23
27913
0
SOLID
8
L3D0_control
10
-37885
20
27893
11
-37885
21
27913
12
-37884
22
27893
13
-37884
23
27913
0
SOLID
8
L3D0_control
10
-37875
20
27893
11
-37875
21
27913
12
-37874
22
27893
13
-37874
23
27913
0
SOLID
8
L3D0_control
10
-37870
20
27893
11
-37870
21
27913
12
-37869
22
27893
13
-37869
23
27913
0
SOLID
8
L3D0_control
10
-37864
20
27893
11
-37864
21
27913
12
-37863
22
27893
13
-37863
23
27913
0
SOLID
8
L3D0_control
10
-37859
20
27893
11
-37859
21
27913
12
-37858
22
27893
13
-37858
23
27913
0
SOLID
8
L3D0_control
10
-37849
20
27893
11
-37849
21
27913
12
-37848
22
27893
13
-37848
23
27913
0
SOLID
8
L3D0_control
10
-37844
20
27893
11
-37844
21
27913
12
-37843
22
27893
13
-37843
23
27913
0
SOLID
8
L3D0_control
10
-37839
20
27893
11
-37839
21
27913
12
-37838
22
27893
13
-37838
23
27913
0
SOLID
8
L3D0_control
10
-37834
20
27893
11
-37834
21
27913
12
-37833
22
27893
13
-37833
23
27913
0
SOLID
8
L3D0_control
10
-37824
20
27893
11
-37824
21
27913
12
-37823
22
27893
13
-37823
23
27913
0
SOLID
8
L3D0_control
10
-37881
20
27893
11
-37881
21
27933
12
-37878
22
27893
13
-37878
23
27933
0
SOLID
8
L3D0_control
10
-38185
20
27893
11
-38185
21
27933
12
-38182
22
27893
13
-38182
23
27933
0
SOLID
8
L3D0_control
10
-38084
20
27893
11
-38084
21
27933
12
-38081
22
27893
13
-38081
23
27933
0
SOLID
8
L3D0_control
10
-37982
20
27893
11
-37982
21
27933
12
-37979
22
27893
13
-37979
23
27933
0
SOLID
8
L3D0_control
10
-38331
20
27893
11
-38331
21
27913
12
-38330
22
27893
13
-38330
23
27913
0
SOLID
8
L3D0_control
10
-38326
20
27893
11
-38326
21
27913
12
-38325
22
27893
13
-38325
23
27913
0
SOLID
8
L3D0_control
10
-38321
20
27893
11
-38321
21
27913
12
-38320
22
27893
13
-38320
23
27913
0
SOLID
8
L3D0_control
10
-38316
20
27893
11
-38316
21
27913
12
-38315
22
27893
13
-38315
23
27913
0
SOLID
8
L3D0_control
10
-38306
20
27893
11
-38306
21
27913
12
-38305
22
27893
13
-38305
23
27913
0
SOLID
8
L3D0_control
10
-38301
20
27893
11
-38301
21
27913
12
-38300
22
27893
13
-38300
23
27913
0
SOLID
8
L3D0_control
10
-38337
20
27893
11
-38337
21
27933
12
-38334
22
27893
13
-38334
23
27933
0
SOLID
8
L3D0_control
10
-38312
20
27893
11
-38312
21
27933
12
-38309
22
27893
13
-38309
23
27933
0
SOLID
8
L3D0_control
10
-38287
20
27893
11
-38287
21
27933
12
-38284
22
27893
13
-38284
23
27933
0
SOLID
8
L3D0_control
10
-38261
20
27893
11
-38261
21
27933
12
-38258
22
27893
13
-38258
23
27933
0
SOLID
8
L3D0_control
10
-38211
20
27893
11
-38211
21
27933
12
-38208
22
27893
13
-38208
23
27933
0
SOLID
8
L3D0_control
10
-38160
20
27893
11
-38160
21
27933
12
-38157
22
27893
13
-38157
23
27933
0
SOLID
8
L3D0_control
10
-38109
20
27893
11
-38109
21
27933
12
-38106
22
27893
13
-38106
23
27933
0
SOLID
8
L3D0_control
10
-38058
20
27893
11
-38058
21
27933
12
-38055
22
27893
13
-38055
23
27933
0
SOLID
8
L3D0_control
10
-38008
20
27893
11
-38008
21
27933
12
-38005
22
27893
13
-38005
23
27933
0
SOLID
8
L3D0_control
10
-37957
20
27893
11
-37957
21
27933
12
-37954
22
27893
13
-37954
23
27933
0
SOLID
8
L3D0_control
10
-37906
20
27893
11
-37906
21
27933
12
-37903
22
27893
13
-37903
23
27933
0
SOLID
8
L3D0_control
10
-37855
20
27893
11
-37855
21
27933
12
-37852
22
27893
13
-37852
23
27933
0
SOLID
8
L3D0_control
10
-37707
20
27893
11
-37707
21
27913
12
-37706
22
27893
13
-37706
23
27913
0
SOLID
8
L3D0_control
10
-37697
20
27893
11
-37697
21
27913
12
-37696
22
27893
13
-37696
23
27913
0
SOLID
8
L3D0_control
10
-37692
20
27893
11
-37692
21
27913
12
-37691
22
27893
13
-37691
23
27913
0
SOLID
8
L3D0_control
10
-37687
20
27893
11
-37687
21
27913
12
-37686
22
27893
13
-37686
23
27913
0
SOLID
8
L3D0_control
10
-37682
20
27893
11
-37682
21
27913
12
-37681
22
27893
13
-37681
23
27913
0
SOLID
8
L3D0_control
10
-37672
20
27893
11
-37672
21
27913
12
-37671
22
27893
13
-37671
23
27913
0
SOLID
8
L3D0_control
10
-37667
20
27893
11
-37667
21
27913
12
-37666
22
27893
13
-37666
23
27913
0
SOLID
8
L3D0_control
10
-37661
20
27893
11
-37661
21
27913
12
-37660
22
27893
13
-37660
23
27913
0
SOLID
8
L3D0_control
10
-37656
20
27893
11
-37656
21
27913
12
-37655
22
27893
13
-37655
23
27913
0
SOLID
8
L3D0_control
10
-37646
20
27893
11
-37646
21
27913
12
-37645
22
27893
13
-37645
23
27913
0
SOLID
8
L3D0_control
10
-37641
20
27893
11
-37641
21
27913
12
-37640
22
27893
13
-37640
23
27913
0
SOLID
8
L3D0_control
10
-37636
20
27893
11
-37636
21
27913
12
-37635
22
27893
13
-37635
23
27913
0
SOLID
8
L3D0_control
10
-37631
20
27893
11
-37631
21
27913
12
-37630
22
27893
13
-37630
23
27913
0
SOLID
8
L3D0_control
10
-37621
20
27893
11
-37621
21
27913
12
-37620
22
27893
13
-37620
23
27913
0
SOLID
8
L3D0_control
10
-37616
20
27893
11
-37616
21
27913
12
-37615
22
27893
13
-37615
23
27913
0
SOLID
8
L3D0_control
10
-37611
20
27893
11
-37611
21
27913
12
-37610
22
27893
13
-37610
23
27913
0
SOLID
8
L3D0_control
10
-37606
20
27893
11
-37606
21
27913
12
-37605
22
27893
13
-37605
23
27913
0
SOLID
8
L3D0_control
10
-37595
20
27893
11
-37595
21
27913
12
-37594
22
27893
13
-37594
23
27913
0
SOLID
8
L3D0_control
10
-37590
20
27893
11
-37590
21
27913
12
-37589
22
27893
13
-37589
23
27913
0
SOLID
8
L3D0_control
10
-37585
20
27893
11
-37585
21
27913
12
-37584
22
27893
13
-37584
23
27913
0
SOLID
8
L3D0_control
10
-37580
20
27893
11
-37580
21
27913
12
-37579
22
27893
13
-37579
23
27913
0
SOLID
8
L3D0_control
10
-37570
20
27893
11
-37570
21
27913
12
-37569
22
27893
13
-37569
23
27913
0
SOLID
8
L3D0_control
10
-37565
20
27893
11
-37565
21
27913
12
-37564
22
27893
13
-37564
23
27913
0
SOLID
8
L3D0_control
10
-37560
20
27893
11
-37560
21
27913
12
-37559
22
27893
13
-37559
23
27913
0
SOLID
8
L3D0_control
10
-37555
20
27893
11
-37555
21
27913
12
-37554
22
27893
13
-37554
23
27913
0
SOLID
8
L3D0_control
10
-37545
20
27893
11
-37545
21
27913
12
-37544
22
27893
13
-37544
23
27913
0
SOLID
8
L3D0_control
10
-37540
20
27893
11
-37540
21
27913
12
-37539
22
27893
13
-37539
23
27913
0
SOLID
8
L3D0_control
10
-37535
20
27893
11
-37535
21
27913
12
-37534
22
27893
13
-37534
23
27913
0
SOLID
8
L3D0_control
10
-37529
20
27893
11
-37529
21
27913
12
-37528
22
27893
13
-37528
23
27913
0
SOLID
8
L3D0_control
10
-37519
20
27893
11
-37519
21
27913
12
-37518
22
27893
13
-37518
23
27913
0
SOLID
8
L3D0_control
10
-37514
20
27893
11
-37514
21
27913
12
-37513
22
27893
13
-37513
23
27913
0
SOLID
8
L3D0_control
10
-37509
20
27893
11
-37509
21
27913
12
-37508
22
27893
13
-37508
23
27913
0
SOLID
8
L3D0_control
10
-37504
20
27893
11
-37504
21
27913
12
-37503
22
27893
13
-37503
23
27913
0
SOLID
8
L3D0_control
10
-37494
20
27893
11
-37494
21
27913
12
-37493
22
27893
13
-37493
23
27913
0
SOLID
8
L3D0_control
10
-37489
20
27893
11
-37489
21
27913
12
-37488
22
27893
13
-37488
23
27913
0
SOLID
8
L3D0_control
10
-37484
20
27893
11
-37484
21
27913
12
-37483
22
27893
13
-37483
23
27913
0
SOLID
8
L3D0_control
10
-37479
20
27893
11
-37479
21
27913
12
-37478
22
27893
13
-37478
23
27913
0
SOLID
8
L3D0_control
10
-37469
20
27893
11
-37469
21
27913
12
-37468
22
27893
13
-37468
23
27913
0
SOLID
8
L3D0_control
10
-37464
20
27893
11
-37464
21
27913
12
-37463
22
27893
13
-37463
23
27913
0
SOLID
8
L3D0_control
10
-37458
20
27893
11
-37458
21
27913
12
-37457
22
27893
13
-37457
23
27913
0
SOLID
8
L3D0_control
10
-37453
20
27893
11
-37453
21
27913
12
-37452
22
27893
13
-37452
23
27913
0
SOLID
8
L3D0_control
10
-37443
20
27893
11
-37443
21
27913
12
-37442
22
27893
13
-37442
23
27913
0
SOLID
8
L3D0_control
10
-37438
20
27893
11
-37438
21
27913
12
-37437
22
27893
13
-37437
23
27913
0
SOLID
8
L3D0_control
10
-37433
20
27893
11
-37433
21
27913
12
-37432
22
27893
13
-37432
23
27913
0
SOLID
8
L3D0_control
10
-37428
20
27893
11
-37428
21
27913
12
-37427
22
27893
13
-37427
23
27913
0
SOLID
8
L3D0_control
10
-37418
20
27893
11
-37418
21
27913
12
-37417
22
27893
13
-37417
23
27913
0
SOLID
8
L3D0_control
10
-37413
20
27893
11
-37413
21
27913
12
-37412
22
27893
13
-37412
23
27913
0
SOLID
8
L3D0_control
10
-37408
20
27893
11
-37408
21
27913
12
-37407
22
27893
13
-37407
23
27913
0
SOLID
8
L3D0_control
10
-37403
20
27893
11
-37403
21
27913
12
-37402
22
27893
13
-37402
23
27913
0
SOLID
8
L3D0_control
10
-37392
20
27893
11
-37392
21
27913
12
-37391
22
27893
13
-37391
23
27913
0
SOLID
8
L3D0_control
10
-37387
20
27893
11
-37387
21
27913
12
-37386
22
27893
13
-37386
23
27913
0
SOLID
8
L3D0_control
10
-37382
20
27893
11
-37382
21
27913
12
-37381
22
27893
13
-37381
23
27913
0
SOLID
8
L3D0_control
10
-37377
20
27893
11
-37377
21
27913
12
-37376
22
27893
13
-37376
23
27913
0
SOLID
8
L3D0_control
10
-37367
20
27893
11
-37367
21
27913
12
-37366
22
27893
13
-37366
23
27913
0
SOLID
8
L3D0_control
10
-37362
20
27893
11
-37362
21
27913
12
-37361
22
27893
13
-37361
23
27913
0
SOLID
8
L3D0_control
10
-37357
20
27893
11
-37357
21
27913
12
-37356
22
27893
13
-37356
23
27913
0
SOLID
8
L3D0_control
10
-37352
20
27893
11
-37352
21
27913
12
-37351
22
27893
13
-37351
23
27913
0
SOLID
8
L3D0_control
10
-37703
20
27893
11
-37703
21
27933
12
-37700
22
27893
13
-37700
23
27933
0
SOLID
8
L3D0_control
10
-37602
20
27893
11
-37602
21
27933
12
-37599
22
27893
13
-37599
23
27933
0
SOLID
8
L3D0_control
10
-37779
20
27893
11
-37779
21
27933
12
-37776
22
27893
13
-37776
23
27933
0
SOLID
8
L3D0_control
10
-37551
20
27893
11
-37551
21
27933
12
-37548
22
27893
13
-37548
23
27933
0
SOLID
8
L3D0_control
10
-37678
20
27893
11
-37678
21
27933
12
-37675
22
27893
13
-37675
23
27933
0
SOLID
8
L3D0_control
10
-37500
20
27893
11
-37500
21
27933
12
-37497
22
27893
13
-37497
23
27933
0
SOLID
8
L3D0_control
10
-37576
20
27893
11
-37576
21
27933
12
-37573
22
27893
13
-37573
23
27933
0
SOLID
8
L3D0_control
10
-37449
20
27893
11
-37449
21
27933
12
-37446
22
27893
13
-37446
23
27933
0
SOLID
8
L3D0_control
10
-37754
20
27893
11
-37754
21
27933
12
-37751
22
27893
13
-37751
23
27933
0
SOLID
8
L3D0_control
10
-37652
20
27893
11
-37652
21
27933
12
-37649
22
27893
13
-37649
23
27933
0
SOLID
8
L3D0_control
10
-37373
20
27893
11
-37373
21
27933
12
-37370
22
27893
13
-37370
23
27933
0
SOLID
8
L3D0_control
10
-37819
20
27893
11
-37819
21
27913
12
-37818
22
27893
13
-37818
23
27913
0
SOLID
8
L3D0_control
10
-37814
20
27893
11
-37814
21
27913
12
-37813
22
27893
13
-37813
23
27913
0
SOLID
8
L3D0_control
10
-37809
20
27893
11
-37809
21
27913
12
-37808
22
27893
13
-37808
23
27913
0
SOLID
8
L3D0_control
10
-37798
20
27893
11
-37798
21
27913
12
-37797
22
27893
13
-37797
23
27913
0
SOLID
8
L3D0_control
10
-37793
20
27893
11
-37793
21
27913
12
-37792
22
27893
13
-37792
23
27913
0
SOLID
8
L3D0_control
10
-37788
20
27893
11
-37788
21
27913
12
-37787
22
27893
13
-37787
23
27913
0
SOLID
8
L3D0_control
10
-37348
20
27893
11
-37348
21
27933
12
-37345
22
27893
13
-37345
23
27933
0
SOLID
8
L3D0_control
10
-37475
20
27893
11
-37475
21
27933
12
-37472
22
27893
13
-37472
23
27933
0
SOLID
8
L3D0_control
10
-37399
20
27893
11
-37399
21
27933
12
-37396
22
27893
13
-37396
23
27933
0
SOLID
8
L3D0_control
10
-37783
20
27893
11
-37783
21
27913
12
-37782
22
27893
13
-37782
23
27913
0
SOLID
8
L3D0_control
10
-37773
20
27893
11
-37773
21
27913
12
-37772
22
27893
13
-37772
23
27913
0
SOLID
8
L3D0_control
10
-37768
20
27893
11
-37768
21
27913
12
-37767
22
27893
13
-37767
23
27913
0
SOLID
8
L3D0_control
10
-37763
20
27893
11
-37763
21
27913
12
-37762
22
27893
13
-37762
23
27913
0
SOLID
8
L3D0_control
10
-37758
20
27893
11
-37758
21
27913
12
-37757
22
27893
13
-37757
23
27913
0
SOLID
8
L3D0_control
10
-37748
20
27893
11
-37748
21
27913
12
-37747
22
27893
13
-37747
23
27913
0
SOLID
8
L3D0_control
10
-37743
20
27893
11
-37743
21
27913
12
-37742
22
27893
13
-37742
23
27913
0
SOLID
8
L3D0_control
10
-37738
20
27893
11
-37738
21
27913
12
-37737
22
27893
13
-37737
23
27913
0
SOLID
8
L3D0_control
10
-37732
20
27893
11
-37732
21
27913
12
-37731
22
27893
13
-37731
23
27913
0
SOLID
8
L3D0_control
10
-37722
20
27893
11
-37722
21
27913
12
-37721
22
27893
13
-37721
23
27913
0
SOLID
8
L3D0_control
10
-37717
20
27893
11
-37717
21
27913
12
-37716
22
27893
13
-37716
23
27913
0
SOLID
8
L3D0_control
10
-37712
20
27893
11
-37712
21
27913
12
-37711
22
27893
13
-37711
23
27913
0
SOLID
8
L3D0_control
10
-37805
20
27893
11
-37805
21
27933
12
-37802
22
27893
13
-37802
23
27933
0
SOLID
8
L3D0_control
10
-25477
20
-38049
11
-25477
21
-32974
12
-25274
22
-38049
13
-25274
23
-32974
0
SOLID
8
L3D0_control
10
-27913
20
-35613
11
-27913
21
-35410
12
-22838
22
-35613
13
-22838
23
-35410
0
SOLID
8
L3D0_control
10
-22204
20
-32359
11
-22204
21
-32318
12
-22202
22
-32359
13
-22202
23
-32318
0
SOLID
8
L3D0_control
10
-22311
20
-32542
11
-22311
21
-32339
12
-22300
22
-32542
13
-22300
23
-32339
0
SOLID
8
L3D0_control
10
-22838
20
-33461
11
-22838
21
-32446
12
-22798
22
-33461
13
-22798
23
-32446
0
SOLID
8
L3D0_control
10
-22407
20
-32446
11
-22407
21
-32436
12
-22204
22
-32446
13
-22204
23
-32436
0
SOLID
8
L3D0_control
10
-22223
20
-32339
11
-22223
21
-32337
12
-22183
22
-32339
13
-22183
23
-32337
0
SOLID
8
L3D0_control
10
-23326
20
-32974
11
-23326
21
-32933
12
-22311
22
-32974
13
-22311
23
-32933
0
SOLID
8
L3D0_control
10
25273
20
-38049
11
25273
21
-32974
12
25476
22
-38049
13
25476
23
-32974
0
SOLID
8
L3D0_control
10
22200
20
-32359
11
22200
21
-32318
12
22202
22
-32359
13
22202
23
-32318
0
SOLID
8
L3D0_control
10
22796
20
-33461
11
22796
21
-32446
12
22837
22
-33461
13
22837
23
-32446
0
SOLID
8
L3D0_control
10
22837
20
-35613
11
22837
21
-35410
12
27912
22
-35613
13
27912
23
-35410
0
SOLID
8
L3D0_control
10
22181
20
-32339
11
22181
21
-32337
12
22222
22
-32339
13
22222
23
-32337
0
SOLID
8
L3D0_control
10
22309
20
-32974
11
22309
21
-32933
12
23324
22
-32974
13
23324
23
-32933
0
SOLID
8
L3D0_control
10
22299
20
-32542
11
22299
21
-32339
12
22309
22
-32542
13
22309
23
-32339
0
SOLID
8
L3D0_control
10
22202
20
-32446
11
22202
21
-32436
12
22405
22
-32446
13
22405
23
-32436
0
ENDSEC
0
EOF
